<?xml version="1.0" encoding="UTF-8" standalone="no"?>
<!-- Created with Inkscape (http://www.inkscape.org/) -->

<svg
   xmlns:dc="http://purl.org/dc/elements/1.1/"
   xmlns:cc="http://creativecommons.org/ns#"
   xmlns:rdf="http://www.w3.org/1999/02/22-rdf-syntax-ns#"
   xmlns:svg="http://www.w3.org/2000/svg"
   xmlns="http://www.w3.org/2000/svg"
   xmlns:sodipodi="http://sodipodi.sourceforge.net/DTD/sodipodi-0.dtd"
   xmlns:inkscape="http://www.inkscape.org/namespaces/inkscape"
   width="47.802929mm"
   height="108.69695mm"
   viewBox="0 0 47.802929 108.69695"
   version="1.1"
   id="svg8"
   inkscape:version="0.92.3 (2405546, 2018-03-11)"
   sodipodi:docname="poking.svg">
  <defs
     id="defs2" />
  <sodipodi:namedview
     id="base"
     pagecolor="#ffffff"
     bordercolor="#666666"
     borderopacity="1.0"
     inkscape:pageopacity="0.0"
     inkscape:pageshadow="2"
     inkscape:zoom="0.35"
     inkscape:cx="3051.1"
     inkscape:cy="-1069.4171"
     inkscape:document-units="mm"
     inkscape:current-layer="layer1"
     showgrid="false"
     fit-margin-top="0"
     fit-margin-left="0"
     fit-margin-right="0"
     fit-margin-bottom="0"
     inkscape:window-width="2493"
     inkscape:window-height="1385"
     inkscape:window-x="67"
     inkscape:window-y="27"
     inkscape:window-maximized="1" />
  <metadata
     id="metadata5">
    <rdf:RDF>
      <cc:Work
         rdf:about="">
        <dc:format>image/svg+xml</dc:format>
        <dc:type
           rdf:resource="http://purl.org/dc/dcmitype/StillImage" />
        <dc:title></dc:title>
      </cc:Work>
    </rdf:RDF>
  </metadata>
  <g
     inkscape:label="Capa 1"
     inkscape:groupmode="layer"
     id="layer1"
     transform="translate(-11.426212,-32.353117)">
    <path
       style="fill:#000000;stroke-width:0.16869946"
       d="m 11.93734,140.81671 c -0.46061,-0.3368 -0.577612,-1.97145 -0.47837,-6.68332 0.04591,-2.18045 0.105692,-7.22877 0.132821,-11.21852 0.02711,-3.98974 0.07062,-9.00011 0.09665,-11.13416 0.02602,-2.13405 -0.01224,-4.82903 -0.08506,-5.98883 -0.07282,-1.15981 -0.12847,-3.20951 -0.123664,-4.55489 0.0048,-1.345379 0.01478,-4.533799 0.02209,-7.085377 0.0074,-2.551582 0.09539,-5.891831 0.195638,-7.422779 0.100246,-1.530944 0.246834,-4.529579 0.325757,-6.663628 0.188861,-5.106665 0.500549,-9.741678 0.669293,-9.952795 0.07437,-0.09305 0.188603,-1.231981 0.253854,-2.530967 0.06526,-1.298982 0.190923,-2.893193 0.279266,-3.542689 0.08834,-0.64949 0.26623,-2.015956 0.395302,-3.03659 0.462097,-3.654032 0.915395,-5.806697 1.705153,-8.097572 0.127943,-0.371143 0.392935,-1.282121 0.588869,-2.024397 0.784315,-2.971325 0.98572,-3.585998 1.520093,-4.639236 0.305988,-0.6031 0.815303,-1.503289 1.131806,-2.000419 0.560426,-0.880248 0.569851,-0.923927 0.360657,-1.671096 -0.211285,-0.754643 -0.206723,-0.773685 0.278395,-1.161852 0.271266,-0.217051 0.651624,-0.395015 0.845248,-0.395479 0.247724,-4.78e-4 0.597649,-0.362674 1.180894,-1.221928 1.658265,-2.443007 4.291931,-5.331689 5.375516,-5.896026 0.366614,-0.190937 1.429421,-0.613482 2.361793,-0.938999 1.508434,-0.526631 1.89039,-0.592929 3.466562,-0.601709 2.734418,-0.01525 3.400043,0.481895 4.394113,3.28176 0.379928,1.070094 0.385695,2.371587 0.0197,4.448217 -0.346123,1.963948 -1.813954,5.561982 -2.821686,6.916679 -0.207062,0.278357 -0.764919,1.151374 -1.239684,1.940046 -0.474765,0.788667 -0.935064,1.547815 -1.022891,1.686996 -0.08783,0.139176 -0.423525,0.822409 -0.745992,1.518295 -0.322477,0.695881 -0.970757,2.079208 -1.44064,3.074048 -0.469878,0.994844 -0.854291,1.867866 -0.854248,1.940046 1.48e-4,0.264552 -1.22715,4.566104 -1.770217,6.204419 -1.510845,4.557904 -1.547695,5.535945 -0.330505,8.772376 0.209371,0.556705 0.589978,1.695426 0.845783,2.530489 0.806079,2.631375 1.285869,4.027001 1.623883,4.723586 0.180091,0.371138 0.596807,1.35803 0.926035,2.193092 0.779519,1.977174 2.415543,5.314033 2.605414,5.314033 0.08158,0 0.148319,0.10431 0.148319,0.231804 0,0.197326 0.298691,0.777927 1.00899,1.961288 0.908256,1.513164 1.238714,2.499143 1.281369,3.823197 0.02759,0.857112 0.138765,1.525922 0.294387,1.771341 0.137517,0.216865 0.304701,0.659997 0.371526,0.984745 0.18548,0.901417 1.304409,2.951934 2.945789,5.398381 0.55769,0.83123 0.965344,1.51314 2.348996,3.92934 0.223593,0.39044 0.79958,1.31722 1.279973,2.05949 0.480398,0.74228 1.1166,1.80509 1.413784,2.3618 0.297184,0.5567 0.730465,1.22914 0.962843,1.4943 0.39304,0.44849 3.040698,1.93097 3.963883,2.21947 0.224378,0.0701 0.647325,0.33621 0.939885,0.59131 0.29256,0.25511 0.596219,0.49159 0.674797,0.52552 0.291742,0.12595 1.091953,1.34469 1.334747,2.03284 0.138023,0.3912 0.375886,0.84933 0.528577,1.01805 0.320023,0.35362 0.524287,0.73678 2.908076,5.45487 1.517864,3.00423 1.847652,3.53966 2.391656,3.88308 1.177992,0.74363 1.760176,1.36158 1.802186,1.91291 0.046,0.60379 -0.277277,0.70258 -0.601298,0.18374 -0.115888,-0.18558 -0.29421,-0.33741 -0.396268,-0.33741 -0.207396,0 -0.09172,0.61642 0.269109,1.43395 0.122851,0.27836 0.302837,0.75282 0.399965,1.05437 0.158706,0.49275 0.142944,0.54827 -0.155651,0.54827 -0.204862,0 -0.403579,-0.17785 -0.518324,-0.46392 -0.774321,-1.9304 -0.987576,-2.57527 -0.987576,-2.98634 0,-0.2595 -0.18329,-0.53736 -0.506097,-0.76722 -0.278357,-0.19821 -0.506101,-0.45864 -0.506101,-0.57874 0,-0.1201 -0.224871,-0.50133 -0.499713,-0.84717 -0.564213,-0.70997 -2.095982,-3.4989 -2.274461,-4.14117 -0.156539,-0.56333 -2.640514,-5.55918 -2.961604,-5.95649 -0.335192,-0.41476 -1.830399,-1.39638 -2.361793,-1.55054 -0.231962,-0.0673 -0.611536,-0.28616 -0.843498,-0.48638 -0.869402,-0.75041 -1.610875,-1.18453 -2.181615,-1.2773 -0.507202,-0.0824 -0.648071,-0.21674 -1.017086,-0.96968 -0.555763,-1.13399 -1.021351,-1.21525 -1.013064,-0.17681 0.0033,0.39434 0.152404,1.02064 0.331677,1.39178 0.527052,1.09112 0.375433,1.95971 -0.226061,1.29506 -0.470356,-0.51973 -0.805614,-1.75244 -0.869899,-3.1985 -0.05503,-1.23778 -0.134055,-1.52673 -0.692075,-2.53049 -0.346472,-0.62324 -0.798752,-1.3609 -1.005068,-1.63925 -0.206316,-0.27836 -0.58743,-0.92364 -0.846917,-1.43395 -0.259488,-0.51032 -0.647401,-1.14244 -0.862028,-1.40472 -0.214628,-0.26227 -0.390238,-0.55672 -0.390238,-0.65433 0,-0.0976 -0.300819,-0.61817 -0.668485,-1.1568 -0.367667,-0.53863 -1.230843,-2.066138 -1.918169,-3.394453 -2.263235,-4.373919 -2.030891,-4.084854 -3.086481,-3.839943 -0.359202,0.08334 -0.732048,0.153336 -0.828544,0.15555 -0.285421,0.0066 -1.486352,-1.201624 -2.008253,-2.020365 -0.266158,-0.417534 -0.609092,-0.948937 -0.762079,-1.180899 -0.152987,-0.231962 -0.382304,-0.687451 -0.509597,-1.012198 -0.409184,-1.043947 -1.022843,-2.438775 -1.187513,-2.69919 -0.088,-0.139176 -0.273422,-0.505236 -0.412039,-0.813462 -0.138616,-0.30823 -0.319975,-0.518424 -0.403015,-0.467104 -0.203141,0.125553 -0.06139,4.253646 0.232239,6.7633 0.130268,1.113415 0.234315,3.276988 0.231207,4.807936 -0.0029,1.530944 0.08514,5.023018 0.196092,7.760168 0.110953,2.73715 0.216903,6.30515 0.235453,7.92888 0.01855,1.62373 0.08116,3.97709 0.139138,5.22968 0.05798,1.2526 0.153919,3.9685 0.213188,6.03533 0.05927,2.06684 0.168241,4.15449 0.242152,4.63923 0.462906,3.036 0.852311,6.35817 0.849165,7.24463 -0.0019,0.50047 -0.510382,1.51868 -1.051612,2.10529 -0.341562,0.3702 -1.614663,0.89426 -2.17241,0.89426 -0.161925,0 -0.518765,-0.18879 -0.792981,-0.41952 -0.493917,-0.41561 -0.499756,-0.44125 -0.624696,-2.74137 -0.06936,-1.27701 -0.148166,-3.57444 -0.175118,-5.10538 -0.02697,-1.53095 -0.133983,-3.58065 -0.237848,-4.55489 -0.103866,-0.97424 -0.22588,-2.53049 -0.271142,-3.45834 -0.04524,-0.92785 -0.158185,-2.33227 -0.250937,-3.12094 -0.249105,-2.11806 -0.492434,-6.07817 -0.497546,-8.09757 -0.0061,-2.41461 -0.448617,-6.82191 -0.74144,-7.38473 -0.299518,-0.5757 -0.916955,-1.14581 -1.39905,-1.2918 -0.626934,-0.18986 -2.16651,0.36781 -2.791311,1.01107 -0.886043,0.91223 -1.61592,2.25807 -1.824154,3.36362 -0.322031,1.70973 -0.46927,6.75449 -0.595764,20.41263 -0.04984,5.38152 -0.164316,10.16715 -0.254385,10.63475 -0.09613,0.49903 -0.338888,1.03902 -0.587755,1.30741 -0.374127,0.40348 -0.548346,0.45726 -1.481459,0.45726 -0.634045,0 -1.185265,-0.0934 -1.376613,-0.23336 z m 1.941644,-0.51738 c 0.38624,-0.21309 0.438895,-0.38656 0.625437,-2.06059 0.118695,-1.06517 0.27556,-6.82584 0.37593,-13.80557 0.237878,-16.54234 0.275005,-17.04514 1.385135,-18.75806 0.770371,-1.18868 1.371664,-1.70065 2.636267,-2.24467 0.986524,-0.42439 2.104085,-0.38516 3.143163,0.11034 0.896478,0.4275 1.066254,0.91168 1.35419,3.86203 0.144436,1.47999 0.351221,3.48801 0.459515,4.46225 0.108294,0.97424 0.186308,2.83415 0.173358,4.13313 -0.01296,1.29899 0.09187,3.99396 0.232919,5.98884 0.14105,1.99487 0.325025,4.61393 0.408835,5.82013 0.08381,1.2062 0.232999,3.21794 0.331543,4.47053 0.09854,1.2526 0.203136,3.16449 0.232425,4.24866 0.05485,2.03007 0.201845,2.49932 0.782915,2.49932 0.388047,0 1.738158,-0.9167 1.859474,-1.26254 0.05285,-0.15066 0.033,-0.89613 -0.04419,-1.6566 -0.07713,-0.76049 -0.165592,-2.21776 -0.19657,-3.23839 -0.03099,-1.02063 -0.137905,-3.41195 -0.237624,-5.31403 -0.289122,-5.51494 -0.580448,-15.13822 -0.463987,-15.32666 0.0586,-0.0948 0.03094,-1.37285 -0.06147,-2.84006 -0.09241,-1.46722 -0.214474,-4.03413 -0.271246,-5.70426 -0.05678,-1.67012 -0.153494,-3.60595 -0.214933,-4.301834 l -0.111699,-1.265244 -1.338022,0.03276 c -0.735912,0.01803 -1.684849,0.143365 -2.108747,0.278539 -0.423894,0.135178 -1.03642,0.294774 -1.361167,0.354664 -1.615562,0.29793 -2.812835,0.678417 -3.078768,0.978413 -0.174353,0.19669 -0.295224,0.603882 -0.295224,0.994562 0,0.93585 -0.398955,1.80226 -0.874552,1.89927 -1.215573,0.24794 -2.392513,0.2502 -3.375325,0.007 -0.585283,-0.14515 -1.157257,-0.27815 -1.27105,-0.29555 -0.160686,-0.0246 -0.225153,2.22924 -0.288615,10.09031 -0.04495,5.56708 -0.112865,13.94693 -0.15093,18.62188 -0.03806,4.67495 -0.03056,8.64783 0.01674,8.82863 0.152499,0.58316 1.022733,0.78144 1.726241,0.39332 z m 3.205291,-38.55276 c 0.286702,-0.18133 0.353842,-1.80219 0.321587,-7.763657 -0.0024,-0.417529 -9.57e-4,-2.239483 0.0024,-4.048789 0.0033,-1.809301 -0.06883,-4.346188 -0.160801,-5.637532 -0.09198,-1.29134 -0.121856,-2.695766 -0.0664,-3.120941 0.05545,-0.425175 -0.01784,-1.911765 -0.162895,-3.303538 -0.284751,-2.732314 -0.345459,-10.157762 -0.08857,-10.833435 0.135231,-0.355678 0.639721,-0.548283 0.677245,-0.258554 0.009,0.06959 0.04041,1.379118 0.06977,2.910067 0.0938,4.890981 0.266885,11.665671 0.34697,13.580306 0.0427,1.020634 0.08566,3.960579 0.0955,6.533217 0.01353,3.536805 0.0697,4.720525 0.230346,4.853848 0.130741,0.108509 1.68021,0.191109 4.028618,0.214761 3.297025,0.03319 3.816062,0.0038 3.815445,-0.214613 -3.4e-4,-0.139176 -0.105688,-0.936283 -0.23398,-1.771346 -0.128293,-0.835062 -0.236606,-2.448869 -0.240694,-3.586241 -0.0043,-1.137373 -0.08768,-2.465884 -0.185763,-2.952241 -0.28302,-1.403454 -0.495113,-4.299018 -0.608461,-8.307068 -0.05773,-2.041263 -0.130712,-4.54645 -0.162197,-5.567084 -0.08053,-2.610941 0.409241,-6.788046 0.919781,-7.844528 0.156932,-0.324743 0.498641,-1.259391 0.759358,-2.076994 0.527266,-1.653517 0.445518,-2.046953 -0.30298,-1.458185 -0.464173,0.365113 -0.964694,0.390678 -1.07646,0.05497 -0.07772,-0.233459 1.316489,-1.074676 1.781145,-1.074676 0.342953,0 0.691936,-0.798767 0.958175,-2.193092 0.210893,-1.104454 0.90993,-3.006048 1.591934,-4.330537 0.374089,-0.726491 0.680321,-1.418484 0.680517,-1.537767 1.67e-4,-0.119274 -0.322281,-0.356133 -0.716617,-0.526344 -0.921244,-0.397645 -2.811959,-1.319946 -3.245947,-1.583388 -1.162096,-0.705427 -3.621911,-2.36922 -4.034371,-2.7288 -0.269587,-0.235032 -0.548561,-0.427327 -0.619938,-0.427327 -0.239756,0 -1.509352,-1.42989 -1.610215,-1.813524 -0.123692,-0.470442 -0.570004,-0.497757 -0.689139,-0.04218 -0.04853,0.185571 -0.143107,0.337401 -0.21018,0.337401 -0.277008,0 -2.067382,4.546039 -2.62434,6.663627 -0.122019,0.463925 -0.421011,1.488771 -0.66443,2.277443 -0.74429,2.411507 -1.437197,6.090023 -1.445857,7.675826 -0.0024,0.463924 -0.07372,1.147157 -0.158199,1.518295 -0.31846,1.399152 -0.843962,8.933569 -0.900122,12.90551 -0.01903,1.345377 -0.128331,3.167331 -0.242908,4.048789 -0.62758,4.828006 -0.904426,12.643166 -0.564739,15.942099 0.10509,1.020634 0.262677,2.570682 0.350193,3.44455 0.08751,0.873872 0.233578,1.663322 0.32459,1.754332 0.38392,0.38393 3.555369,0.60823 4.062718,0.28734 z m 4.217484,-3.916818 c 0.695886,-0.180025 1.872563,-0.363817 2.614844,-0.408434 2.384139,-0.143298 2.446138,-0.164215 2.446138,-0.825273 0,-0.397674 -0.101359,-0.631114 -0.326306,-0.751501 -0.478304,-0.255983 -6.354211,-0.203548 -7.096469,0.06332 -0.562558,0.202266 -0.59289,0.25449 -0.642203,1.105778 -0.07597,1.311525 -0.01196,1.397645 0.936174,1.259965 0.441415,-0.06409 1.371936,-0.263829 2.067822,-0.443858 z m 12.025256,-4.076606 c 0.298571,-0.12637 0.683161,-0.387311 0.85465,-0.579869 0.274871,-0.308637 0.287214,-0.42629 0.104229,-0.993305 -0.114161,-0.35376 -0.421746,-1.060731 -0.683524,-1.57105 -0.261778,-0.510315 -0.859016,-1.734596 -1.327201,-2.720627 -0.468185,-0.986032 -0.977438,-1.897009 -1.131672,-2.024397 -0.154231,-0.127384 -0.457827,-0.611182 -0.674659,-1.075106 -0.216832,-0.463924 -0.459687,-0.957368 -0.539681,-1.096549 -0.07999,-0.139176 -0.352417,-0.898324 -0.605381,-1.686991 -0.252965,-0.788671 -0.635628,-1.813518 -0.85036,-2.277442 -0.214728,-0.463924 -0.577292,-1.412861 -0.805687,-2.108747 -0.228394,-0.695882 -0.583948,-1.682773 -0.790111,-2.193093 -0.206168,-0.510314 -0.489441,-1.344784 -0.629492,-1.854371 -0.140052,-0.509588 -0.332552,-1.072113 -0.427782,-1.250047 -0.286515,-0.535358 -0.520156,0.08764 -0.325101,0.866882 0.08741,0.349193 0.157391,0.748765 0.155521,0.887942 -0.01167,0.871668 0.260941,5.286378 0.449124,7.272428 0.145923,1.54002 0.308627,2.457543 0.469174,2.645755 0.135179,0.158476 0.493343,0.819539 0.795926,1.46903 1.579644,3.390719 3.534305,7.16862 4.036887,7.802349 0.621319,0.783455 0.999243,0.8791 1.92514,0.487208 z M 30.964591,50.584972 c 0.316604,-0.394336 0.622932,-0.849743 0.680727,-1.012021 0.0578,-0.162273 0.68265,-1.166003 1.388568,-2.230507 0.859786,-1.296524 1.251406,-2.036543 1.186308,-2.241659 -0.160629,-0.506097 -4.007855,-2.335649 -5.58001,-2.653583 -0.742276,-0.150108 -1.691208,-0.395397 -2.108742,-0.545085 -0.533096,-0.191118 -1.412182,-0.279232 -2.95224,-0.295916 -1.206201,-0.01306 -2.286003,0.0069 -2.399561,0.04443 -0.260966,0.08617 -1.227476,1.643354 -1.227476,1.977642 0,0.294774 1.148084,1.9379 1.354051,1.9379 0.07783,0 0.191874,0.158701 0.253443,0.352675 0.06263,0.197321 0.457765,0.515761 0.897037,0.722918 1.01975,0.480906 2.194265,1.231331 2.725151,1.741162 0.407042,0.390903 1.621487,1.232033 1.778835,1.232033 0.224043,0 0.02965,-0.532732 -0.26054,-0.713947 -0.43306,-0.270453 -0.429608,-0.712136 0.009,-1.150734 0.291163,-0.291164 0.472718,-0.328497 1.138721,-0.234152 1.033909,0.146454 1.32031,0.404234 1.037084,0.933443 -0.281575,0.526133 -0.849523,0.984194 -1.228829,0.991076 -0.593025,0.01076 -0.160165,0.43209 1.166648,1.135555 0.73465,0.389502 1.387579,0.712141 1.45096,0.71697 0.06338,0.0048 0.37427,-0.313854 0.690874,-0.70819 z m -1.523082,-0.746398 c -0.208764,-0.145627 -0.379574,-0.39558 -0.379574,-0.555452 0,-0.29509 0.497164,-0.849069 0.761993,-0.849069 0.306371,0 1.260152,0.77182 1.261247,1.020634 0.0029,0.657323 -0.936991,0.876842 -1.643666,0.383887 z m -1.307422,-1.404521 c 0,-0.150644 -0.187737,-0.274652 -0.463924,-0.306428 -0.448626,-0.05162 -0.638114,0.244701 -0.344339,0.538481 0.206076,0.206076 0.808263,0.03319 0.808263,-0.232053 z m 6.91863,-4.449834 c 0.66454,-1.014221 1.177293,-4.412945 1.021169,-6.768679 -0.141055,-2.128296 -0.500372,-2.949448 -1.592718,-3.639863 -0.755809,-0.477711 -0.83159,-0.490541 -2.443752,-0.413727 -0.91507,0.04361 -1.750133,0.144336 -1.855696,0.223861 -0.105563,0.07953 -0.57151,0.280691 -1.035434,0.447039 -0.463924,0.166343 -0.995328,0.395708 -1.180899,0.509693 -0.185567,0.113989 -0.606453,0.257173 -0.935299,0.318187 -0.698788,0.129645 -1.53749,0.948903 -3.318778,3.241811 -1.323083,1.703101 -1.833957,2.575946 -1.622586,2.772235 0.07749,0.07195 0.900031,0.178938 1.827879,0.237738 1.854132,0.1175 5.211975,0.774402 6.663628,1.303625 0.510314,0.18604 1.155592,0.411642 1.433944,0.501329 0.278353,0.08969 0.961586,0.496547 1.518296,0.904129 0.556709,0.407583 1.067383,0.746146 1.134833,0.752362 0.06745,0.0062 0.240885,-0.169164 0.385413,-0.38974 z"
       id="path3813"
       inkscape:connector-curvature="0" />
  </g>
</svg>
