<?xml version="1.0" encoding="UTF-8" standalone="no"?>
<!-- Generator: Adobe Illustrator 23.0.0, SVG Export Plug-In . SVG Version: 6.00 Build 0)  -->

<svg
   xmlns:dc="http://purl.org/dc/elements/1.1/"
   xmlns:cc="http://creativecommons.org/ns#"
   xmlns:rdf="http://www.w3.org/1999/02/22-rdf-syntax-ns#"
   xmlns:svg="http://www.w3.org/2000/svg"
   xmlns="http://www.w3.org/2000/svg"
   xmlns:xlink="http://www.w3.org/1999/xlink"
   xmlns:sodipodi="http://sodipodi.sourceforge.net/DTD/sodipodi-0.dtd"
   xmlns:inkscape="http://www.inkscape.org/namespaces/inkscape"
   version="1.1"
   id="Layer_1"
   x="0px"
   y="0px"
   viewBox="0 0 1000 472.81"
   xml:space="preserve"
   sodipodi:docname="hello-kitty-backend-proper.svg"
   inkscape:version="0.92.4 (5da689c313, 2019-01-14)"
   width="1000"
   height="472.81"><metadata
   id="metadata383"><rdf:RDF><cc:Work
       rdf:about=""><dc:format>image/svg+xml</dc:format><dc:type
         rdf:resource="http://purl.org/dc/dcmitype/StillImage" /><dc:title></dc:title></cc:Work></rdf:RDF></metadata><defs
   id="defs381" /><sodipodi:namedview
   pagecolor="#ffffff"
   bordercolor="#666666"
   borderopacity="1"
   objecttolerance="10"
   gridtolerance="10"
   guidetolerance="10"
   inkscape:pageopacity="0"
   inkscape:pageshadow="2"
   inkscape:window-width="2490"
   inkscape:window-height="1376"
   id="namedview379"
   showgrid="false"
   inkscape:zoom="1"
   inkscape:cx="176.3295"
   inkscape:cy="303.08137"
   inkscape:window-x="70"
   inkscape:window-y="27"
   inkscape:window-maximized="1"
   inkscape:current-layer="Layer_1"
   fit-margin-top="0"
   fit-margin-left="0"
   fit-margin-right="0"
   fit-margin-bottom="0" />
<g
   id="g30"
   transform="matrix(0.78434333,0,0,0.78434333,-0.13886,-103.05487)">
				<defs
   id="defs5"><rect
     height="120.58"
     width="150.71001"
     y="570.54999"
     x="577.07001"
     id="SVGID_1_" /></defs>
				<clipPath
   id="SVGID_2_">
					<use
   height="100%"
   width="100%"
   y="0"
   x="0"
   id="use7"
   style="overflow:visible"
   xlink:href="#SVGID_1_" />
				</clipPath>
				<polygon
   id="polygon10"
   clip-path="url(#SVGID_2_)"
   points="652.43,691.13 727.79,647.65 652.43,604.15 577.07,647.65 "
   style="clip-rule:evenodd;fill:#263e5e;fill-rule:evenodd" />
				<polygon
   id="polygon12"
   clip-path="url(#SVGID_2_)"
   points="652.43,657.53 727.79,614.02 652.43,570.55 577.07,614.02 "
   style="clip-rule:evenodd;fill:#f6f7f8;fill-rule:evenodd" />
				<polygon
   id="polygon14"
   clip-path="url(#SVGID_2_)"
   points="652.43,683.63 727.79,640.12 727.79,614.02 652.43,657.53 "
   style="clip-rule:evenodd;fill:#728195;fill-rule:evenodd" />
				<polygon
   id="polygon16"
   clip-path="url(#SVGID_2_)"
   points="652.43,683.63 577.07,640.12 577.07,614.02 652.43,657.53 "
   style="clip-rule:evenodd;fill:#e0e2e7;fill-rule:evenodd" />
				<path
   inkscape:connector-curvature="0"
   id="path18"
   clip-path="url(#SVGID_2_)"
   d="m 660.61,669.53 38.61,-22.25 c 1.7,-0.97 3.07,-3.6 3.07,-5.86 0,-2.23 -1.37,-3.28 -3.07,-2.31 l -38.61,22.28 c -1.67,0.97 -3.07,3.6 -3.07,5.87 0,2.21 1.4,3.24 3.07,2.27 z"
   style="clip-rule:evenodd;fill:#263e5e;fill-rule:evenodd" />
				<path
   inkscape:connector-curvature="0"
   id="path20"
   clip-path="url(#SVGID_2_)"
   d="m 647.08,675.82 v 0 c 0.48,0.27 0.89,0 0.89,-0.67 v -12.83 c 0,-0.19 -0.03,-0.35 -0.05,-0.51 -0.05,-0.16 -0.11,-0.32 -0.19,-0.46 -0.08,-0.13 -0.16,-0.3 -0.27,-0.4 -0.11,-0.13 -0.24,-0.24 -0.38,-0.35 -0.48,-0.3 -0.89,0 -0.89,0.67 v 12.83 c 0,0.19 0.03,0.35 0.05,0.51 0.05,0.16 0.11,0.32 0.19,0.46 0.08,0.16 0.16,0.3 0.27,0.4 0.11,0.14 0.24,0.25 0.38,0.35 z"
   style="clip-rule:evenodd;fill:#96a0b0;fill-rule:evenodd" />
				<path
   inkscape:connector-curvature="0"
   id="path22"
   clip-path="url(#SVGID_2_)"
   d="m 643.39,674.16 v 0 c 0.51,0.27 0.91,0 0.91,-0.7 v -12.83 c 0,-0.16 -0.03,-0.32 -0.08,-0.48 -0.03,-0.16 -0.11,-0.32 -0.16,-0.46 -0.08,-0.16 -0.19,-0.3 -0.3,-0.43 -0.11,-0.11 -0.24,-0.24 -0.38,-0.32 -0.48,-0.3 -0.89,0 -0.89,0.67 v 12.86 c 0,0.19 0.03,0.35 0.08,0.48 0.05,0.16 0.11,0.32 0.19,0.46 0.08,0.16 0.16,0.3 0.27,0.4 0.12,0.13 0.25,0.24 0.36,0.35 z"
   style="clip-rule:evenodd;fill:#96a0b0;fill-rule:evenodd" />
				<path
   inkscape:connector-curvature="0"
   id="path24"
   clip-path="url(#SVGID_2_)"
   d="m 639.62,671.98 v 0 c 0.48,0.27 0.89,0 0.89,-0.67 v -12.86 c 0,-0.16 -0.03,-0.32 -0.05,-0.48 -0.05,-0.16 -0.11,-0.32 -0.19,-0.46 -0.08,-0.16 -0.16,-0.3 -0.27,-0.4 -0.11,-0.13 -0.24,-0.24 -0.38,-0.35 -0.48,-0.3 -0.89,0 -0.89,0.67 v 12.83 c 0,0.16 0.03,0.35 0.05,0.51 0.05,0.16 0.11,0.3 0.19,0.46 0.08,0.13 0.16,0.27 0.27,0.4 0.11,0.13 0.25,0.24 0.38,0.35 z"
   style="clip-rule:evenodd;fill:#96a0b0;fill-rule:evenodd" />
				<path
   inkscape:connector-curvature="0"
   id="path26"
   clip-path="url(#SVGID_2_)"
   d="m 719.26,630.33 c 0.24,0.13 0.43,0.38 0.51,0.73 0.08,0.32 0.08,0.73 0,1.16 -0.08,0.43 -0.27,0.89 -0.51,1.32 -0.24,0.43 -0.54,0.81 -0.89,1.1 -0.32,0.3 -0.67,0.48 -1.02,0.59 -0.32,0.08 -0.62,0.05 -0.86,-0.08 -0.24,-0.16 -0.43,-0.4 -0.51,-0.73 -0.11,-0.35 -0.11,-0.75 0,-1.18 0.08,-0.43 0.27,-0.89 0.51,-1.32 0.24,-0.4 0.54,-0.78 0.86,-1.08 0.35,-0.3 0.7,-0.51 1.02,-0.59 0.35,-0.11 0.65,-0.08 0.89,0.08 z"
   style="clip-rule:evenodd;fill:#fed7b4;fill-rule:evenodd" />
				<path
   inkscape:connector-curvature="0"
   id="path28"
   clip-path="url(#SVGID_2_)"
   d="m 714.15,633.13 c 0.24,0.13 0.4,0.38 0.51,0.7 0.08,0.35 0.08,0.75 0,1.18 -0.11,0.43 -0.27,0.89 -0.51,1.32 -0.24,0.43 -0.57,0.81 -0.89,1.1 -0.32,0.3 -0.67,0.48 -1.02,0.56 -0.32,0.11 -0.62,0.08 -0.89,-0.08 -0.24,-0.13 -0.4,-0.38 -0.48,-0.7 -0.11,-0.35 -0.11,-0.75 0,-1.18 0.08,-0.43 0.24,-0.89 0.48,-1.32 0.24,-0.43 0.56,-0.81 0.89,-1.1 0.35,-0.3 0.7,-0.48 1.02,-0.56 0.32,-0.11 0.64,-0.08 0.89,0.08 z"
   style="clip-rule:evenodd;fill:#7dd1e5;fill-rule:evenodd" />
			</g><g
   id="g48"
   transform="matrix(0.78434333,0,0,0.78434333,-0.13886,-103.05487)">
				<g
   id="g38">
					<polygon
   id="polygon32"
   points="614.39,574.48 652.32,595.86 652.32,622.76 "
   style="clip-rule:evenodd;fill:#8f8f8f;fill-rule:evenodd" />
					<polygon
   id="polygon34"
   points="614.39,570.55 652.32,554.19 652.32,513.34 "
   style="fill:#8f8f8f" />
					<polygon
   id="polygon36"
   points="652.32,589.89 652.32,554.19 614.39,570.55 "
   style="fill:#333333" />
				</g>
				<g
   id="g46">
					<polygon
   id="polygon40"
   points="690.46,574.48 652.53,595.86 652.53,622.76 "
   style="clip-rule:evenodd;fill:#333333;fill-rule:evenodd" />
					<polygon
   id="polygon42"
   points="690.46,570.55 652.53,554.19 652.53,513.34 "
   style="fill:#333333" />
					<polygon
   id="polygon44"
   points="652.53,589.89 652.53,554.19 690.46,570.55 "
   style="fill:#151515" />
				</g>
			</g><g
   id="g98"
   transform="matrix(0.78434333,0,0,0.78434333,-0.13886,-103.05487)">
				<g
   id="g76">
					<defs
   id="defs51"><rect
     height="207.99001"
     width="259.95999"
     y="131.75"
     x="785.22998"
     id="SVGID_3_" /></defs>
					<clipPath
   id="SVGID_4_">
						<use
   height="100%"
   width="100%"
   y="0"
   x="0"
   id="use53"
   style="overflow:visible"
   xlink:href="#SVGID_3_" />
					</clipPath>
					<polygon
   id="polygon56"
   clip-path="url(#SVGID_4_)"
   points="915.21,339.74 1045.19,264.75 915.21,189.71 785.23,264.75 "
   style="clip-rule:evenodd;fill:#263e5e;fill-rule:evenodd" />
					<polygon
   id="polygon58"
   clip-path="url(#SVGID_4_)"
   points="915.21,281.78 1045.19,206.74 915.21,131.75 785.23,206.74 "
   style="clip-rule:evenodd;fill:#f6f7f8;fill-rule:evenodd" />
					<polygon
   id="polygon60"
   clip-path="url(#SVGID_4_)"
   points="915.21,326.79 1045.19,251.75 1045.19,206.74 915.21,281.78 "
   style="clip-rule:evenodd;fill:#728195;fill-rule:evenodd" />
					<polygon
   id="polygon62"
   clip-path="url(#SVGID_4_)"
   points="915.21,326.79 785.23,251.75 785.23,206.74 915.21,281.78 "
   style="clip-rule:evenodd;fill:#e0e2e7;fill-rule:evenodd" />
					<path
   inkscape:connector-curvature="0"
   id="path64"
   clip-path="url(#SVGID_4_)"
   d="m 929.31,302.47 66.59,-38.38 c 2.92,-1.67 5.29,-6.22 5.29,-10.12 0,-3.85 -2.37,-5.66 -5.29,-3.99 l -66.59,38.42 c -2.88,1.67 -5.29,6.22 -5.29,10.12 0,3.86 2.42,5.62 5.29,3.95 z"
   style="clip-rule:evenodd;fill:#263e5e;fill-rule:evenodd" />
					<path
   inkscape:connector-curvature="0"
   id="path66"
   clip-path="url(#SVGID_4_)"
   d="m 905.97,313.33 v 0 c 0.83,0.46 1.53,0 1.53,-1.16 v -22.13 c 0,-0.32 -0.05,-0.6 -0.09,-0.88 -0.09,-0.28 -0.19,-0.56 -0.33,-0.79 -0.14,-0.23 -0.28,-0.51 -0.46,-0.7 -0.19,-0.23 -0.42,-0.42 -0.65,-0.6 -0.83,-0.51 -1.53,0 -1.53,1.16 v 22.13 c 0,0.32 0.05,0.6 0.09,0.88 0.09,0.28 0.19,0.56 0.33,0.79 0.14,0.28 0.28,0.51 0.46,0.7 0.19,0.23 0.42,0.42 0.65,0.6 z"
   style="clip-rule:evenodd;fill:#96a0b0;fill-rule:evenodd" />
					<path
   inkscape:connector-curvature="0"
   id="path68"
   clip-path="url(#SVGID_4_)"
   d="m 899.61,310.46 v 0 c 0.88,0.46 1.58,0 1.58,-1.21 v -22.14 c 0,-0.28 -0.05,-0.56 -0.14,-0.83 -0.05,-0.28 -0.18,-0.56 -0.28,-0.79 -0.14,-0.28 -0.32,-0.51 -0.51,-0.74 -0.19,-0.19 -0.42,-0.42 -0.65,-0.56 -0.83,-0.51 -1.53,0 -1.53,1.16 v 22.18 c 0,0.32 0.05,0.6 0.14,0.83 0.09,0.28 0.18,0.56 0.32,0.79 0.14,0.28 0.28,0.51 0.46,0.7 0.2,0.23 0.43,0.42 0.61,0.61 z"
   style="clip-rule:evenodd;fill:#96a0b0;fill-rule:evenodd" />
					<path
   inkscape:connector-curvature="0"
   id="path70"
   clip-path="url(#SVGID_4_)"
   d="m 893.12,306.7 v 0 c 0.83,0.46 1.53,0 1.53,-1.16 v -22.18 c 0,-0.28 -0.05,-0.56 -0.09,-0.83 -0.09,-0.28 -0.19,-0.56 -0.33,-0.79 -0.14,-0.28 -0.28,-0.51 -0.46,-0.7 -0.19,-0.23 -0.42,-0.42 -0.65,-0.6 -0.83,-0.51 -1.53,0 -1.53,1.16 v 22.13 c 0,0.28 0.05,0.6 0.09,0.88 0.09,0.28 0.19,0.51 0.33,0.79 0.14,0.23 0.28,0.46 0.46,0.7 0.18,0.23 0.42,0.41 0.65,0.6 z"
   style="clip-rule:evenodd;fill:#96a0b0;fill-rule:evenodd" />
					<path
   inkscape:connector-curvature="0"
   id="path72"
   clip-path="url(#SVGID_4_)"
   d="m 1030.48,234.86 c 0.42,0.23 0.74,0.65 0.88,1.25 0.14,0.56 0.14,1.25 0,1.99 -0.14,0.74 -0.46,1.53 -0.88,2.27 -0.42,0.74 -0.93,1.39 -1.53,1.9 -0.56,0.51 -1.16,0.83 -1.76,1.02 -0.56,0.14 -1.07,0.09 -1.48,-0.14 -0.42,-0.28 -0.74,-0.7 -0.88,-1.25 -0.18,-0.6 -0.18,-1.3 0,-2.04 0.14,-0.74 0.46,-1.53 0.88,-2.27 0.42,-0.7 0.93,-1.35 1.48,-1.86 0.6,-0.51 1.21,-0.88 1.76,-1.02 0.6,-0.17 1.11,-0.13 1.53,0.15 z"
   style="clip-rule:evenodd;fill:#fed7b4;fill-rule:evenodd" />
					<path
   inkscape:connector-curvature="0"
   id="path74"
   clip-path="url(#SVGID_4_)"
   d="m 1021.66,239.69 c 0.42,0.23 0.7,0.65 0.88,1.21 0.14,0.6 0.14,1.3 0,2.04 -0.18,0.74 -0.46,1.53 -0.88,2.27 -0.42,0.74 -0.98,1.39 -1.53,1.9 -0.56,0.51 -1.16,0.83 -1.76,0.97 -0.56,0.18 -1.07,0.14 -1.53,-0.14 -0.42,-0.23 -0.7,-0.65 -0.84,-1.21 -0.18,-0.6 -0.18,-1.3 0,-2.04 0.14,-0.74 0.42,-1.53 0.84,-2.27 0.42,-0.74 0.97,-1.39 1.53,-1.9 0.6,-0.51 1.21,-0.83 1.76,-0.97 0.56,-0.19 1.11,-0.14 1.53,0.14 z"
   style="clip-rule:evenodd;fill:#7dd1e5;fill-rule:evenodd" />
				</g>
				<g
   id="g96">
					<path
   inkscape:connector-curvature="0"
   id="path78"
   d="m 865.45,366.03 c 0.25,1.17 0.53,2.42 0.82,3.73 0.29,1.31 0.6,2.61 0.92,3.9 0.32,1.29 0.65,2.54 0.98,3.76 0.33,1.21 0.64,2.32 0.94,3.32 0.23,-1.1 0.46,-2.31 0.67,-3.65 0.21,-1.34 0.42,-2.74 0.63,-4.21 0.2,-1.47 0.39,-2.98 0.57,-4.55 0.17,-1.56 0.32,-3.13 0.44,-4.69 H 874 c -0.45,3.93 -0.95,7.55 -1.51,10.86 -0.56,3.31 -1.2,6.47 -1.94,9.48 h -2.67 c -0.29,-0.96 -0.61,-2.02 -0.95,-3.2 -0.34,-1.17 -0.68,-2.39 -1.01,-3.65 -0.33,-1.26 -0.65,-2.54 -0.97,-3.83 -0.31,-1.29 -0.6,-2.54 -0.85,-3.76 -0.25,1.21 -0.54,2.46 -0.85,3.76 -0.31,1.29 -0.64,2.57 -0.97,3.83 -0.33,1.26 -0.67,2.48 -1.01,3.65 -0.34,1.17 -0.66,2.24 -0.95,3.2 h -2.66 c -0.75,-3.01 -1.4,-6.17 -1.96,-9.48 -0.56,-3.31 -1.07,-6.92 -1.52,-10.86 h 2.67 c 0.12,1.57 0.27,3.12 0.44,4.68 0.18,1.56 0.37,3.07 0.58,4.55 0.21,1.48 0.42,2.89 0.63,4.23 0.22,1.34 0.44,2.56 0.68,3.65 0.29,-1 0.61,-2.1 0.94,-3.32 0.33,-1.21 0.66,-2.46 0.98,-3.76 0.32,-1.29 0.63,-2.59 0.92,-3.9 0.29,-1.31 0.57,-2.55 0.82,-3.73 h 2.61 z" />
					<path
   inkscape:connector-curvature="0"
   id="path80"
   d="m 878.75,377.01 c 0.02,0.74 0.09,1.42 0.21,2.04 0.12,0.62 0.31,1.15 0.57,1.61 0.26,0.46 0.62,0.82 1.06,1.07 0.44,0.25 1,0.38 1.69,0.38 0.57,0 1.09,-0.08 1.57,-0.25 0.48,-0.17 0.83,-0.31 1.04,-0.43 l 0.47,2.02 c -0.25,0.18 -0.68,0.37 -1.28,0.57 -0.6,0.21 -1.31,0.31 -2.13,0.31 -1.08,0 -1.98,-0.2 -2.71,-0.59 -0.73,-0.39 -1.33,-0.94 -1.79,-1.64 -0.46,-0.7 -0.79,-1.55 -0.98,-2.52 -0.2,-0.98 -0.29,-2.05 -0.29,-3.23 0,-2.84 0.47,-4.91 1.41,-6.22 0.94,-1.31 2.18,-1.97 3.73,-1.97 1.74,0 2.97,0.66 3.7,1.97 0.72,1.31 1.09,3.15 1.09,5.52 0,0.22 0,0.44 0,0.66 0,0.23 -0.01,0.45 -0.03,0.69 h -7.33 z m 2.55,-6.69 c -0.84,0 -1.45,0.42 -1.83,1.26 -0.38,0.84 -0.61,1.97 -0.69,3.37 h 4.67 c 0,-1.43 -0.15,-2.56 -0.44,-3.39 -0.3,-0.83 -0.87,-1.24 -1.71,-1.24 z" />
					<path
   inkscape:connector-curvature="0"
   id="path82"
   d="m 892.31,368.67 c 0.31,-0.16 0.63,-0.28 0.95,-0.37 0.32,-0.09 0.71,-0.13 1.16,-0.13 0.96,0 1.78,0.19 2.46,0.57 0.68,0.38 1.24,0.92 1.67,1.61 0.43,0.69 0.75,1.54 0.95,2.52 0.21,0.99 0.31,2.1 0.31,3.33 0,2.72 -0.48,4.75 -1.45,6.1 -0.97,1.35 -2.49,2.02 -4.56,2.02 -0.72,0 -1.44,-0.07 -2.14,-0.22 -0.7,-0.15 -1.33,-0.34 -1.88,-0.57 v -21.92 l 2.52,-0.44 v 7.5 z m 0,13.24 c 0.27,0.08 0.54,0.13 0.79,0.16 0.25,0.03 0.49,0.04 0.7,0.04 1.13,0 1.98,-0.45 2.54,-1.36 0.56,-0.91 0.84,-2.42 0.84,-4.53 0,-1.1 -0.07,-2.01 -0.21,-2.76 -0.14,-0.74 -0.34,-1.34 -0.6,-1.79 -0.26,-0.45 -0.58,-0.77 -0.95,-0.97 -0.37,-0.2 -0.8,-0.29 -1.29,-0.29 -0.65,0 -1.25,0.16 -1.82,0.47 z" />
					<path
   inkscape:connector-curvature="0"
   id="path84"
   d="m 911.93,382.14 c 1.06,0 1.87,-0.29 2.45,-0.88 0.58,-0.59 0.87,-1.38 0.87,-2.38 0,-0.53 -0.09,-1 -0.26,-1.41 -0.18,-0.41 -0.41,-0.78 -0.69,-1.11 -0.28,-0.33 -0.61,-0.64 -0.98,-0.91 -0.37,-0.27 -0.75,-0.55 -1.14,-0.82 -0.45,-0.31 -0.92,-0.65 -1.41,-1 -0.49,-0.35 -0.93,-0.76 -1.34,-1.23 -0.4,-0.47 -0.73,-1.02 -0.98,-1.64 -0.25,-0.63 -0.38,-1.36 -0.38,-2.2 0,-0.82 0.14,-1.56 0.43,-2.23 0.28,-0.66 0.67,-1.23 1.17,-1.7 0.5,-0.47 1.1,-0.83 1.79,-1.09 0.69,-0.25 1.44,-0.38 2.24,-0.38 0.78,0 1.51,0.1 2.17,0.29 0.66,0.2 1.22,0.43 1.67,0.7 l -0.82,2.08 c -0.41,-0.27 -0.86,-0.48 -1.34,-0.63 -0.48,-0.15 -0.98,-0.22 -1.51,-0.22 -0.96,0 -1.73,0.26 -2.3,0.78 -0.58,0.52 -0.87,1.28 -0.87,2.27 0,0.55 0.09,1.03 0.28,1.44 0.19,0.41 0.43,0.78 0.73,1.11 0.3,0.33 0.66,0.64 1.06,0.91 0.4,0.27 0.83,0.56 1.28,0.85 0.45,0.29 0.91,0.62 1.38,0.97 0.47,0.35 0.89,0.76 1.28,1.22 0.38,0.46 0.69,1 0.94,1.61 0.24,0.62 0.37,1.35 0.37,2.19 0,0.76 -0.12,1.49 -0.35,2.17 -0.23,0.68 -0.6,1.29 -1.1,1.8 -0.5,0.52 -1.13,0.93 -1.88,1.23 -0.75,0.3 -1.64,0.45 -2.66,0.45 -0.94,0 -1.76,-0.11 -2.46,-0.32 -0.7,-0.22 -1.33,-0.5 -1.88,-0.85 l 0.82,-2.11 c 0.51,0.31 1.03,0.56 1.57,0.75 0.53,0.2 1.15,0.29 1.85,0.29 z" />
					<path
   inkscape:connector-curvature="0"
   id="path86"
   d="m 923.29,377.01 c 0.02,0.74 0.09,1.42 0.21,2.04 0.12,0.62 0.31,1.15 0.57,1.61 0.26,0.46 0.62,0.82 1.06,1.07 0.44,0.25 1,0.38 1.69,0.38 0.57,0 1.09,-0.08 1.57,-0.25 0.48,-0.17 0.83,-0.31 1.04,-0.43 l 0.47,2.02 c -0.25,0.18 -0.68,0.37 -1.28,0.57 -0.6,0.21 -1.31,0.31 -2.13,0.31 -1.08,0 -1.98,-0.2 -2.71,-0.59 -0.73,-0.39 -1.33,-0.94 -1.79,-1.64 -0.46,-0.7 -0.79,-1.55 -0.98,-2.52 -0.2,-0.98 -0.29,-2.05 -0.29,-3.23 0,-2.84 0.47,-4.91 1.41,-6.22 0.94,-1.31 2.18,-1.97 3.73,-1.97 1.74,0 2.97,0.66 3.7,1.97 0.72,1.31 1.09,3.15 1.09,5.52 0,0.22 0,0.44 0,0.66 0,0.23 -0.01,0.45 -0.03,0.69 h -7.33 z m 2.55,-6.69 c -0.84,0 -1.45,0.42 -1.83,1.26 -0.38,0.84 -0.61,1.97 -0.69,3.37 h 4.67 c 0,-1.43 -0.15,-2.56 -0.44,-3.39 -0.3,-0.83 -0.87,-1.24 -1.71,-1.24 z" />
					<path
   inkscape:connector-curvature="0"
   id="path88"
   d="m 941.01,370.84 c -0.63,-0.27 -1.33,-0.41 -2.11,-0.41 -0.72,0 -1.4,0.13 -2.02,0.38 v 13.15 h -2.52 v -14.73 c 0.57,-0.27 1.22,-0.5 1.95,-0.69 0.73,-0.19 1.54,-0.28 2.42,-0.28 0.47,0 0.94,0.03 1.41,0.09 0.47,0.06 0.91,0.17 1.32,0.32 z" />
					<path
   inkscape:connector-curvature="0"
   id="path90"
   d="m 948.58,381 c 0.23,-0.78 0.48,-1.7 0.75,-2.76 0.27,-1.06 0.52,-2.15 0.78,-3.27 0.25,-1.12 0.49,-2.24 0.72,-3.36 0.22,-1.11 0.42,-2.13 0.57,-3.05 h 2.52 c -0.26,1.29 -0.55,2.65 -0.9,4.08 -0.34,1.43 -0.7,2.83 -1.06,4.21 -0.36,1.38 -0.73,2.68 -1.1,3.92 -0.37,1.23 -0.72,2.3 -1.03,3.2 h -2.6 c -0.31,-0.9 -0.66,-1.97 -1.03,-3.2 -0.37,-1.23 -0.74,-2.54 -1.1,-3.92 -0.36,-1.38 -0.71,-2.78 -1.06,-4.21 -0.34,-1.43 -0.64,-2.79 -0.89,-4.08 h 2.67 c 0.16,0.92 0.35,1.94 0.57,3.05 0.22,1.12 0.46,2.24 0.7,3.36 0.24,1.13 0.49,2.22 0.75,3.27 0.26,1.06 0.51,1.98 0.74,2.76 z" />
					<path
   inkscape:connector-curvature="0"
   id="path92"
   d="m 958.09,377.01 c 0.02,0.74 0.09,1.42 0.21,2.04 0.12,0.62 0.31,1.15 0.57,1.61 0.26,0.46 0.62,0.82 1.06,1.07 0.44,0.25 1,0.38 1.69,0.38 0.57,0 1.09,-0.08 1.57,-0.25 0.48,-0.17 0.83,-0.31 1.04,-0.43 l 0.47,2.02 c -0.25,0.18 -0.68,0.37 -1.28,0.57 -0.6,0.21 -1.31,0.31 -2.13,0.31 -1.08,0 -1.98,-0.2 -2.71,-0.59 -0.73,-0.39 -1.33,-0.94 -1.79,-1.64 -0.46,-0.7 -0.79,-1.55 -0.98,-2.52 -0.2,-0.98 -0.29,-2.05 -0.29,-3.23 0,-2.84 0.47,-4.91 1.41,-6.22 0.94,-1.31 2.18,-1.97 3.73,-1.97 1.74,0 2.97,0.66 3.7,1.97 0.72,1.31 1.09,3.15 1.09,5.52 0,0.22 0,0.44 0,0.66 0,0.23 -0.01,0.45 -0.03,0.69 h -7.33 z m 2.55,-6.69 c -0.84,0 -1.45,0.42 -1.83,1.26 -0.38,0.84 -0.61,1.97 -0.69,3.37 h 4.67 c 0,-1.43 -0.15,-2.56 -0.44,-3.39 -0.3,-0.83 -0.87,-1.24 -1.71,-1.24 z" />
					<path
   inkscape:connector-curvature="0"
   id="path94"
   d="m 975.81,370.84 c -0.63,-0.27 -1.33,-0.41 -2.11,-0.41 -0.72,0 -1.4,0.13 -2.02,0.38 v 13.15 h -2.52 v -14.73 c 0.57,-0.27 1.22,-0.5 1.95,-0.69 0.73,-0.19 1.54,-0.28 2.42,-0.28 0.47,0 0.94,0.03 1.41,0.09 0.47,0.06 0.91,0.17 1.32,0.32 z" />
				</g>
			</g><g
   id="g136"
   transform="matrix(0.78434333,0,0,0.78434333,-0.13886,-103.05487)">
				<path
   inkscape:connector-curvature="0"
   id="path100"
   d="m 541.72,734.2 c -1.89,0 -3.31,-0.54 -4.25,-1.61 -0.95,-1.07 -1.42,-2.77 -1.42,-5.09 v -14 h 2.63 v 13.77 c 0,1.54 0.22,2.69 0.67,3.46 0.45,0.77 1.26,1.15 2.43,1.15 1.21,0 2.03,-0.39 2.47,-1.18 0.44,-0.79 0.66,-1.93 0.66,-3.43 V 713.5 h 2.63 v 14 c 0,2.28 -0.49,3.97 -1.46,5.06 -0.98,1.09 -2.43,1.64 -4.36,1.64 z" />
				<path
   inkscape:connector-curvature="0"
   id="path102"
   d="m 554.23,731.98 c 0.74,0 1.3,-0.21 1.68,-0.63 0.38,-0.42 0.57,-0.97 0.57,-1.65 0,-0.43 -0.08,-0.79 -0.23,-1.1 -0.16,-0.3 -0.36,-0.57 -0.61,-0.8 -0.25,-0.23 -0.55,-0.44 -0.88,-0.63 -0.33,-0.18 -0.66,-0.38 -0.99,-0.6 -0.33,-0.19 -0.65,-0.42 -0.96,-0.69 -0.31,-0.26 -0.59,-0.56 -0.83,-0.91 -0.24,-0.34 -0.44,-0.73 -0.58,-1.17 -0.15,-0.44 -0.22,-0.95 -0.22,-1.53 0,-1.27 0.39,-2.29 1.18,-3.07 0.79,-0.78 1.86,-1.17 3.2,-1.17 0.56,0 1.1,0.07 1.61,0.22 0.51,0.15 0.93,0.31 1.26,0.48 l -0.56,2.02 c -0.35,-0.19 -0.7,-0.34 -1.05,-0.44 -0.35,-0.1 -0.73,-0.15 -1.14,-0.15 -0.62,0 -1.12,0.18 -1.49,0.54 -0.37,0.36 -0.56,0.88 -0.56,1.56 0,0.39 0.07,0.73 0.2,1.01 0.14,0.28 0.32,0.54 0.54,0.76 0.22,0.22 0.48,0.43 0.76,0.63 0.28,0.2 0.58,0.38 0.89,0.56 0.37,0.21 0.74,0.45 1.1,0.7 0.36,0.25 0.68,0.55 0.96,0.89 0.28,0.34 0.51,0.74 0.69,1.2 0.18,0.46 0.26,1.01 0.26,1.65 0,1.34 -0.39,2.43 -1.18,3.24 -0.79,0.81 -1.94,1.23 -3.46,1.23 -0.78,0 -1.48,-0.11 -2.1,-0.32 -0.62,-0.21 -1.09,-0.41 -1.4,-0.58 l 0.53,-2.08 c 0.29,0.16 0.69,0.33 1.18,0.53 0.47,0.2 1.02,0.3 1.63,0.3 z" />
				<path
   inkscape:connector-curvature="0"
   id="path104"
   d="m 563.78,726.83 c 0.02,0.74 0.09,1.42 0.2,2.03 0.12,0.61 0.31,1.15 0.57,1.61 0.26,0.46 0.61,0.81 1.05,1.07 0.44,0.25 1,0.38 1.68,0.38 0.56,0 1.09,-0.08 1.56,-0.25 0.48,-0.17 0.82,-0.31 1.04,-0.42 l 0.47,2.02 c -0.25,0.18 -0.68,0.37 -1.27,0.57 -0.59,0.2 -1.3,0.31 -2.12,0.31 -1.07,0 -1.97,-0.2 -2.7,-0.58 -0.73,-0.39 -1.33,-0.94 -1.78,-1.64 -0.46,-0.7 -0.78,-1.54 -0.98,-2.51 -0.19,-0.97 -0.29,-2.05 -0.29,-3.21 0,-2.82 0.47,-4.89 1.4,-6.2 0.94,-1.31 2.17,-1.96 3.71,-1.96 1.73,0 2.96,0.65 3.68,1.96 0.72,1.31 1.08,3.14 1.08,5.49 0,0.21 0,0.43 0,0.66 0,0.22 -0.01,0.45 -0.03,0.69 h -7.27 z m 2.55,-6.66 c -0.84,0 -1.45,0.42 -1.83,1.26 -0.38,0.84 -0.61,1.96 -0.69,3.36 h 4.65 c 0,-1.42 -0.15,-2.55 -0.44,-3.38 -0.29,-0.83 -0.86,-1.24 -1.69,-1.24 z" />
				<path
   inkscape:connector-curvature="0"
   id="path106"
   d="m 581.44,720.7 c -0.62,-0.27 -1.33,-0.41 -2.1,-0.41 -0.72,0 -1.39,0.13 -2.02,0.38 v 13.09 h -2.51 v -14.67 c 0.56,-0.27 1.21,-0.5 1.94,-0.69 0.73,-0.18 1.53,-0.28 2.41,-0.28 0.47,0 0.94,0.03 1.4,0.09 0.47,0.06 0.91,0.17 1.32,0.32 z" />
				<path
   inkscape:connector-curvature="0"
   id="path108"
   d="m 587.78,711.84 c 0.02,0.16 0.03,0.29 0.03,0.41 0,0.12 0,0.25 0,0.41 0,1.11 -0.18,2.17 -0.53,3.19 -0.35,1.01 -0.83,2 -1.43,2.95 l -1.78,-0.53 c 0.49,-0.88 0.81,-1.76 0.96,-2.66 0.16,-0.9 0.23,-1.74 0.23,-2.54 0,-0.21 0,-0.42 -0.01,-0.63 -0.01,-0.2 -0.02,-0.4 -0.04,-0.6 z" />
				<path
   inkscape:connector-curvature="0"
   id="path110"
   d="m 593.27,731.98 c 0.74,0 1.3,-0.21 1.68,-0.63 0.38,-0.42 0.57,-0.97 0.57,-1.65 0,-0.43 -0.08,-0.79 -0.23,-1.1 -0.16,-0.3 -0.36,-0.57 -0.61,-0.8 -0.25,-0.23 -0.55,-0.44 -0.88,-0.63 -0.33,-0.18 -0.66,-0.38 -0.99,-0.6 -0.33,-0.19 -0.65,-0.42 -0.96,-0.69 -0.31,-0.26 -0.59,-0.56 -0.83,-0.91 -0.24,-0.34 -0.44,-0.73 -0.58,-1.17 -0.15,-0.44 -0.22,-0.95 -0.22,-1.53 0,-1.27 0.39,-2.29 1.18,-3.07 0.79,-0.78 1.86,-1.17 3.2,-1.17 0.56,0 1.1,0.07 1.61,0.22 0.51,0.15 0.93,0.31 1.26,0.48 l -0.56,2.02 c -0.35,-0.19 -0.7,-0.34 -1.05,-0.44 -0.35,-0.1 -0.73,-0.15 -1.14,-0.15 -0.62,0 -1.12,0.18 -1.49,0.54 -0.37,0.36 -0.56,0.88 -0.56,1.56 0,0.39 0.07,0.73 0.2,1.01 0.14,0.28 0.32,0.54 0.54,0.76 0.22,0.22 0.48,0.43 0.76,0.63 0.28,0.2 0.58,0.38 0.89,0.56 0.37,0.21 0.74,0.45 1.1,0.7 0.36,0.25 0.68,0.55 0.96,0.89 0.28,0.34 0.51,0.74 0.69,1.2 0.18,0.46 0.26,1.01 0.26,1.65 0,1.34 -0.39,2.43 -1.18,3.24 -0.79,0.81 -1.94,1.23 -3.46,1.23 -0.78,0 -1.48,-0.11 -2.1,-0.32 -0.62,-0.21 -1.09,-0.41 -1.4,-0.58 l 0.53,-2.08 c 0.29,0.16 0.69,0.33 1.18,0.53 0.48,0.2 1.03,0.3 1.63,0.3 z" />
				<path
   inkscape:connector-curvature="0"
   id="path112"
   d="m 606.98,733.76 v -20.25 h 9.09 v 2.25 h -6.46 v 6.28 h 5.85 v 2.19 h -5.85 v 7.28 h 6.93 v 2.25 z" />
				<path
   inkscape:connector-curvature="0"
   id="path114"
   d="m 622.47,718.42 h 3.86 v 2.16 h -3.86 v 8.45 c 0,1.05 0.19,1.79 0.57,2.21 0.38,0.42 0.89,0.63 1.53,0.63 0.33,0 0.65,-0.05 0.95,-0.15 0.3,-0.1 0.56,-0.21 0.77,-0.35 l 0.5,2.02 c -0.8,0.47 -1.65,0.7 -2.54,0.7 -1.44,0 -2.52,-0.4 -3.23,-1.21 -0.71,-0.81 -1.07,-2.15 -1.07,-4.02 V 714.3 l 2.51,-0.44 v 4.56 z" />
				<path
   inkscape:connector-curvature="0"
   id="path116"
   d="m 629.51,733.76 v -22.24 l 2.51,-0.44 v 7.42 c 0.37,-0.12 0.77,-0.21 1.21,-0.29 0.44,-0.08 0.88,-0.12 1.33,-0.12 0.64,0 1.25,0.1 1.81,0.31 0.56,0.2 1.06,0.55 1.48,1.04 0.42,0.49 0.75,1.14 0.99,1.97 0.24,0.83 0.37,1.86 0.37,3.08 v 9.26 h -2.51 v -9.06 c 0,-1.52 -0.19,-2.63 -0.58,-3.33 -0.39,-0.7 -1.12,-1.05 -2.19,-1.05 -0.57,0 -1.2,0.1 -1.9,0.29 v 13.15 h -2.52 z" />
				<path
   inkscape:connector-curvature="0"
   id="path118"
   d="m 645.33,726.83 c 0.02,0.74 0.09,1.42 0.2,2.03 0.12,0.61 0.31,1.15 0.57,1.61 0.26,0.46 0.61,0.81 1.05,1.07 0.44,0.25 1,0.38 1.68,0.38 0.56,0 1.09,-0.08 1.56,-0.25 0.48,-0.17 0.82,-0.31 1.04,-0.42 l 0.47,2.02 c -0.25,0.18 -0.68,0.37 -1.27,0.57 -0.59,0.2 -1.3,0.31 -2.12,0.31 -1.07,0 -1.97,-0.2 -2.7,-0.58 -0.73,-0.39 -1.33,-0.94 -1.78,-1.64 -0.46,-0.7 -0.78,-1.54 -0.98,-2.51 -0.19,-0.97 -0.29,-2.05 -0.29,-3.21 0,-2.82 0.47,-4.89 1.4,-6.2 0.94,-1.31 2.17,-1.96 3.71,-1.96 1.73,0 2.96,0.65 3.68,1.96 0.72,1.31 1.08,3.14 1.08,5.49 0,0.21 0,0.43 0,0.66 0,0.22 -0.01,0.45 -0.03,0.69 h -7.27 z m 2.54,-6.66 c -0.84,0 -1.45,0.42 -1.83,1.26 -0.38,0.84 -0.61,1.96 -0.69,3.36 H 650 c 0,-1.42 -0.15,-2.55 -0.44,-3.38 -0.29,-0.83 -0.85,-1.24 -1.69,-1.24 z" />
				<path
   inkscape:connector-curvature="0"
   id="path120"
   d="m 662.98,720.7 c -0.62,-0.27 -1.33,-0.41 -2.1,-0.41 -0.72,0 -1.39,0.13 -2.02,0.38 v 13.09 h -2.51 v -14.67 c 0.56,-0.27 1.21,-0.5 1.94,-0.69 0.73,-0.18 1.53,-0.28 2.41,-0.28 0.47,0 0.94,0.03 1.4,0.09 0.47,0.06 0.91,0.17 1.32,0.32 z" />
				<path
   inkscape:connector-curvature="0"
   id="path122"
   d="m 667.36,726.83 c 0.02,0.74 0.09,1.42 0.2,2.03 0.12,0.61 0.31,1.15 0.57,1.61 0.26,0.46 0.61,0.81 1.05,1.07 0.44,0.25 1,0.38 1.68,0.38 0.56,0 1.09,-0.08 1.56,-0.25 0.48,-0.17 0.82,-0.31 1.04,-0.42 l 0.47,2.02 c -0.25,0.18 -0.68,0.37 -1.27,0.57 -0.59,0.2 -1.3,0.31 -2.12,0.31 -1.07,0 -1.97,-0.2 -2.7,-0.58 -0.73,-0.39 -1.33,-0.94 -1.78,-1.64 -0.46,-0.7 -0.78,-1.54 -0.98,-2.51 -0.19,-0.97 -0.29,-2.05 -0.29,-3.21 0,-2.82 0.47,-4.89 1.4,-6.2 0.94,-1.31 2.17,-1.96 3.71,-1.96 1.73,0 2.96,0.65 3.68,1.96 0.72,1.31 1.08,3.14 1.08,5.49 0,0.21 0,0.43 0,0.66 0,0.22 -0.01,0.45 -0.03,0.69 h -7.27 z m 2.54,-6.66 c -0.84,0 -1.45,0.42 -1.83,1.26 -0.38,0.84 -0.61,1.96 -0.69,3.36 h 4.65 c 0,-1.42 -0.15,-2.55 -0.44,-3.38 -0.28,-0.83 -0.85,-1.24 -1.69,-1.24 z" />
				<path
   inkscape:connector-curvature="0"
   id="path124"
   d="m 687.88,733.32 c -0.25,0.1 -0.56,0.19 -0.92,0.28 -0.36,0.09 -0.74,0.17 -1.14,0.23 -0.4,0.07 -0.8,0.13 -1.2,0.18 -0.4,0.05 -0.76,0.07 -1.1,0.07 -0.8,0 -1.53,-0.09 -2.19,-0.28 -0.66,-0.18 -1.23,-0.51 -1.7,-0.98 -0.47,-0.47 -0.83,-1.11 -1.08,-1.91 -0.25,-0.81 -0.38,-1.83 -0.38,-3.05 v -9.44 h 2.51 v 9.35 c 0,1.5 0.23,2.56 0.69,3.17 0.46,0.61 1.15,0.92 2.09,0.92 0.31,0 0.62,-0.01 0.94,-0.04 0.31,-0.03 0.63,-0.09 0.96,-0.19 v -13.21 h 2.51 v 14.9 z" />
				<path
   inkscape:connector-curvature="0"
   id="path126"
   d="m 692.41,718.85 c 0.68,-0.21 1.42,-0.39 2.22,-0.54 0.8,-0.15 1.53,-0.22 2.19,-0.22 0.68,0 1.3,0.09 1.86,0.26 0.56,0.18 1.05,0.47 1.48,0.88 0.51,-0.33 1.05,-0.6 1.64,-0.82 0.58,-0.21 1.23,-0.32 1.93,-0.32 0.7,0 1.34,0.1 1.91,0.31 0.57,0.2 1.07,0.55 1.48,1.04 0.41,0.49 0.73,1.14 0.96,1.97 0.23,0.83 0.35,1.86 0.35,3.08 v 9.26 h -2.51 v -9.06 c 0,-1.52 -0.18,-2.63 -0.53,-3.33 -0.35,-0.7 -1.01,-1.05 -1.99,-1.05 -0.37,0 -0.75,0.07 -1.13,0.2 -0.38,0.14 -0.74,0.32 -1.07,0.56 0.16,0.45 0.27,0.95 0.35,1.52 0.08,0.57 0.12,1.2 0.12,1.9 v 9.26 h -2.51 v -9.06 c 0,-1.52 -0.18,-2.63 -0.53,-3.33 -0.35,-0.7 -1.01,-1.05 -1.99,-1.05 -0.51,0 -1.08,0.1 -1.72,0.29 v 13.15 h -2.51 z" />
				<path
   inkscape:connector-curvature="0"
   id="path128"
   d="m 718.51,718.85 c 0.72,-0.21 1.5,-0.39 2.34,-0.54 0.84,-0.15 1.61,-0.22 2.31,-0.22 0.76,0 1.45,0.1 2.08,0.31 0.62,0.2 1.15,0.55 1.59,1.04 0.44,0.49 0.78,1.14 1.02,1.97 0.24,0.83 0.37,1.86 0.37,3.08 v 9.26 h -2.51 v -9.06 c 0,-1.52 -0.19,-2.63 -0.58,-3.33 -0.39,-0.7 -1.12,-1.05 -2.19,-1.05 -0.57,0 -1.2,0.1 -1.9,0.29 v 13.15 h -2.51 v -14.9 z" />
				<path
   inkscape:connector-curvature="0"
   id="path130"
   d="m 742.44,726.1 c 0,1.21 -0.11,2.3 -0.32,3.29 -0.21,0.98 -0.54,1.83 -0.98,2.53 -0.44,0.7 -0.99,1.25 -1.67,1.64 -0.67,0.39 -1.47,0.58 -2.38,0.58 -0.92,0 -1.71,-0.2 -2.4,-0.58 -0.68,-0.39 -1.24,-0.94 -1.68,-1.64 -0.44,-0.7 -0.76,-1.54 -0.98,-2.53 -0.21,-0.98 -0.32,-2.08 -0.32,-3.29 0,-1.19 0.11,-2.28 0.32,-3.27 0.21,-0.99 0.54,-1.85 0.98,-2.56 0.44,-0.71 1,-1.26 1.68,-1.65 0.68,-0.39 1.48,-0.58 2.4,-0.58 0.92,0 1.71,0.19 2.38,0.58 0.67,0.39 1.23,0.94 1.67,1.65 0.44,0.71 0.76,1.56 0.98,2.56 0.22,0.99 0.32,2.08 0.32,3.27 z m -2.63,0 c 0,-0.86 -0.05,-1.64 -0.15,-2.35 -0.1,-0.71 -0.25,-1.32 -0.47,-1.84 -0.21,-0.52 -0.5,-0.92 -0.85,-1.2 -0.35,-0.28 -0.77,-0.42 -1.26,-0.42 -0.51,0 -0.93,0.14 -1.27,0.42 -0.34,0.28 -0.62,0.68 -0.85,1.2 -0.22,0.52 -0.39,1.13 -0.48,1.84 -0.1,0.71 -0.15,1.5 -0.15,2.35 0,0.86 0.05,1.64 0.15,2.35 0.1,0.71 0.26,1.32 0.48,1.83 0.22,0.51 0.51,0.9 0.85,1.18 0.34,0.28 0.76,0.42 1.27,0.42 0.49,0 0.91,-0.14 1.26,-0.42 0.35,-0.28 0.63,-0.68 0.85,-1.18 0.21,-0.51 0.37,-1.12 0.47,-1.83 0.11,-0.71 0.15,-1.49 0.15,-2.35 z" />
				<path
   inkscape:connector-curvature="0"
   id="path132"
   d="m 752.73,711.52 2.51,-0.44 v 22.27 c -0.55,0.23 -1.17,0.42 -1.87,0.57 -0.7,0.15 -1.41,0.22 -2.13,0.22 -2.1,0 -3.63,-0.67 -4.57,-2.02 -0.95,-1.34 -1.42,-3.37 -1.42,-6.08 0,-1.23 0.1,-2.33 0.31,-3.32 0.2,-0.98 0.53,-1.82 0.96,-2.51 0.44,-0.69 1,-1.23 1.68,-1.61 0.68,-0.38 1.49,-0.57 2.43,-0.57 0.45,0 0.83,0.04 1.15,0.13 0.32,0.09 0.64,0.21 0.95,0.37 z m 0,9.21 c -0.57,-0.31 -1.17,-0.47 -1.81,-0.47 -0.49,0 -0.92,0.1 -1.29,0.29 -0.37,0.2 -0.69,0.52 -0.95,0.96 -0.26,0.45 -0.46,1.04 -0.6,1.78 -0.14,0.74 -0.2,1.66 -0.2,2.75 0,2.1 0.28,3.61 0.83,4.52 0.56,0.91 1.4,1.36 2.53,1.36 0.21,0 0.45,-0.01 0.7,-0.04 0.25,-0.03 0.52,-0.08 0.79,-0.16 z" />
				<path
   inkscape:connector-curvature="0"
   id="path134"
   d="m 761.5,726.83 c 0.02,0.74 0.09,1.42 0.2,2.03 0.12,0.61 0.31,1.15 0.57,1.61 0.26,0.46 0.61,0.81 1.05,1.07 0.44,0.25 1,0.38 1.68,0.38 0.56,0 1.09,-0.08 1.56,-0.25 0.48,-0.17 0.82,-0.31 1.04,-0.42 l 0.47,2.02 c -0.25,0.18 -0.68,0.37 -1.27,0.57 -0.59,0.2 -1.3,0.31 -2.12,0.31 -1.07,0 -1.97,-0.2 -2.7,-0.58 -0.73,-0.39 -1.33,-0.94 -1.78,-1.64 -0.46,-0.7 -0.78,-1.54 -0.98,-2.51 -0.19,-0.97 -0.29,-2.05 -0.29,-3.21 0,-2.82 0.47,-4.89 1.4,-6.2 0.94,-1.31 2.17,-1.96 3.71,-1.96 1.73,0 2.96,0.65 3.68,1.96 0.72,1.31 1.08,3.14 1.08,5.49 0,0.21 0,0.43 0,0.66 0,0.22 -0.01,0.45 -0.03,0.69 h -7.27 z m 2.54,-6.66 c -0.84,0 -1.45,0.42 -1.83,1.26 -0.38,0.84 -0.61,1.96 -0.69,3.36 h 4.65 c 0,-1.42 -0.15,-2.55 -0.44,-3.38 -0.28,-0.83 -0.85,-1.24 -1.69,-1.24 z" />
			</g><g
   id="g230"
   transform="matrix(0.78434333,0,0,0.78434333,-0.13886,-103.05487)">
				<g
   id="g184">
					<g
   id="g164">
						<defs
   id="defs139"><rect
     height="120.58"
     width="150.71001"
     y="570.54999"
     x="1053.25"
     id="SVGID_5_" /></defs>
						<clipPath
   id="SVGID_6_">
							<use
   height="100%"
   width="100%"
   y="0"
   x="0"
   id="use141"
   style="overflow:visible"
   xlink:href="#SVGID_5_" />
						</clipPath>
						<polygon
   id="polygon144"
   clip-path="url(#SVGID_6_)"
   points="1128.61,691.13 1203.96,647.65 1128.61,604.15 1053.25,647.65 "
   style="clip-rule:evenodd;fill:#263e5e;fill-rule:evenodd" />
						<polygon
   id="polygon146"
   clip-path="url(#SVGID_6_)"
   points="1128.61,657.53 1203.96,614.02 1128.61,570.55 1053.25,614.02 "
   style="clip-rule:evenodd;fill:#f6f7f8;fill-rule:evenodd" />
						<polygon
   id="polygon148"
   clip-path="url(#SVGID_6_)"
   points="1128.61,683.63 1203.96,640.12 1203.96,614.02 1128.61,657.53 "
   style="clip-rule:evenodd;fill:#728195;fill-rule:evenodd" />
						<polygon
   id="polygon150"
   clip-path="url(#SVGID_6_)"
   points="1128.61,683.63 1053.25,640.12 1053.25,614.02 1128.61,657.53 "
   style="clip-rule:evenodd;fill:#e0e2e7;fill-rule:evenodd" />
						<path
   inkscape:connector-curvature="0"
   id="path152"
   clip-path="url(#SVGID_6_)"
   d="m 1136.78,669.53 38.61,-22.25 c 1.7,-0.97 3.07,-3.6 3.07,-5.86 0,-2.23 -1.37,-3.28 -3.07,-2.31 l -38.61,22.28 c -1.67,0.97 -3.07,3.6 -3.07,5.87 0.01,2.21 1.41,3.24 3.07,2.27 z"
   style="clip-rule:evenodd;fill:#263e5e;fill-rule:evenodd" />
						<path
   inkscape:connector-curvature="0"
   id="path154"
   clip-path="url(#SVGID_6_)"
   d="m 1123.25,675.82 v 0 c 0.48,0.27 0.89,0 0.89,-0.67 v -12.83 c 0,-0.19 -0.03,-0.35 -0.05,-0.51 -0.05,-0.16 -0.11,-0.32 -0.19,-0.46 -0.08,-0.13 -0.16,-0.3 -0.27,-0.4 -0.11,-0.13 -0.24,-0.24 -0.38,-0.35 -0.48,-0.3 -0.89,0 -0.89,0.67 v 12.83 c 0,0.19 0.03,0.35 0.05,0.51 0.05,0.16 0.11,0.32 0.19,0.46 0.08,0.16 0.16,0.3 0.27,0.4 0.11,0.14 0.25,0.25 0.38,0.35 z"
   style="clip-rule:evenodd;fill:#96a0b0;fill-rule:evenodd" />
						<path
   inkscape:connector-curvature="0"
   id="path156"
   clip-path="url(#SVGID_6_)"
   d="m 1119.56,674.16 v 0 c 0.51,0.27 0.92,0 0.92,-0.7 v -12.83 c 0,-0.16 -0.03,-0.32 -0.08,-0.48 -0.03,-0.16 -0.11,-0.32 -0.16,-0.46 -0.08,-0.16 -0.19,-0.3 -0.3,-0.43 -0.11,-0.11 -0.24,-0.24 -0.38,-0.32 -0.48,-0.3 -0.89,0 -0.89,0.67 v 12.86 c 0,0.19 0.03,0.35 0.08,0.48 0.05,0.16 0.11,0.32 0.19,0.46 0.08,0.16 0.16,0.3 0.27,0.4 0.11,0.13 0.25,0.24 0.35,0.35 z"
   style="clip-rule:evenodd;fill:#96a0b0;fill-rule:evenodd" />
						<path
   inkscape:connector-curvature="0"
   id="path158"
   clip-path="url(#SVGID_6_)"
   d="m 1115.8,671.98 v 0 c 0.48,0.27 0.89,0 0.89,-0.67 v -12.86 c 0,-0.16 -0.03,-0.32 -0.05,-0.48 -0.05,-0.16 -0.11,-0.32 -0.19,-0.46 -0.08,-0.16 -0.16,-0.3 -0.27,-0.4 -0.11,-0.13 -0.24,-0.24 -0.38,-0.35 -0.48,-0.3 -0.89,0 -0.89,0.67 v 12.83 c 0,0.16 0.03,0.35 0.05,0.51 0.05,0.16 0.11,0.3 0.19,0.46 0.08,0.13 0.16,0.27 0.27,0.4 0.11,0.13 0.24,0.24 0.38,0.35 z"
   style="clip-rule:evenodd;fill:#96a0b0;fill-rule:evenodd" />
						<path
   inkscape:connector-curvature="0"
   id="path160"
   clip-path="url(#SVGID_6_)"
   d="m 1195.43,630.33 c 0.24,0.13 0.43,0.38 0.51,0.73 0.08,0.32 0.08,0.73 0,1.16 -0.08,0.43 -0.27,0.89 -0.51,1.32 -0.24,0.43 -0.54,0.81 -0.89,1.1 -0.32,0.3 -0.67,0.48 -1.02,0.59 -0.32,0.08 -0.62,0.05 -0.86,-0.08 -0.24,-0.16 -0.43,-0.4 -0.51,-0.73 -0.11,-0.35 -0.11,-0.75 0,-1.18 0.08,-0.43 0.27,-0.89 0.51,-1.32 0.24,-0.4 0.54,-0.78 0.86,-1.08 0.35,-0.3 0.7,-0.51 1.02,-0.59 0.36,-0.11 0.65,-0.08 0.89,0.08 z"
   style="clip-rule:evenodd;fill:#fed7b4;fill-rule:evenodd" />
						<path
   inkscape:connector-curvature="0"
   id="path162"
   clip-path="url(#SVGID_6_)"
   d="m 1190.32,633.13 c 0.24,0.13 0.4,0.38 0.51,0.7 0.08,0.35 0.08,0.75 0,1.18 -0.11,0.43 -0.27,0.89 -0.51,1.32 -0.24,0.43 -0.57,0.81 -0.89,1.1 -0.32,0.3 -0.67,0.48 -1.02,0.56 -0.32,0.11 -0.62,0.08 -0.89,-0.08 -0.24,-0.13 -0.4,-0.38 -0.48,-0.7 -0.11,-0.35 -0.11,-0.75 0,-1.18 0.08,-0.43 0.24,-0.89 0.48,-1.32 0.24,-0.43 0.56,-0.81 0.89,-1.1 0.35,-0.3 0.7,-0.48 1.02,-0.56 0.33,-0.11 0.65,-0.08 0.89,0.08 z"
   style="clip-rule:evenodd;fill:#7dd1e5;fill-rule:evenodd" />
					</g>
					<g
   id="g182">
						<g
   id="g172">
							<polygon
   id="polygon166"
   points="1113.23,574.48 1151.16,595.86 1151.16,622.76 "
   style="clip-rule:evenodd;fill:#8f8f8f;fill-rule:evenodd" />
							<polygon
   id="polygon168"
   points="1113.23,570.55 1151.16,554.19 1151.16,513.34 "
   style="fill:#8f8f8f" />
							<polygon
   id="polygon170"
   points="1151.16,589.89 1151.16,554.19 1113.23,570.55 "
   style="fill:#333333" />
						</g>
						<g
   id="g180">
							<polygon
   id="polygon174"
   points="1189.3,574.48 1151.37,595.86 1151.37,622.76 "
   style="clip-rule:evenodd;fill:#333333;fill-rule:evenodd" />
							<polygon
   id="polygon176"
   points="1189.3,570.55 1151.37,554.19 1151.37,513.34 "
   style="fill:#333333" />
							<polygon
   id="polygon178"
   points="1151.37,589.89 1151.37,554.19 1189.3,570.55 "
   style="fill:#151515" />
						</g>
					</g>
				</g>
				<g
   id="g228">
					<path
   inkscape:connector-curvature="0"
   id="path186"
   d="m 1003.2,715.73 c 0.25,1.16 0.52,2.39 0.81,3.69 0.29,1.3 0.6,2.59 0.91,3.87 0.32,1.28 0.64,2.52 0.97,3.72 0.33,1.2 0.64,2.3 0.93,3.28 0.23,-1.08 0.45,-2.29 0.66,-3.62 0.21,-1.33 0.42,-2.72 0.62,-4.17 0.2,-1.45 0.39,-2.95 0.56,-4.51 0.17,-1.55 0.32,-3.1 0.43,-4.65 h 2.56 c -0.44,3.89 -0.94,7.48 -1.49,10.75 -0.55,3.27 -1.19,6.4 -1.93,9.39 h -2.65 c -0.29,-0.95 -0.6,-2.01 -0.94,-3.17 -0.34,-1.16 -0.67,-2.37 -1,-3.62 -0.33,-1.25 -0.65,-2.51 -0.96,-3.79 -0.31,-1.28 -0.59,-2.52 -0.84,-3.72 -0.25,1.2 -0.53,2.44 -0.84,3.72 -0.31,1.28 -0.63,2.54 -0.96,3.79 -0.33,1.25 -0.66,2.46 -1,3.62 -0.34,1.16 -0.65,2.22 -0.94,3.17 h -2.64 c -0.74,-2.98 -1.39,-6.11 -1.94,-9.39 -0.56,-3.27 -1.06,-6.86 -1.51,-10.75 h 2.65 c 0.12,1.55 0.26,3.1 0.44,4.64 0.18,1.54 0.37,3.04 0.57,4.51 0.2,1.46 0.41,2.86 0.63,4.19 0.21,1.33 0.44,2.53 0.67,3.62 0.29,-0.99 0.6,-2.08 0.93,-3.28 0.33,-1.2 0.65,-2.44 0.97,-3.72 0.32,-1.28 0.63,-2.57 0.92,-3.87 0.29,-1.3 0.56,-2.53 0.81,-3.69 h 2.6 z" />
					<path
   inkscape:connector-curvature="0"
   id="path188"
   d="m 1016.38,726.6 c 0.02,0.74 0.09,1.41 0.2,2.02 0.12,0.61 0.31,1.14 0.57,1.6 0.26,0.46 0.61,0.81 1.05,1.06 0.44,0.25 0.99,0.38 1.67,0.38 0.56,0 1.08,-0.08 1.56,-0.25 0.47,-0.16 0.82,-0.31 1.03,-0.42 l 0.46,2.01 c -0.25,0.17 -0.67,0.36 -1.26,0.57 -0.59,0.2 -1.29,0.31 -2.11,0.31 -1.07,0 -1.96,-0.19 -2.69,-0.58 -0.73,-0.39 -1.32,-0.93 -1.77,-1.63 -0.46,-0.7 -0.78,-1.53 -0.97,-2.5 -0.19,-0.97 -0.29,-2.03 -0.29,-3.2 0,-2.81 0.47,-4.86 1.4,-6.16 0.93,-1.3 2.16,-1.95 3.69,-1.95 1.72,0 2.95,0.65 3.66,1.95 0.72,1.3 1.08,3.12 1.08,5.46 0,0.21 0,0.43 0,0.65 0,0.22 -0.01,0.45 -0.03,0.68 z m 2.53,-6.63 c -0.83,0 -1.44,0.42 -1.82,1.25 -0.38,0.83 -0.61,1.95 -0.68,3.34 h 4.62 c 0,-1.41 -0.15,-2.53 -0.44,-3.36 -0.29,-0.82 -0.85,-1.23 -1.68,-1.23 z" />
					<path
   inkscape:connector-curvature="0"
   id="path190"
   d="m 1029.81,718.34 c 0.31,-0.15 0.63,-0.28 0.94,-0.36 0.32,-0.09 0.7,-0.13 1.15,-0.13 0.95,0 1.76,0.19 2.44,0.57 0.68,0.38 1.23,0.91 1.66,1.6 0.43,0.69 0.74,1.52 0.94,2.5 0.2,0.98 0.31,2.08 0.31,3.3 0,2.69 -0.48,4.71 -1.44,6.05 -0.96,1.34 -2.47,2.01 -4.52,2.01 -0.72,0 -1.42,-0.07 -2.12,-0.22 -0.7,-0.15 -1.32,-0.33 -1.86,-0.57 v -21.71 l 2.5,-0.44 z m 0,13.11 c 0.27,0.08 0.53,0.13 0.78,0.16 0.25,0.03 0.48,0.04 0.7,0.04 1.12,0 1.96,-0.45 2.51,-1.35 0.55,-0.9 0.83,-2.4 0.83,-4.49 0,-1.08 -0.07,-2 -0.2,-2.73 -0.14,-0.74 -0.33,-1.33 -0.6,-1.77 -0.26,-0.45 -0.58,-0.77 -0.94,-0.96 -0.37,-0.19 -0.79,-0.29 -1.28,-0.29 -0.64,0 -1.24,0.16 -1.8,0.47 z" />
					<path
   inkscape:connector-curvature="0"
   id="path192"
   d="m 1043.03,731.71 c 0.74,0 1.29,-0.21 1.67,-0.62 0.38,-0.42 0.57,-0.96 0.57,-1.64 0,-0.43 -0.08,-0.79 -0.23,-1.09 -0.16,-0.3 -0.36,-0.57 -0.61,-0.8 -0.25,-0.23 -0.54,-0.44 -0.87,-0.62 -0.33,-0.18 -0.66,-0.38 -0.99,-0.6 -0.33,-0.19 -0.65,-0.42 -0.96,-0.68 -0.31,-0.26 -0.59,-0.56 -0.83,-0.9 -0.24,-0.34 -0.44,-0.73 -0.58,-1.16 -0.15,-0.44 -0.22,-0.94 -0.22,-1.53 0,-1.26 0.39,-2.28 1.18,-3.05 0.78,-0.77 1.85,-1.16 3.18,-1.16 0.56,0 1.09,0.07 1.6,0.22 0.5,0.15 0.92,0.31 1.25,0.48 l -0.55,2.01 c -0.35,-0.19 -0.7,-0.34 -1.05,-0.44 -0.35,-0.1 -0.73,-0.15 -1.13,-0.15 -0.62,0 -1.11,0.18 -1.48,0.54 -0.37,0.36 -0.55,0.88 -0.55,1.56 0,0.39 0.07,0.72 0.2,1 0.14,0.28 0.31,0.53 0.54,0.76 0.22,0.22 0.47,0.43 0.76,0.62 0.28,0.19 0.58,0.38 0.89,0.55 0.37,0.21 0.73,0.45 1.09,0.7 0.36,0.25 0.68,0.55 0.96,0.89 0.28,0.34 0.51,0.74 0.68,1.19 0.17,0.46 0.26,1 0.26,1.64 0,1.34 -0.39,2.41 -1.18,3.23 -0.79,0.81 -1.93,1.22 -3.44,1.22 -0.78,0 -1.47,-0.11 -2.09,-0.32 -0.62,-0.21 -1.09,-0.41 -1.4,-0.58 l 0.52,-2.06 c 0.29,0.16 0.68,0.33 1.18,0.52 0.49,0.18 1.03,0.27 1.63,0.27 z" />
					<path
   inkscape:connector-curvature="0"
   id="path194"
   d="m 1052.07,715.52 c -0.45,0 -0.83,-0.15 -1.15,-0.45 -0.32,-0.3 -0.48,-0.7 -0.48,-1.21 0,-0.5 0.16,-0.91 0.48,-1.21 0.32,-0.3 0.7,-0.45 1.15,-0.45 0.45,0 0.83,0.15 1.15,0.45 0.32,0.3 0.48,0.7 0.48,1.21 0,0.5 -0.16,0.91 -0.48,1.21 -0.32,0.3 -0.7,0.45 -1.15,0.45 z m 1.25,17.97 h -2.5 v -15.26 h 2.5 z" />
					<path
   inkscape:connector-curvature="0"
   id="path196"
   d="m 1060.18,718.23 h 3.84 v 2.15 h -3.84 v 8.4 c 0,1.05 0.19,1.78 0.57,2.19 0.38,0.42 0.89,0.62 1.53,0.62 0.33,0 0.64,-0.05 0.94,-0.15 0.3,-0.1 0.56,-0.21 0.77,-0.35 l 0.49,2.01 c -0.8,0.47 -1.64,0.7 -2.53,0.7 -1.43,0 -2.5,-0.4 -3.21,-1.21 -0.71,-0.8 -1.06,-2.14 -1.06,-4 v -14.48 l 2.5,-0.44 z" />
					<path
   inkscape:connector-curvature="0"
   id="path198"
   d="m 1068.76,726.6 c 0.02,0.74 0.09,1.41 0.2,2.02 0.11,0.61 0.31,1.14 0.57,1.6 0.26,0.46 0.61,0.81 1.05,1.06 0.44,0.25 0.99,0.38 1.67,0.38 0.56,0 1.08,-0.08 1.56,-0.25 0.47,-0.16 0.82,-0.31 1.03,-0.42 l 0.46,2.01 c -0.25,0.17 -0.67,0.36 -1.26,0.57 -0.59,0.2 -1.29,0.31 -2.11,0.31 -1.07,0 -1.96,-0.19 -2.69,-0.58 -0.73,-0.39 -1.32,-0.93 -1.77,-1.63 -0.46,-0.7 -0.78,-1.53 -0.97,-2.5 -0.19,-0.97 -0.29,-2.03 -0.29,-3.2 0,-2.81 0.47,-4.86 1.4,-6.16 0.93,-1.3 2.16,-1.95 3.69,-1.95 1.72,0 2.94,0.65 3.66,1.95 0.72,1.3 1.08,3.12 1.08,5.46 0,0.21 0,0.43 0,0.65 0,0.22 -0.01,0.45 -0.03,0.68 z m 2.53,-6.63 c -0.83,0 -1.44,0.42 -1.82,1.25 -0.38,0.83 -0.61,1.95 -0.68,3.34 h 4.62 c 0,-1.41 -0.15,-2.53 -0.44,-3.36 -0.29,-0.82 -0.85,-1.23 -1.68,-1.23 z" />
					<path
   inkscape:connector-curvature="0"
   id="path200"
   d="m 1082.27,711.69 c 0.02,0.16 0.03,0.29 0.03,0.41 0,0.12 0,0.25 0,0.41 0,1.1 -0.17,2.16 -0.52,3.17 -0.35,1.01 -0.82,1.99 -1.42,2.94 l -1.77,-0.52 c 0.48,-0.87 0.8,-1.75 0.96,-2.65 0.15,-0.89 0.23,-1.73 0.23,-2.53 0,-0.21 0,-0.42 -0.01,-0.62 -0.01,-0.2 -0.02,-0.4 -0.04,-0.6 h 2.54 z" />
					<path
   inkscape:connector-curvature="0"
   id="path202"
   d="m 1087.74,731.71 c 0.74,0 1.29,-0.21 1.67,-0.62 0.38,-0.42 0.57,-0.96 0.57,-1.64 0,-0.43 -0.08,-0.79 -0.23,-1.09 -0.16,-0.3 -0.36,-0.57 -0.61,-0.8 -0.25,-0.23 -0.54,-0.44 -0.87,-0.62 -0.33,-0.18 -0.66,-0.38 -0.99,-0.6 -0.33,-0.19 -0.65,-0.42 -0.96,-0.68 -0.31,-0.26 -0.59,-0.56 -0.83,-0.9 -0.24,-0.34 -0.44,-0.73 -0.58,-1.16 -0.15,-0.44 -0.22,-0.94 -0.22,-1.53 0,-1.26 0.39,-2.28 1.18,-3.05 0.78,-0.77 1.85,-1.16 3.18,-1.16 0.56,0 1.09,0.07 1.6,0.22 0.5,0.15 0.92,0.31 1.25,0.48 l -0.55,2.01 c -0.35,-0.19 -0.7,-0.34 -1.05,-0.44 -0.35,-0.1 -0.73,-0.15 -1.13,-0.15 -0.62,0 -1.11,0.18 -1.48,0.54 -0.37,0.36 -0.55,0.88 -0.55,1.56 0,0.39 0.07,0.72 0.2,1 0.14,0.28 0.31,0.53 0.54,0.76 0.22,0.22 0.47,0.43 0.76,0.62 0.28,0.19 0.58,0.38 0.89,0.55 0.37,0.21 0.73,0.45 1.09,0.7 0.36,0.25 0.68,0.55 0.96,0.89 0.28,0.34 0.51,0.74 0.68,1.19 0.17,0.46 0.26,1 0.26,1.64 0,1.34 -0.39,2.41 -1.18,3.23 -0.79,0.81 -1.93,1.22 -3.44,1.22 -0.78,0 -1.47,-0.11 -2.09,-0.32 -0.62,-0.21 -1.09,-0.41 -1.4,-0.58 l 0.52,-2.06 c 0.29,0.16 0.68,0.33 1.18,0.52 0.48,0.18 1.03,0.27 1.63,0.27 z" />
					<path
   inkscape:connector-curvature="0"
   id="path204"
   d="m 1101.37,733.49 v -20.14 h 9.04 v 2.24 h -6.42 v 6.25 h 5.81 v 2.18 h -5.81 v 7.24 h 6.89 v 2.24 h -9.51 z" />
					<path
   inkscape:connector-curvature="0"
   id="path206"
   d="m 1116.77,718.23 h 3.84 v 2.15 h -3.84 v 8.4 c 0,1.05 0.19,1.78 0.57,2.19 0.38,0.42 0.89,0.62 1.53,0.62 0.33,0 0.64,-0.05 0.94,-0.15 0.3,-0.1 0.56,-0.21 0.77,-0.35 l 0.49,2.01 c -0.8,0.47 -1.64,0.7 -2.53,0.7 -1.43,0 -2.5,-0.4 -3.21,-1.21 -0.71,-0.8 -1.06,-2.14 -1.06,-4 v -14.48 l 2.5,-0.44 z" />
					<path
   inkscape:connector-curvature="0"
   id="path208"
   d="m 1123.78,733.49 v -22.12 l 2.5,-0.44 v 7.38 c 0.37,-0.12 0.77,-0.21 1.21,-0.29 0.44,-0.08 0.88,-0.12 1.32,-0.12 0.64,0 1.24,0.1 1.8,0.31 0.56,0.2 1.05,0.55 1.47,1.03 0.42,0.48 0.75,1.14 0.99,1.96 0.24,0.82 0.36,1.85 0.36,3.07 v 9.21 h -2.5 v -9.01 c 0,-1.51 -0.19,-2.62 -0.58,-3.31 -0.39,-0.7 -1.11,-1.05 -2.18,-1.05 -0.56,0 -1.19,0.1 -1.89,0.29 v 13.08 h -2.5 z" />
					<path
   inkscape:connector-curvature="0"
   id="path210"
   d="m 1139.5,726.6 c 0.02,0.74 0.09,1.41 0.2,2.02 0.11,0.61 0.31,1.14 0.57,1.6 0.26,0.46 0.61,0.81 1.05,1.06 0.44,0.25 0.99,0.38 1.67,0.38 0.56,0 1.08,-0.08 1.56,-0.25 0.47,-0.16 0.82,-0.31 1.03,-0.42 l 0.46,2.01 c -0.25,0.17 -0.67,0.36 -1.26,0.57 -0.59,0.2 -1.29,0.31 -2.11,0.31 -1.07,0 -1.96,-0.19 -2.69,-0.58 -0.73,-0.39 -1.32,-0.93 -1.77,-1.63 -0.46,-0.7 -0.78,-1.53 -0.97,-2.5 -0.19,-0.97 -0.29,-2.03 -0.29,-3.2 0,-2.81 0.47,-4.86 1.4,-6.16 0.93,-1.3 2.16,-1.95 3.69,-1.95 1.72,0 2.94,0.65 3.66,1.95 0.72,1.3 1.08,3.12 1.08,5.46 0,0.21 0,0.43 0,0.65 0,0.22 -0.01,0.45 -0.03,0.68 z m 2.53,-6.63 c -0.83,0 -1.44,0.42 -1.82,1.25 -0.38,0.83 -0.61,1.95 -0.68,3.34 h 4.62 c 0,-1.41 -0.15,-2.53 -0.44,-3.36 -0.28,-0.82 -0.84,-1.23 -1.68,-1.23 z" />
					<path
   inkscape:connector-curvature="0"
   id="path212"
   d="m 1157.06,720.49 c -0.62,-0.27 -1.32,-0.41 -2.09,-0.41 -0.72,0 -1.39,0.13 -2.01,0.38 v 13.02 h -2.5 v -14.59 c 0.56,-0.27 1.21,-0.5 1.93,-0.68 0.73,-0.18 1.53,-0.28 2.4,-0.28 0.46,0 0.93,0.03 1.4,0.09 0.47,0.06 0.9,0.16 1.31,0.32 z" />
					<path
   inkscape:connector-curvature="0"
   id="path214"
   d="m 1161.42,726.6 c 0.02,0.74 0.09,1.41 0.2,2.02 0.12,0.61 0.31,1.14 0.57,1.6 0.26,0.46 0.61,0.81 1.05,1.06 0.44,0.25 0.99,0.38 1.67,0.38 0.56,0 1.08,-0.08 1.56,-0.25 0.47,-0.16 0.82,-0.31 1.03,-0.42 l 0.46,2.01 c -0.25,0.17 -0.67,0.36 -1.26,0.57 -0.59,0.2 -1.29,0.31 -2.11,0.31 -1.07,0 -1.96,-0.19 -2.69,-0.58 -0.73,-0.39 -1.32,-0.93 -1.77,-1.63 -0.46,-0.7 -0.78,-1.53 -0.97,-2.5 -0.19,-0.97 -0.29,-2.03 -0.29,-3.2 0,-2.81 0.47,-4.86 1.4,-6.16 0.93,-1.3 2.16,-1.95 3.69,-1.95 1.72,0 2.95,0.65 3.66,1.95 0.72,1.3 1.08,3.12 1.08,5.46 0,0.21 0,0.43 0,0.65 0,0.22 -0.01,0.45 -0.03,0.68 z m 2.53,-6.63 c -0.83,0 -1.44,0.42 -1.82,1.25 -0.38,0.83 -0.61,1.95 -0.68,3.34 h 4.62 c 0,-1.41 -0.15,-2.53 -0.44,-3.36 -0.29,-0.82 -0.85,-1.23 -1.68,-1.23 z" />
					<path
   inkscape:connector-curvature="0"
   id="path216"
   d="m 1181.82,733.05 c -0.25,0.1 -0.56,0.19 -0.92,0.28 -0.36,0.09 -0.74,0.16 -1.13,0.23 -0.4,0.07 -0.8,0.13 -1.19,0.17 -0.4,0.05 -0.76,0.07 -1.09,0.07 -0.79,0 -1.52,-0.09 -2.18,-0.28 -0.66,-0.18 -1.22,-0.51 -1.69,-0.97 -0.47,-0.46 -0.82,-1.1 -1.08,-1.9 -0.25,-0.8 -0.38,-1.82 -0.38,-3.04 v -9.39 h 2.5 v 9.3 c 0,1.49 0.23,2.54 0.68,3.15 0.46,0.61 1.15,0.92 2.08,0.92 0.31,0 0.62,-0.01 0.93,-0.04 0.31,-0.03 0.63,-0.09 0.96,-0.19 v -13.14 h 2.5 v 14.83 z" />
					<path
   inkscape:connector-curvature="0"
   id="path218"
   d="m 1186.33,718.66 c 0.68,-0.21 1.41,-0.39 2.21,-0.54 0.79,-0.15 1.52,-0.22 2.18,-0.22 0.68,0 1.29,0.09 1.85,0.26 0.56,0.17 1.04,0.47 1.47,0.87 0.5,-0.33 1.05,-0.6 1.63,-0.81 0.58,-0.21 1.22,-0.32 1.92,-0.32 0.7,0 1.33,0.1 1.9,0.31 0.57,0.2 1.06,0.55 1.47,1.03 0.41,0.48 0.73,1.14 0.96,1.96 0.23,0.82 0.35,1.85 0.35,3.07 v 9.21 h -2.5 v -9.01 c 0,-1.51 -0.17,-2.62 -0.52,-3.31 -0.35,-0.7 -1.01,-1.05 -1.98,-1.05 -0.37,0 -0.74,0.07 -1.12,0.2 -0.38,0.14 -0.73,0.32 -1.06,0.55 0.15,0.45 0.27,0.95 0.35,1.51 0.08,0.56 0.12,1.19 0.12,1.89 v 9.21 h -2.5 v -9.01 c 0,-1.51 -0.17,-2.62 -0.52,-3.31 -0.35,-0.7 -1.01,-1.05 -1.98,-1.05 -0.5,0 -1.08,0.1 -1.71,0.29 v 13.08 h -2.5 v -14.81 z" />
					<path
   inkscape:connector-curvature="0"
   id="path220"
   d="m 1222.34,733.49 c -0.47,-1.14 -0.99,-2.38 -1.58,-3.71 -0.59,-1.33 -1.21,-2.66 -1.86,-4.01 -0.65,-1.35 -1.31,-2.68 -1.99,-4.01 -0.68,-1.33 -1.35,-2.56 -2.01,-3.71 v 15.43 h -2.44 v -20.14 h 2.18 c 0.74,1.2 1.45,2.43 2.14,3.69 0.69,1.26 1.34,2.5 1.96,3.74 0.62,1.23 1.21,2.44 1.76,3.63 0.55,1.19 1.06,2.32 1.53,3.39 v -14.45 h 2.44 v 20.14 h -2.13 z" />
					<path
   inkscape:connector-curvature="0"
   id="path222"
   d="m 1238.97,725.87 c 0,1.2 -0.11,2.29 -0.32,3.27 -0.21,0.98 -0.54,1.82 -0.97,2.51 -0.44,0.7 -0.99,1.24 -1.66,1.63 -0.67,0.39 -1.46,0.58 -2.37,0.58 -0.91,0 -1.71,-0.19 -2.38,-0.58 -0.68,-0.39 -1.24,-0.93 -1.67,-1.63 -0.44,-0.7 -0.76,-1.54 -0.97,-2.51 -0.21,-0.98 -0.32,-2.07 -0.32,-3.27 0,-1.18 0.11,-2.27 0.32,-3.26 0.21,-0.99 0.54,-1.84 0.97,-2.54 0.44,-0.71 0.99,-1.25 1.67,-1.64 0.68,-0.39 1.47,-0.58 2.38,-0.58 0.91,0 1.7,0.19 2.37,0.58 0.67,0.39 1.22,0.94 1.66,1.64 0.44,0.71 0.76,1.55 0.97,2.54 0.21,0.99 0.32,2.08 0.32,3.26 z m -2.62,0 c 0,-0.85 -0.05,-1.63 -0.15,-2.34 -0.1,-0.71 -0.25,-1.32 -0.47,-1.83 -0.21,-0.51 -0.49,-0.91 -0.84,-1.19 -0.35,-0.28 -0.77,-0.42 -1.25,-0.42 -0.5,0 -0.93,0.14 -1.26,0.42 -0.34,0.28 -0.62,0.68 -0.84,1.19 -0.22,0.51 -0.38,1.12 -0.48,1.83 -0.1,0.71 -0.15,1.49 -0.15,2.34 0,0.85 0.05,1.63 0.15,2.34 0.1,0.71 0.26,1.31 0.48,1.82 0.22,0.5 0.5,0.9 0.84,1.18 0.34,0.28 0.76,0.42 1.26,0.42 0.48,0 0.9,-0.14 1.25,-0.42 0.35,-0.28 0.63,-0.67 0.84,-1.18 0.21,-0.5 0.37,-1.11 0.47,-1.82 0.1,-0.71 0.15,-1.49 0.15,-2.34 z" />
					<path
   inkscape:connector-curvature="0"
   id="path224"
   d="m 1249.2,711.37 2.5,-0.44 v 22.15 c -0.54,0.23 -1.16,0.42 -1.86,0.57 -0.7,0.15 -1.41,0.22 -2.12,0.22 -2.09,0 -3.61,-0.67 -4.55,-2.01 -0.94,-1.34 -1.41,-3.35 -1.41,-6.05 0,-1.22 0.1,-2.32 0.31,-3.3 0.2,-0.98 0.52,-1.81 0.96,-2.5 0.44,-0.69 0.99,-1.22 1.67,-1.6 0.68,-0.38 1.48,-0.57 2.41,-0.57 0.45,0 0.83,0.04 1.15,0.13 0.32,0.09 0.63,0.21 0.94,0.36 z m 0,9.15 c -0.56,-0.31 -1.16,-0.47 -1.8,-0.47 -0.48,0 -0.91,0.1 -1.28,0.29 -0.37,0.19 -0.68,0.51 -0.94,0.96 -0.26,0.45 -0.46,1.04 -0.6,1.77 -0.14,0.74 -0.2,1.65 -0.2,2.73 0,2.09 0.28,3.59 0.83,4.49 0.55,0.9 1.39,1.35 2.51,1.35 0.21,0 0.45,-0.01 0.7,-0.04 0.25,-0.03 0.51,-0.08 0.78,-0.16 z" />
					<path
   inkscape:connector-curvature="0"
   id="path226"
   d="m 1257.92,726.6 c 0.02,0.74 0.09,1.41 0.2,2.02 0.12,0.61 0.31,1.14 0.57,1.6 0.26,0.46 0.61,0.81 1.05,1.06 0.44,0.25 0.99,0.38 1.67,0.38 0.56,0 1.08,-0.08 1.56,-0.25 0.47,-0.16 0.82,-0.31 1.03,-0.42 l 0.46,2.01 c -0.25,0.17 -0.67,0.36 -1.26,0.57 -0.59,0.2 -1.29,0.31 -2.11,0.31 -1.07,0 -1.96,-0.19 -2.69,-0.58 -0.73,-0.39 -1.32,-0.93 -1.77,-1.63 -0.46,-0.7 -0.78,-1.53 -0.97,-2.5 -0.19,-0.97 -0.29,-2.03 -0.29,-3.2 0,-2.81 0.47,-4.86 1.4,-6.16 0.93,-1.3 2.16,-1.95 3.69,-1.95 1.72,0 2.95,0.65 3.66,1.95 0.72,1.3 1.08,3.12 1.08,5.46 0,0.21 0,0.43 0,0.65 0,0.22 -0.01,0.45 -0.03,0.68 z m 2.53,-6.63 c -0.83,0 -1.44,0.42 -1.82,1.25 -0.38,0.83 -0.61,1.95 -0.68,3.34 h 4.62 c 0,-1.41 -0.15,-2.53 -0.44,-3.36 -0.29,-0.82 -0.85,-1.23 -1.68,-1.23 z" />
				</g>
			</g><g
   id="g304"
   transform="matrix(0.78434333,0,0,0.78434333,-0.13886,-103.05487)">
				<g
   id="g254">
					<path
   inkscape:connector-curvature="0"
   id="path232"
   d="m 557.95,134.14 c 1.38,-0.33 2.71,-0.5 3.99,-0.5 1.02,0 1.95,0.12 2.78,0.35 0.83,0.24 1.54,0.61 2.13,1.12 0.59,0.51 1.05,1.17 1.37,1.98 0.32,0.81 0.49,1.78 0.49,2.92 0,1.42 -0.27,2.56 -0.81,3.44 -0.54,0.88 -1.27,1.54 -2.2,1.99 0.24,0.39 0.54,0.93 0.9,1.61 0.36,0.68 0.74,1.43 1.12,2.24 0.38,0.82 0.76,1.66 1.12,2.52 0.36,0.87 0.67,1.69 0.93,2.48 h -2.68 c -0.22,-0.59 -0.48,-1.26 -0.81,-2.01 -0.32,-0.75 -0.66,-1.49 -1.01,-2.23 -0.35,-0.74 -0.7,-1.45 -1.06,-2.13 -0.35,-0.68 -0.67,-1.25 -0.94,-1.73 -0.32,0.04 -0.64,0.07 -0.97,0.09 -0.33,0.02 -0.67,0.03 -1,0.03 h -0.74 v 7.97 h -2.6 v -20.14 z m 2.6,10.01 h 1.12 c 1.36,0 2.4,-0.31 3.13,-0.93 0.73,-0.62 1.09,-1.69 1.09,-3.2 0,-0.77 -0.09,-1.41 -0.28,-1.93 -0.19,-0.52 -0.45,-0.93 -0.8,-1.24 -0.34,-0.31 -0.76,-0.53 -1.24,-0.66 -0.48,-0.14 -1.02,-0.21 -1.61,-0.21 -0.51,0 -0.98,0.03 -1.42,0.09 v 8.08 z" />
					<path
   inkscape:connector-curvature="0"
   id="path234"
   d="m 574.1,147.31 c 0.02,0.75 0.09,1.43 0.21,2.05 0.12,0.62 0.31,1.16 0.58,1.62 0.27,0.46 0.62,0.82 1.06,1.08 0.44,0.26 1.01,0.38 1.7,0.38 0.57,0 1.1,-0.08 1.58,-0.25 0.48,-0.17 0.83,-0.31 1.05,-0.43 l 0.47,2.04 c -0.26,0.18 -0.68,0.37 -1.28,0.58 -0.6,0.21 -1.31,0.31 -2.14,0.31 -1.08,0 -1.99,-0.2 -2.73,-0.59 -0.74,-0.39 -1.34,-0.94 -1.8,-1.65 -0.46,-0.71 -0.79,-1.55 -0.99,-2.54 -0.2,-0.98 -0.3,-2.07 -0.3,-3.25 0,-2.85 0.47,-4.94 1.42,-6.26 0.95,-1.32 2.19,-1.98 3.75,-1.98 1.75,0 2.99,0.66 3.72,1.98 0.73,1.32 1.09,3.17 1.09,5.55 0,0.22 0,0.44 0,0.66 0,0.23 -0.01,0.46 -0.03,0.69 h -7.36 z m 2.57,-6.73 c -0.85,0 -1.46,0.42 -1.85,1.27 -0.38,0.85 -0.62,1.98 -0.69,3.4 h 4.69 c 0,-1.44 -0.15,-2.57 -0.44,-3.41 -0.29,-0.85 -0.86,-1.26 -1.71,-1.26 z" />
					<path
   inkscape:connector-curvature="0"
   id="path236"
   d="m 591.91,154.19 c -0.32,0.16 -0.65,0.28 -1,0.37 -0.35,0.09 -0.76,0.13 -1.21,0.13 -1.89,0 -3.25,-0.69 -4.09,-2.07 -0.84,-1.38 -1.25,-3.38 -1.25,-5.99 0,-1.3 0.11,-2.46 0.34,-3.47 0.23,-1.01 0.58,-1.87 1.06,-2.57 0.48,-0.7 1.11,-1.24 1.87,-1.61 0.77,-0.37 1.7,-0.56 2.81,-0.56 0.73,0 1.44,0.07 2.14,0.22 0.7,0.15 1.32,0.34 1.88,0.58 v 20.55 h -2.54 v -5.58 z m 0,-13.32 c -0.28,-0.08 -0.54,-0.13 -0.8,-0.16 -0.26,-0.03 -0.49,-0.04 -0.71,-0.04 -1.18,0 -2.04,0.46 -2.58,1.37 -0.54,0.92 -0.81,2.44 -0.81,4.56 0,1.1 0.07,2.03 0.21,2.78 0.14,0.75 0.34,1.35 0.61,1.8 0.27,0.45 0.59,0.78 0.96,0.97 0.37,0.2 0.81,0.3 1.3,0.3 0.65,0 1.26,-0.16 1.83,-0.47 v -11.11 z" />
					<path
   inkscape:connector-curvature="0"
   id="path238"
   d="m 608.62,153.86 c -0.26,0.1 -0.57,0.19 -0.93,0.28 -0.36,0.09 -0.75,0.17 -1.15,0.24 -0.4,0.07 -0.81,0.13 -1.21,0.18 -0.4,0.05 -0.77,0.07 -1.11,0.07 -0.81,0 -1.55,-0.09 -2.21,-0.28 -0.67,-0.19 -1.24,-0.52 -1.71,-0.99 -0.47,-0.47 -0.84,-1.12 -1.09,-1.93 -0.26,-0.82 -0.38,-1.85 -0.38,-3.09 v -9.54 h 2.54 v 9.45 c 0,1.52 0.23,2.58 0.69,3.2 0.46,0.62 1.17,0.93 2.11,0.93 0.31,0 0.63,-0.01 0.95,-0.04 0.31,-0.03 0.64,-0.09 0.97,-0.19 V 138.8 h 2.54 v 15.06 z" />
					<path
   inkscape:connector-curvature="0"
   id="path240"
   d="m 614.94,147.31 c 0.02,0.75 0.09,1.43 0.21,2.05 0.12,0.62 0.31,1.16 0.58,1.62 0.27,0.46 0.62,0.82 1.06,1.08 0.44,0.26 1.01,0.38 1.7,0.38 0.57,0 1.1,-0.08 1.58,-0.25 0.48,-0.17 0.83,-0.31 1.05,-0.43 l 0.47,2.04 c -0.26,0.18 -0.68,0.37 -1.28,0.58 -0.6,0.21 -1.31,0.31 -2.14,0.31 -1.08,0 -1.99,-0.2 -2.73,-0.59 -0.74,-0.39 -1.34,-0.94 -1.8,-1.65 -0.46,-0.71 -0.79,-1.55 -0.99,-2.54 -0.2,-0.98 -0.3,-2.07 -0.3,-3.25 0,-2.85 0.47,-4.94 1.42,-6.26 0.94,-1.32 2.19,-1.98 3.75,-1.98 1.75,0 2.99,0.66 3.72,1.98 0.73,1.32 1.09,3.17 1.09,5.55 0,0.22 0,0.44 0,0.66 0,0.23 -0.01,0.46 -0.03,0.69 h -7.36 z m 2.57,-6.73 c -0.85,0 -1.46,0.42 -1.85,1.27 -0.38,0.85 -0.62,1.98 -0.69,3.4 h 4.69 c 0,-1.44 -0.15,-2.57 -0.44,-3.41 -0.29,-0.85 -0.87,-1.26 -1.71,-1.26 z" />
					<path
   inkscape:connector-curvature="0"
   id="path242"
   d="m 628.23,152.51 c 0.75,0 1.31,-0.21 1.7,-0.63 0.38,-0.42 0.58,-0.98 0.58,-1.67 0,-0.43 -0.08,-0.8 -0.24,-1.11 -0.16,-0.3 -0.36,-0.58 -0.62,-0.81 -0.26,-0.24 -0.55,-0.45 -0.89,-0.63 -0.34,-0.19 -0.67,-0.39 -1,-0.61 -0.34,-0.2 -0.66,-0.43 -0.97,-0.69 -0.32,-0.27 -0.6,-0.57 -0.84,-0.92 -0.25,-0.34 -0.44,-0.74 -0.59,-1.18 -0.15,-0.44 -0.22,-0.96 -0.22,-1.55 0,-1.28 0.4,-2.31 1.2,-3.1 0.8,-0.79 1.88,-1.18 3.23,-1.18 0.57,0 1.11,0.07 1.62,0.22 0.51,0.15 0.93,0.31 1.27,0.49 l -0.56,2.04 c -0.35,-0.2 -0.71,-0.34 -1.06,-0.44 -0.35,-0.1 -0.74,-0.15 -1.15,-0.15 -0.63,0 -1.13,0.18 -1.51,0.55 -0.37,0.36 -0.56,0.89 -0.56,1.58 0,0.39 0.07,0.73 0.21,1.02 0.14,0.29 0.32,0.54 0.55,0.77 0.23,0.23 0.48,0.44 0.77,0.63 0.29,0.2 0.59,0.38 0.9,0.56 0.37,0.22 0.74,0.45 1.11,0.71 0.36,0.26 0.69,0.56 0.97,0.9 0.29,0.34 0.52,0.75 0.69,1.21 0.18,0.46 0.27,1.02 0.27,1.67 0,1.36 -0.4,2.45 -1.2,3.28 -0.8,0.83 -1.96,1.24 -3.5,1.24 -0.79,0 -1.5,-0.11 -2.13,-0.32 -0.63,-0.22 -1.1,-0.41 -1.42,-0.59 l 0.53,-2.1 c 0.3,0.16 0.69,0.33 1.2,0.53 0.49,0.18 1.05,0.28 1.66,0.28 z" />
					<path
   inkscape:connector-curvature="0"
   id="path244"
   d="m 638.5,138.8 h 3.9 v 2.19 h -3.9 v 8.53 c 0,1.06 0.19,1.81 0.58,2.23 0.38,0.42 0.9,0.63 1.55,0.63 0.33,0 0.65,-0.05 0.96,-0.15 0.3,-0.1 0.57,-0.22 0.78,-0.35 l 0.5,2.04 c -0.81,0.47 -1.66,0.71 -2.57,0.71 -1.46,0 -2.54,-0.41 -3.26,-1.23 -0.72,-0.82 -1.08,-2.17 -1.08,-4.06 v -14.71 l 2.54,-0.44 z" />
					<path
   inkscape:connector-curvature="0"
   id="path246"
   d="m 658.05,131.83 2.54,-0.44 v 22.5 c -0.55,0.24 -1.18,0.43 -1.89,0.58 -0.71,0.15 -1.43,0.22 -2.16,0.22 -2.13,0 -3.67,-0.68 -4.62,-2.04 -0.96,-1.36 -1.43,-3.41 -1.43,-6.14 0,-1.24 0.1,-2.36 0.31,-3.35 0.21,-0.99 0.53,-1.84 0.97,-2.54 0.44,-0.7 1.01,-1.24 1.7,-1.62 0.69,-0.38 1.51,-0.58 2.45,-0.58 0.45,0 0.84,0.04 1.17,0.13 0.32,0.09 0.64,0.21 0.96,0.37 z m 0,9.31 c -0.57,-0.31 -1.18,-0.47 -1.83,-0.47 -0.49,0 -0.93,0.1 -1.3,0.3 -0.37,0.2 -0.69,0.52 -0.96,0.97 -0.27,0.45 -0.47,1.05 -0.61,1.8 -0.14,0.75 -0.21,1.67 -0.21,2.78 0,2.13 0.28,3.65 0.84,4.56 0.56,0.92 1.41,1.37 2.55,1.37 0.22,0 0.45,-0.01 0.71,-0.04 0.26,-0.03 0.52,-0.08 0.8,-0.16 v -11.11 z" />
					<path
   inkscape:connector-curvature="0"
   id="path248"
   d="m 665.4,139.13 c 0.51,-0.22 1.05,-0.39 1.62,-0.52 0.57,-0.13 1.19,-0.19 1.86,-0.19 1.38,0 2.5,0.43 3.37,1.28 0.87,0.86 1.3,2.19 1.3,4 v 10.28 c -0.71,0.2 -1.43,0.35 -2.17,0.47 -0.74,0.12 -1.46,0.18 -2.17,0.18 -0.71,0 -1.37,-0.09 -1.99,-0.27 -0.62,-0.18 -1.16,-0.46 -1.62,-0.86 -0.46,-0.39 -0.83,-0.89 -1.11,-1.49 -0.28,-0.6 -0.41,-1.33 -0.41,-2.2 0,-0.81 0.12,-1.51 0.37,-2.11 0.25,-0.6 0.59,-1.1 1.02,-1.51 0.43,-0.4 0.94,-0.71 1.54,-0.92 0.59,-0.21 1.23,-0.31 1.92,-0.31 0.65,0 1.37,0.08 2.16,0.24 v -1.42 c 0,-1.14 -0.22,-1.94 -0.66,-2.39 -0.44,-0.45 -1.08,-0.68 -1.9,-0.68 -0.45,0 -0.88,0.04 -1.28,0.13 -0.4,0.09 -0.83,0.23 -1.28,0.43 z m 1.21,10.66 c 0,0.91 0.24,1.58 0.71,2.01 0.47,0.43 1.14,0.65 2.01,0.65 0.53,0 1.11,-0.07 1.74,-0.21 v -4.93 c -0.59,-0.16 -1.17,-0.24 -1.74,-0.24 -0.37,0 -0.73,0.04 -1.06,0.13 -0.33,0.09 -0.62,0.24 -0.87,0.44 -0.25,0.21 -0.44,0.48 -0.58,0.83 -0.14,0.35 -0.21,0.79 -0.21,1.32 z" />
					<path
   inkscape:connector-curvature="0"
   id="path250"
   d="m 680.34,138.8 h 3.9 v 2.19 h -3.9 v 8.53 c 0,1.06 0.19,1.81 0.58,2.23 0.38,0.42 0.9,0.63 1.55,0.63 0.33,0 0.65,-0.05 0.96,-0.15 0.3,-0.1 0.57,-0.22 0.78,-0.35 l 0.5,2.04 c -0.81,0.47 -1.66,0.71 -2.57,0.71 -1.46,0 -2.54,-0.41 -3.26,-1.23 -0.72,-0.82 -1.08,-2.17 -1.08,-4.06 v -14.71 l 2.54,-0.44 z" />
					<path
   inkscape:connector-curvature="0"
   id="path252"
   d="m 687.7,139.13 c 0.51,-0.22 1.05,-0.39 1.62,-0.52 0.57,-0.13 1.19,-0.19 1.86,-0.19 1.38,0 2.5,0.43 3.37,1.28 0.87,0.86 1.3,2.19 1.3,4 v 10.28 c -0.71,0.2 -1.43,0.35 -2.17,0.47 -0.74,0.12 -1.46,0.18 -2.17,0.18 -0.71,0 -1.37,-0.09 -1.99,-0.27 -0.62,-0.18 -1.16,-0.46 -1.62,-0.86 -0.46,-0.39 -0.83,-0.89 -1.11,-1.49 -0.28,-0.6 -0.41,-1.33 -0.41,-2.2 0,-0.81 0.12,-1.51 0.37,-2.11 0.25,-0.6 0.59,-1.1 1.02,-1.51 0.43,-0.4 0.94,-0.71 1.54,-0.92 0.59,-0.21 1.23,-0.31 1.92,-0.31 0.65,0 1.37,0.08 2.16,0.24 v -1.42 c 0,-1.14 -0.22,-1.94 -0.66,-2.39 -0.44,-0.45 -1.08,-0.68 -1.9,-0.68 -0.45,0 -0.88,0.04 -1.28,0.13 -0.4,0.09 -0.83,0.23 -1.28,0.43 z m 1.21,10.66 c 0,0.91 0.24,1.58 0.71,2.01 0.47,0.43 1.14,0.65 2.01,0.65 0.53,0 1.11,-0.07 1.74,-0.21 v -4.93 c -0.59,-0.16 -1.17,-0.24 -1.74,-0.24 -0.37,0 -0.73,0.04 -1.06,0.13 -0.33,0.09 -0.63,0.24 -0.87,0.44 -0.25,0.21 -0.44,0.48 -0.58,0.83 -0.14,0.35 -0.21,0.79 -0.21,1.32 z" />
				</g>
				<g
   id="g298">
					<path
   inkscape:connector-curvature="0"
   id="path256"
   d="m 489.73,191.54 c 1.37,-0.33 2.68,-0.5 3.95,-0.5 1.01,0 1.93,0.12 2.75,0.35 0.82,0.23 1.52,0.61 2.11,1.11 0.59,0.51 1.04,1.16 1.36,1.96 0.32,0.8 0.48,1.77 0.48,2.9 0,1.4 -0.27,2.54 -0.8,3.41 -0.54,0.87 -1.26,1.53 -2.18,1.98 0.23,0.39 0.53,0.92 0.89,1.6 0.36,0.67 0.73,1.41 1.11,2.22 0.38,0.81 0.75,1.64 1.11,2.5 0.36,0.86 0.67,1.68 0.92,2.46 h -2.65 c -0.21,-0.59 -0.48,-1.25 -0.8,-1.99 -0.32,-0.74 -0.66,-1.48 -1,-2.21 -0.35,-0.73 -0.7,-1.43 -1.05,-2.11 -0.35,-0.67 -0.66,-1.24 -0.93,-1.71 -0.31,0.04 -0.63,0.07 -0.97,0.09 -0.33,0.02 -0.66,0.03 -0.99,0.03 h -0.73 v 7.9 h -2.58 z m 2.57,9.92 h 1.11 c 1.35,0 2.38,-0.31 3.1,-0.92 0.72,-0.61 1.08,-1.67 1.08,-3.18 0,-0.76 -0.09,-1.4 -0.28,-1.92 -0.19,-0.52 -0.45,-0.93 -0.79,-1.23 -0.34,-0.3 -0.75,-0.52 -1.23,-0.66 -0.48,-0.14 -1.01,-0.2 -1.6,-0.2 -0.51,0 -0.98,0.03 -1.4,0.09 v 8.02 z" />
					<path
   inkscape:connector-curvature="0"
   id="path258"
   d="m 505.74,204.59 c 0.02,0.74 0.09,1.42 0.21,2.03 0.12,0.61 0.31,1.15 0.57,1.61 0.26,0.46 0.61,0.81 1.05,1.07 0.44,0.25 1,0.38 1.68,0.38 0.57,0 1.09,-0.08 1.57,-0.25 0.48,-0.17 0.82,-0.31 1.04,-0.42 l 0.47,2.02 c -0.25,0.18 -0.68,0.37 -1.27,0.57 -0.6,0.2 -1.3,0.31 -2.12,0.31 -1.07,0 -1.98,-0.2 -2.71,-0.59 -0.73,-0.39 -1.33,-0.94 -1.79,-1.64 -0.46,-0.7 -0.79,-1.54 -0.98,-2.52 -0.2,-0.98 -0.29,-2.05 -0.29,-3.22 0,-2.83 0.47,-4.9 1.4,-6.2 0.94,-1.31 2.18,-1.96 3.72,-1.96 1.74,0 2.97,0.65 3.69,1.96 0.72,1.31 1.08,3.14 1.08,5.5 0,0.21 0,0.43 0,0.66 0,0.22 -0.01,0.45 -0.03,0.69 z m 2.54,-6.67 c -0.84,0 -1.45,0.42 -1.83,1.26 -0.38,0.84 -0.61,1.96 -0.69,3.37 h 4.65 c 0,-1.42 -0.15,-2.55 -0.44,-3.38 -0.28,-0.84 -0.85,-1.25 -1.69,-1.25 z" />
					<path
   inkscape:connector-curvature="0"
   id="path260"
   d="m 519.11,196.16 h 3.86 v 2.17 h -3.86 v 8.46 c 0,1.05 0.19,1.79 0.57,2.21 0.38,0.42 0.89,0.63 1.54,0.63 0.33,0 0.65,-0.05 0.95,-0.15 0.3,-0.1 0.56,-0.21 0.78,-0.35 l 0.5,2.02 c -0.8,0.47 -1.65,0.7 -2.55,0.7 -1.44,0 -2.52,-0.4 -3.23,-1.21 -0.71,-0.81 -1.07,-2.15 -1.07,-4.02 v -14.57 l 2.52,-0.44 v 4.55 z" />
					<path
   inkscape:connector-curvature="0"
   id="path262"
   d="m 535.68,211.09 c -0.25,0.1 -0.56,0.19 -0.92,0.28 -0.36,0.09 -0.74,0.17 -1.14,0.23 -0.4,0.07 -0.8,0.13 -1.2,0.18 -0.4,0.05 -0.77,0.07 -1.1,0.07 -0.8,0 -1.53,-0.09 -2.2,-0.28 -0.66,-0.19 -1.23,-0.51 -1.7,-0.98 -0.47,-0.47 -0.83,-1.11 -1.08,-1.92 -0.25,-0.81 -0.38,-1.83 -0.38,-3.06 v -9.45 h 2.52 v 9.37 c 0,1.5 0.23,2.56 0.69,3.18 0.46,0.61 1.16,0.92 2.09,0.92 0.31,0 0.62,-0.01 0.94,-0.04 0.31,-0.03 0.63,-0.09 0.97,-0.19 v -13.23 h 2.52 v 14.92 z" />
					<path
   inkscape:connector-curvature="0"
   id="path264"
   d="m 546.86,198.45 c -0.62,-0.27 -1.33,-0.41 -2.11,-0.41 -0.72,0 -1.4,0.13 -2.02,0.38 v 13.11 h -2.52 v -14.69 c 0.57,-0.27 1.21,-0.5 1.95,-0.69 0.73,-0.19 1.54,-0.28 2.41,-0.28 0.47,0 0.94,0.03 1.4,0.09 0.47,0.06 0.91,0.17 1.32,0.32 z" />
					<path
   inkscape:connector-curvature="0"
   id="path266"
   d="m 549.81,196.6 c 0.72,-0.21 1.5,-0.4 2.34,-0.54 0.84,-0.15 1.61,-0.22 2.31,-0.22 0.76,0 1.45,0.1 2.08,0.31 0.62,0.2 1.16,0.55 1.59,1.04 0.44,0.49 0.78,1.15 1.02,1.98 0.24,0.83 0.37,1.86 0.37,3.09 v 9.28 H 557 v -9.07 c 0,-1.52 -0.2,-2.63 -0.59,-3.34 -0.39,-0.7 -1.12,-1.05 -2.2,-1.05 -0.57,0 -1.2,0.1 -1.9,0.29 v 13.17 h -2.52 V 196.6 Z" />
					<path
   inkscape:connector-curvature="0"
   id="path268"
   d="m 579.11,191.25 h 2.63 v 20.28 h -2.63 v -9.42 h -6.67 v 9.42 h -2.63 v -20.28 h 2.63 v 8.58 h 6.67 z" />
					<path
   inkscape:connector-curvature="0"
   id="path270"
   d="m 596.26,191.25 v 2.25 h -4.51 v 18.03 h -2.63 V 193.5 h -4.51 v -2.25 z" />
					<path
   inkscape:connector-curvature="0"
   id="path272"
   d="m 606.18,208.72 c -0.39,-1.4 -0.79,-2.75 -1.2,-4.04 -0.41,-1.29 -0.8,-2.5 -1.19,-3.64 -0.38,-1.14 -0.75,-2.18 -1.1,-3.12 -0.35,-0.94 -0.67,-1.76 -0.97,-2.46 -0.08,1.11 -0.14,2.34 -0.19,3.67 -0.05,1.34 -0.1,2.71 -0.15,4.11 -0.05,1.4 -0.09,2.81 -0.12,4.23 -0.03,1.41 -0.05,2.77 -0.07,4.05 h -2.52 c 0.06,-1.76 0.12,-3.53 0.18,-5.31 0.06,-1.78 0.13,-3.54 0.22,-5.27 0.09,-1.73 0.19,-3.41 0.29,-5.05 0.11,-1.64 0.23,-3.19 0.37,-4.65 h 2.6 c 0.35,0.84 0.75,1.84 1.2,3 0.45,1.16 0.9,2.38 1.36,3.64 0.46,1.27 0.9,2.54 1.33,3.8 0.43,1.27 0.8,2.43 1.11,3.48 0.31,-1.05 0.67,-2.21 1.08,-3.48 0.41,-1.27 0.84,-2.54 1.29,-3.8 0.45,-1.27 0.89,-2.48 1.33,-3.64 0.44,-1.16 0.83,-2.16 1.18,-3 h 2.61 c 0.14,1.46 0.26,3.01 0.37,4.65 0.11,1.64 0.21,3.32 0.29,5.05 0.09,1.73 0.16,3.48 0.22,5.27 0.06,1.79 0.12,3.56 0.18,5.31 h -2.52 c -0.04,-1.29 -0.07,-2.64 -0.1,-4.07 -0.03,-1.42 -0.07,-2.85 -0.12,-4.29 -0.05,-1.43 -0.1,-2.83 -0.16,-4.19 -0.06,-1.36 -0.13,-2.6 -0.2,-3.73 -0.18,0.49 -0.4,1.1 -0.66,1.83 -0.26,0.73 -0.54,1.53 -0.82,2.39 -0.28,0.86 -0.58,1.74 -0.88,2.65 -0.3,0.91 -0.59,1.78 -0.85,2.62 -0.26,0.84 -0.5,1.61 -0.7,2.3 -0.21,0.69 -0.37,1.25 -0.48,1.68 h -2.21 z" />
					<path
   inkscape:connector-curvature="0"
   id="path274"
   d="m 629.42,209.27 v 2.25 h -9.04 v -20.28 h 2.63 v 18.03 z" />
					<path
   inkscape:connector-curvature="0"
   id="path276"
   d="m 637.08,201.69 h 3.95 v -4.21 h 2.17 v 4.21 h 3.95 v 2.14 h -3.95 v 4.24 h -2.17 v -4.24 h -3.95 z" />
					<path
   inkscape:connector-curvature="0"
   id="path278"
   d="m 663.36,206.14 c 0,0.9 -0.09,1.7 -0.28,2.41 -0.19,0.71 -0.48,1.32 -0.88,1.83 -0.4,0.51 -0.93,0.9 -1.58,1.17 -0.65,0.27 -1.45,0.41 -2.39,0.41 -0.74,0 -1.45,-0.11 -2.14,-0.34 -0.68,-0.22 -1.3,-0.54 -1.84,-0.95 l 0.88,-2.08 c 0.33,0.25 0.78,0.49 1.33,0.72 0.56,0.22 1.1,0.34 1.62,0.34 0.41,0 0.78,-0.05 1.1,-0.15 0.32,-0.1 0.6,-0.28 0.83,-0.54 0.23,-0.26 0.41,-0.62 0.53,-1.08 0.12,-0.46 0.18,-1.04 0.18,-1.74 v -14.9 h 2.63 v 14.9 z" />
					<path
   inkscape:connector-curvature="0"
   id="path280"
   d="m 668.19,196.48 c 0.51,-0.21 1.04,-0.39 1.61,-0.51 0.57,-0.13 1.18,-0.19 1.84,-0.19 1.37,0 2.48,0.42 3.34,1.27 0.86,0.85 1.29,2.17 1.29,3.97 v 10.18 c -0.7,0.2 -1.42,0.35 -2.15,0.47 -0.73,0.12 -1.45,0.18 -2.15,0.18 -0.7,0 -1.36,-0.09 -1.98,-0.26 -0.61,-0.18 -1.15,-0.46 -1.61,-0.85 -0.46,-0.39 -0.82,-0.88 -1.1,-1.48 -0.27,-0.59 -0.41,-1.32 -0.41,-2.18 0,-0.8 0.12,-1.5 0.37,-2.09 0.24,-0.6 0.58,-1.09 1.01,-1.49 0.43,-0.4 0.94,-0.7 1.52,-0.91 0.59,-0.2 1.22,-0.31 1.9,-0.31 0.64,0 1.36,0.08 2.14,0.23 v -1.4 c 0,-1.13 -0.22,-1.92 -0.66,-2.37 -0.44,-0.45 -1.07,-0.67 -1.89,-0.67 -0.45,0 -0.87,0.04 -1.27,0.13 -0.4,0.09 -0.82,0.23 -1.27,0.42 z m 1.2,10.57 c 0,0.9 0.23,1.56 0.7,1.99 0.47,0.43 1.13,0.64 1.99,0.64 0.53,0 1.1,-0.07 1.73,-0.2 v -4.89 c -0.59,-0.16 -1.16,-0.23 -1.73,-0.23 -0.37,0 -0.72,0.04 -1.05,0.13 -0.33,0.09 -0.62,0.23 -0.86,0.44 -0.24,0.2 -0.43,0.48 -0.57,0.82 -0.14,0.34 -0.21,0.77 -0.21,1.3 z" />
					<path
   inkscape:connector-curvature="0"
   id="path282"
   d="m 683.94,208.57 c 0.23,-0.78 0.48,-1.7 0.75,-2.75 0.27,-1.05 0.52,-2.14 0.78,-3.26 0.25,-1.12 0.49,-2.24 0.72,-3.35 0.22,-1.11 0.41,-2.13 0.57,-3.04 h 2.52 c -0.25,1.29 -0.55,2.64 -0.89,4.07 -0.34,1.42 -0.69,2.82 -1.06,4.2 -0.36,1.38 -0.73,2.68 -1.1,3.91 -0.37,1.23 -0.71,2.29 -1.03,3.19 h -2.6 c -0.31,-0.9 -0.65,-1.96 -1.02,-3.19 -0.37,-1.23 -0.74,-2.53 -1.1,-3.91 -0.36,-1.38 -0.71,-2.78 -1.05,-4.2 -0.34,-1.42 -0.64,-2.78 -0.89,-4.07 h 2.66 c 0.16,0.92 0.35,1.93 0.57,3.04 0.22,1.11 0.46,2.23 0.7,3.35 0.24,1.12 0.49,2.21 0.75,3.26 0.24,1.05 0.48,1.97 0.72,2.75 z" />
					<path
   inkscape:connector-curvature="0"
   id="path284"
   d="m 691.96,196.48 c 0.51,-0.21 1.04,-0.39 1.61,-0.51 0.57,-0.13 1.18,-0.19 1.84,-0.19 1.37,0 2.48,0.42 3.34,1.27 0.86,0.85 1.29,2.17 1.29,3.97 v 10.18 c -0.7,0.2 -1.42,0.35 -2.15,0.47 -0.73,0.12 -1.45,0.18 -2.15,0.18 -0.7,0 -1.36,-0.09 -1.98,-0.26 -0.61,-0.18 -1.15,-0.46 -1.61,-0.85 -0.46,-0.39 -0.82,-0.88 -1.1,-1.48 -0.27,-0.59 -0.41,-1.32 -0.41,-2.18 0,-0.8 0.12,-1.5 0.37,-2.09 0.24,-0.6 0.58,-1.09 1.01,-1.49 0.43,-0.4 0.94,-0.7 1.52,-0.91 0.59,-0.2 1.22,-0.31 1.9,-0.31 0.64,0 1.36,0.08 2.14,0.23 v -1.4 c 0,-1.13 -0.22,-1.92 -0.66,-2.37 -0.44,-0.45 -1.07,-0.67 -1.89,-0.67 -0.45,0 -0.87,0.04 -1.27,0.13 -0.4,0.09 -0.82,0.23 -1.27,0.42 z m 1.2,10.57 c 0,0.9 0.23,1.56 0.7,1.99 0.47,0.43 1.13,0.64 1.99,0.64 0.53,0 1.1,-0.07 1.73,-0.2 v -4.89 c -0.59,-0.16 -1.16,-0.23 -1.73,-0.23 -0.37,0 -0.72,0.04 -1.05,0.13 -0.33,0.09 -0.62,0.23 -0.86,0.44 -0.24,0.2 -0.43,0.48 -0.57,0.82 -0.14,0.34 -0.21,0.77 -0.21,1.3 z" />
					<path
   inkscape:connector-curvature="0"
   id="path286"
   d="m 707.12,209.71 c 1.05,0 1.87,-0.29 2.44,-0.88 0.58,-0.59 0.86,-1.38 0.86,-2.37 0,-0.53 -0.09,-1 -0.26,-1.4 -0.18,-0.41 -0.41,-0.78 -0.69,-1.11 -0.28,-0.33 -0.61,-0.63 -0.98,-0.91 -0.37,-0.27 -0.75,-0.55 -1.14,-0.82 -0.45,-0.31 -0.92,-0.64 -1.4,-1 -0.49,-0.35 -0.93,-0.76 -1.33,-1.23 -0.4,-0.47 -0.73,-1.01 -0.98,-1.64 -0.25,-0.62 -0.38,-1.36 -0.38,-2.19 0,-0.82 0.14,-1.56 0.42,-2.22 0.28,-0.66 0.67,-1.23 1.17,-1.7 0.5,-0.47 1.09,-0.83 1.79,-1.08 0.69,-0.25 1.44,-0.38 2.24,-0.38 0.78,0 1.5,0.1 2.17,0.29 0.66,0.2 1.22,0.43 1.67,0.7 l -0.82,2.08 c -0.41,-0.27 -0.85,-0.48 -1.33,-0.63 -0.48,-0.15 -0.98,-0.22 -1.51,-0.22 -0.96,0 -1.72,0.26 -2.3,0.78 -0.58,0.52 -0.86,1.27 -0.86,2.27 0,0.55 0.09,1.02 0.28,1.43 0.19,0.41 0.43,0.78 0.73,1.11 0.3,0.33 0.65,0.63 1.05,0.91 0.4,0.27 0.82,0.56 1.27,0.85 0.45,0.29 0.91,0.61 1.38,0.97 0.47,0.35 0.89,0.76 1.27,1.21 0.38,0.46 0.69,1 0.94,1.61 0.24,0.61 0.37,1.34 0.37,2.18 0,0.76 -0.12,1.48 -0.35,2.17 -0.23,0.68 -0.6,1.28 -1.1,1.8 -0.5,0.52 -1.12,0.93 -1.87,1.23 -0.75,0.3 -1.63,0.45 -2.65,0.45 -0.94,0 -1.76,-0.11 -2.46,-0.32 -0.7,-0.21 -1.33,-0.5 -1.87,-0.85 l 0.82,-2.11 c 0.51,0.31 1.03,0.56 1.57,0.75 0.52,0.18 1.14,0.27 1.84,0.27 z" />
					<path
   inkscape:connector-curvature="0"
   id="path288"
   d="m 721.4,211.91 c -1.05,0 -1.93,-0.2 -2.63,-0.61 -0.7,-0.41 -1.27,-0.97 -1.71,-1.68 -0.44,-0.71 -0.75,-1.56 -0.94,-2.53 -0.19,-0.98 -0.28,-2.04 -0.28,-3.19 0,-2.54 0.46,-4.52 1.39,-5.96 0.93,-1.43 2.33,-2.15 4.2,-2.15 0.57,0 1.07,0.07 1.52,0.2 0.45,0.14 0.87,0.31 1.26,0.53 l -0.64,2.08 c -0.6,-0.39 -1.28,-0.59 -2.02,-0.59 -1.05,0 -1.83,0.48 -2.33,1.43 -0.5,0.96 -0.75,2.44 -0.75,4.45 0,0.84 0.05,1.61 0.15,2.33 0.1,0.71 0.27,1.32 0.51,1.83 0.24,0.51 0.57,0.91 0.97,1.2 0.4,0.29 0.91,0.44 1.54,0.44 0.43,0 0.81,-0.05 1.16,-0.16 0.34,-0.11 0.67,-0.25 0.98,-0.42 l 0.56,1.96 c -0.31,0.21 -0.73,0.41 -1.24,0.59 -0.53,0.16 -1.1,0.25 -1.7,0.25 z" />
					<path
   inkscape:connector-curvature="0"
   id="path290"
   d="m 733.69,198.45 c -0.62,-0.27 -1.33,-0.41 -2.11,-0.41 -0.72,0 -1.4,0.13 -2.02,0.38 v 13.11 h -2.52 v -14.69 c 0.57,-0.27 1.21,-0.5 1.95,-0.69 0.73,-0.19 1.54,-0.28 2.41,-0.28 0.47,0 0.94,0.03 1.4,0.09 0.47,0.06 0.91,0.17 1.32,0.32 z" />
					<path
   inkscape:connector-curvature="0"
   id="path292"
   d="m 737.91,193.44 c -0.45,0 -0.83,-0.15 -1.16,-0.45 -0.32,-0.3 -0.48,-0.71 -0.48,-1.21 0,-0.51 0.16,-0.91 0.48,-1.21 0.32,-0.3 0.71,-0.45 1.16,-0.45 0.45,0 0.83,0.15 1.16,0.45 0.32,0.3 0.48,0.71 0.48,1.21 0,0.51 -0.16,0.91 -0.48,1.21 -0.33,0.3 -0.72,0.45 -1.16,0.45 z m 1.25,18.09 h -2.52 v -15.36 h 2.52 z" />
					<path
   inkscape:connector-curvature="0"
   id="path294"
   d="m 746.22,216.94 h -2.52 v -20.37 c 0.55,-0.23 1.17,-0.42 1.86,-0.57 0.69,-0.15 1.4,-0.22 2.12,-0.22 1.07,0 1.99,0.19 2.77,0.56 0.77,0.37 1.39,0.9 1.87,1.6 0.48,0.69 0.83,1.54 1.05,2.55 0.22,1.01 0.34,2.15 0.34,3.44 0,2.6 -0.41,4.58 -1.24,5.94 -0.83,1.37 -2.18,2.05 -4.05,2.05 -0.45,0 -0.85,-0.04 -1.2,-0.13 -0.35,-0.09 -0.68,-0.21 -1,-0.37 z m 0,-7.72 c 0.57,0.31 1.17,0.47 1.81,0.47 0.49,0 0.92,-0.1 1.29,-0.29 0.37,-0.19 0.69,-0.52 0.95,-0.97 0.26,-0.45 0.46,-1.04 0.6,-1.79 0.14,-0.74 0.2,-1.66 0.2,-2.75 0,-2.11 -0.27,-3.61 -0.8,-4.52 -0.54,-0.91 -1.39,-1.36 -2.56,-1.36 -0.22,0 -0.45,0.01 -0.7,0.04 -0.25,0.03 -0.52,0.08 -0.79,0.16 z" />
					<path
   inkscape:connector-curvature="0"
   id="path296"
   d="m 759.74,196.16 h 3.86 v 2.17 h -3.86 v 8.46 c 0,1.05 0.19,1.79 0.57,2.21 0.38,0.42 0.89,0.63 1.54,0.63 0.33,0 0.65,-0.05 0.95,-0.15 0.3,-0.1 0.56,-0.21 0.78,-0.35 l 0.5,2.02 c -0.8,0.47 -1.65,0.7 -2.55,0.7 -1.44,0 -2.52,-0.4 -3.23,-1.21 -0.71,-0.81 -1.07,-2.15 -1.07,-4.02 v -14.57 l 2.52,-0.44 v 4.55 z" />
				</g>
				<polygon
   id="polygon300"
   points="746.3,159.07 491.33,159.07 491.33,160.47 746.3,160.47 746.3,165.41 762.47,159.77 746.3,154.12 " />
				<polygon
   id="polygon302"
   points="505.18,220.16 764.79,220.16 764.79,218.77 505.18,218.77 505.18,213.82 489.01,219.46 505.18,225.11 " />
			</g><g
   id="g330"
   transform="matrix(0.78434333,0,0,0.78434333,-0.13886,-103.05487)">
					<path
   d="m 500.96,404.99 c 1.35,-1.35 2.62,-2.38 3.82,-3.08 1.2,-0.7 2.33,-1.12 3.39,-1.26 1.06,-0.14 2.05,-0.01 2.98,0.37 0.92,0.39 1.79,0.98 2.6,1.8 0.62,0.62 1.1,1.27 1.44,1.95 0.34,0.68 0.55,1.29 0.65,1.83 l -2.13,0.97 c -0.1,-0.54 -0.26,-1.06 -0.49,-1.58 -0.23,-0.52 -0.58,-1.02 -1.06,-1.5 -1.2,-1.2 -2.54,-1.57 -4.04,-1.13 -1.49,0.45 -3.22,1.65 -5.18,3.61 -1.05,1.05 -1.86,2.02 -2.45,2.92 -0.59,0.9 -0.97,1.73 -1.15,2.49 -0.18,0.76 -0.17,1.45 0.02,2.09 0.19,0.63 0.54,1.21 1.05,1.71 0.43,0.43 0.84,0.74 1.24,0.95 l 5.6,-5.6 1.86,1.86 -6.74,6.74 c -0.55,-0.19 -1.16,-0.5 -1.84,-0.93 -0.68,-0.43 -1.32,-0.94 -1.92,-1.55 -0.74,-0.74 -1.28,-1.58 -1.62,-2.51 -0.34,-0.93 -0.43,-1.93 -0.28,-3.01 0.15,-1.07 0.57,-2.21 1.26,-3.41 0.7,-1.19 1.7,-2.44 2.99,-3.73 z"
   id="path306"
   inkscape:connector-curvature="0" />
					<path
   d="m 511.23,419.8 c -0.51,0.54 -0.94,1.06 -1.29,1.58 -0.35,0.52 -0.6,1.03 -0.73,1.54 -0.14,0.51 -0.14,1.01 -0.01,1.5 0.13,0.49 0.44,0.97 0.92,1.46 0.4,0.4 0.83,0.71 1.28,0.93 0.45,0.22 0.8,0.36 1.03,0.43 l -1.1,1.76 c -0.3,-0.06 -0.74,-0.22 -1.3,-0.5 -0.56,-0.28 -1.14,-0.7 -1.71,-1.28 -0.76,-0.76 -1.26,-1.53 -1.5,-2.32 -0.24,-0.79 -0.28,-1.6 -0.1,-2.42 0.17,-0.82 0.53,-1.64 1.08,-2.47 0.55,-0.83 1.24,-1.65 2.07,-2.48 2,-2 3.79,-3.13 5.37,-3.39 1.58,-0.26 2.92,0.15 4.01,1.24 1.23,1.23 1.63,2.56 1.22,3.99 -0.41,1.43 -1.45,2.98 -3.12,4.65 -0.15,0.15 -0.31,0.31 -0.46,0.46 -0.16,0.16 -0.33,0.31 -0.51,0.46 z m 6.51,-2.91 c -0.59,-0.59 -1.32,-0.73 -2.18,-0.4 -0.86,0.32 -1.82,0.95 -2.86,1.89 l 3.29,3.29 c 1.01,-1.01 1.7,-1.9 2.08,-2.7 0.37,-0.8 0.26,-1.49 -0.33,-2.08 z"
   id="path308"
   inkscape:connector-curvature="0" />
					<path
   d="m 526.62,423.29 2.73,2.73 -1.53,1.53 -2.73,-2.73 -5.97,5.97 c -0.74,0.74 -1.13,1.4 -1.16,1.96 -0.03,0.57 0.19,1.07 0.64,1.53 0.23,0.23 0.49,0.42 0.77,0.57 0.28,0.14 0.55,0.24 0.8,0.3 l -1.07,1.78 c -0.9,-0.23 -1.66,-0.67 -2.29,-1.3 -1.02,-1.02 -1.49,-2.07 -1.43,-3.14 0.07,-1.07 0.76,-2.27 2.09,-3.6 l 10.29,-10.29 2.09,1.47 z"
   id="path310"
   inkscape:connector-curvature="0" />
					<path
   d="m 546,435.73 -1.59,1.59 -3.18,-3.18 -12.73,12.73 -1.86,-1.86 12.73,-12.73 -3.18,-3.18 1.59,-1.59 z"
   id="path312"
   inkscape:connector-curvature="0" />
					<path
   d="m 544.83,452.36 c -0.85,0.85 -1.7,1.55 -2.55,2.1 -0.85,0.54 -1.67,0.91 -2.48,1.1 -0.81,0.19 -1.58,0.18 -2.33,-0.02 -0.75,-0.2 -1.45,-0.62 -2.1,-1.27 -0.65,-0.65 -1.07,-1.35 -1.28,-2.11 -0.21,-0.76 -0.22,-1.54 -0.03,-2.35 0.19,-0.81 0.55,-1.63 1.1,-2.48 0.54,-0.85 1.24,-1.7 2.1,-2.55 0.84,-0.84 1.69,-1.54 2.54,-2.09 0.85,-0.55 1.69,-0.92 2.5,-1.12 0.81,-0.19 1.6,-0.19 2.36,0.02 0.76,0.21 1.46,0.63 2.11,1.28 0.65,0.65 1.07,1.35 1.27,2.1 0.2,0.75 0.2,1.53 0.01,2.35 -0.19,0.81 -0.57,1.65 -1.12,2.5 -0.57,0.86 -1.26,1.7 -2.1,2.54 z m -1.86,-1.85 c 0.61,-0.61 1.13,-1.19 1.56,-1.77 0.43,-0.57 0.76,-1.12 0.97,-1.63 0.21,-0.52 0.3,-1 0.25,-1.45 -0.05,-0.45 -0.24,-0.84 -0.59,-1.19 -0.36,-0.36 -0.76,-0.56 -1.2,-0.6 -0.44,-0.04 -0.92,0.04 -1.45,0.25 -0.52,0.21 -1.07,0.53 -1.64,0.96 -0.57,0.43 -1.16,0.95 -1.77,1.56 -0.61,0.61 -1.13,1.19 -1.56,1.77 -0.43,0.57 -0.75,1.12 -0.95,1.63 -0.2,0.52 -0.28,1 -0.24,1.44 0.04,0.44 0.24,0.84 0.6,1.2 0.34,0.34 0.74,0.54 1.19,0.59 0.45,0.05 0.93,-0.03 1.44,-0.24 0.51,-0.21 1.05,-0.53 1.62,-0.96 0.57,-0.44 1.16,-0.96 1.77,-1.56 z"
   id="path314"
   inkscape:connector-curvature="0" />
					<path
   d="m 559.58,456.25 c -1.57,0.41 -3.03,0.76 -4.38,1.05 -1.35,0.29 -2.64,0.53 -3.88,0.72 -0.06,0.72 -0.15,1.49 -0.29,2.32 -0.14,0.83 -0.31,1.66 -0.51,2.49 -0.2,0.83 -0.42,1.65 -0.66,2.44 -0.24,0.79 -0.5,1.52 -0.78,2.18 l -1.94,-1.94 c 0.25,-0.66 0.48,-1.38 0.7,-2.15 0.22,-0.77 0.42,-1.55 0.59,-2.33 0.17,-0.78 0.32,-1.53 0.45,-2.27 0.12,-0.73 0.2,-1.37 0.23,-1.92 l -5.32,5.32 -1.78,-1.78 15.72,-15.72 2.09,1.47 -9.85,9.85 c 0.58,-0.08 1.21,-0.19 1.9,-0.32 0.69,-0.13 1.39,-0.27 2.08,-0.42 0.69,-0.15 1.36,-0.29 2.01,-0.45 0.64,-0.15 1.21,-0.3 1.69,-0.46 z"
   id="path316"
   inkscape:connector-curvature="0" />
					<path
   d="m 556.64,465.22 c -0.51,0.54 -0.94,1.06 -1.29,1.58 -0.35,0.52 -0.6,1.03 -0.73,1.54 -0.14,0.51 -0.14,1.01 -0.01,1.5 0.13,0.49 0.44,0.97 0.92,1.46 0.4,0.4 0.83,0.71 1.28,0.93 0.45,0.22 0.8,0.36 1.03,0.43 l -1.1,1.76 c -0.3,-0.06 -0.74,-0.22 -1.3,-0.5 -0.56,-0.28 -1.14,-0.7 -1.71,-1.28 -0.76,-0.76 -1.26,-1.53 -1.5,-2.32 -0.24,-0.79 -0.28,-1.6 -0.1,-2.42 0.17,-0.82 0.53,-1.64 1.08,-2.47 0.55,-0.83 1.24,-1.65 2.07,-2.48 2,-2 3.79,-3.13 5.37,-3.39 1.58,-0.26 2.92,0.15 4.01,1.24 1.23,1.23 1.63,2.56 1.22,3.99 -0.41,1.43 -1.45,2.98 -3.12,4.65 -0.15,0.15 -0.31,0.31 -0.46,0.46 -0.16,0.16 -0.33,0.31 -0.51,0.46 z m 6.51,-2.92 c -0.59,-0.59 -1.32,-0.73 -2.18,-0.4 -0.86,0.32 -1.81,0.95 -2.86,1.89 l 3.29,3.29 c 1.01,-1.01 1.7,-1.9 2.08,-2.7 0.37,-0.79 0.26,-1.49 -0.33,-2.08 z"
   id="path318"
   inkscape:connector-curvature="0" />
					<path
   d="m 570.07,467.36 c 0.66,0.36 1.34,0.78 2.04,1.27 0.7,0.49 1.29,0.98 1.79,1.48 0.54,0.54 0.95,1.1 1.25,1.68 0.3,0.59 0.43,1.21 0.39,1.86 -0.03,0.65 -0.26,1.36 -0.67,2.12 -0.41,0.76 -1.05,1.57 -1.92,2.44 l -6.55,6.55 -1.78,-1.78 6.41,-6.41 c 1.07,-1.07 1.72,-2 1.94,-2.77 0.22,-0.77 -0.05,-1.54 -0.81,-2.29 -0.4,-0.4 -0.92,-0.78 -1.55,-1.14 l -9.3,9.3 -1.78,-1.78 z"
   id="path320"
   inkscape:connector-curvature="0" />
					<path
   d="m 589.85,493.87 c -1.34,1.34 -2.61,2.33 -3.82,2.98 -1.21,0.65 -2.37,0.99 -3.48,1.04 -1.11,0.05 -2.17,-0.17 -3.18,-0.66 -1.01,-0.49 -1.98,-1.2 -2.9,-2.12 -0.94,-0.94 -1.8,-2.05 -2.6,-3.35 l 13.88,-13.88 c 0.63,0.41 1.23,0.83 1.8,1.26 0.56,0.43 1.07,0.87 1.53,1.32 0.94,0.94 1.65,1.91 2.14,2.92 0.49,1.01 0.71,2.07 0.66,3.18 -0.05,1.11 -0.4,2.27 -1.04,3.48 -0.67,1.22 -1.66,2.5 -2.99,3.83 z m -1.99,-1.98 c 1.02,-1.02 1.81,-1.96 2.38,-2.83 0.56,-0.87 0.92,-1.69 1.05,-2.46 0.14,-0.77 0.05,-1.52 -0.26,-2.24 -0.31,-0.72 -0.82,-1.44 -1.54,-2.16 -0.19,-0.19 -0.39,-0.38 -0.6,-0.56 -0.21,-0.18 -0.43,-0.36 -0.66,-0.54 l -11.16,11.16 c 0.18,0.23 0.36,0.45 0.54,0.66 0.18,0.21 0.36,0.4 0.54,0.58 0.73,0.73 1.45,1.25 2.17,1.55 0.72,0.3 1.46,0.39 2.23,0.27 0.77,-0.12 1.59,-0.47 2.46,-1.03 0.87,-0.57 1.82,-1.37 2.85,-2.4 z"
   id="path322"
   inkscape:connector-curvature="0" />
					<path
   d="m 596.11,493.23 c 0.51,0.21 1.01,0.46 1.5,0.77 0.49,0.31 0.97,0.7 1.44,1.17 0.96,0.96 1.45,2.05 1.46,3.25 0.01,1.21 -0.62,2.44 -1.89,3.71 l -7.19,7.19 c -0.63,-0.36 -1.25,-0.75 -1.85,-1.19 -0.6,-0.43 -1.15,-0.9 -1.64,-1.39 -0.5,-0.5 -0.9,-1.02 -1.21,-1.58 -0.31,-0.56 -0.49,-1.14 -0.54,-1.74 -0.05,-0.6 0.04,-1.21 0.27,-1.82 0.23,-0.61 0.64,-1.22 1.25,-1.83 0.56,-0.56 1.14,-0.97 1.74,-1.22 0.59,-0.25 1.18,-0.36 1.77,-0.34 0.58,0.02 1.16,0.17 1.71,0.43 0.56,0.27 1.08,0.64 1.56,1.13 0.45,0.45 0.9,1.01 1.34,1.67 l 0.99,-0.99 c 0.8,-0.8 1.2,-1.51 1.21,-2.14 0.01,-0.63 -0.28,-1.23 -0.86,-1.81 -0.32,-0.32 -0.65,-0.59 -0.99,-0.81 -0.34,-0.22 -0.74,-0.42 -1.2,-0.6 z m -6.62,8.31 c -0.63,0.63 -0.94,1.27 -0.91,1.9 0.03,0.63 0.34,1.25 0.95,1.86 0.37,0.37 0.83,0.73 1.36,1.07 l 3.45,-3.45 c -0.3,-0.52 -0.65,-0.99 -1.05,-1.38 -0.26,-0.26 -0.54,-0.48 -0.84,-0.65 -0.3,-0.17 -0.6,-0.27 -0.92,-0.3 -0.32,-0.03 -0.64,0.03 -0.98,0.18 -0.33,0.14 -0.68,0.4 -1.06,0.77 z"
   id="path324"
   inkscape:connector-curvature="0" />
					<path
   d="m 606.79,503.46 2.73,2.73 -1.53,1.53 -2.73,-2.73 -5.97,5.97 c -0.74,0.74 -1.13,1.4 -1.16,1.96 -0.03,0.56 0.19,1.07 0.64,1.53 0.23,0.23 0.49,0.42 0.77,0.57 0.28,0.14 0.55,0.24 0.8,0.3 l -1.07,1.78 c -0.9,-0.23 -1.66,-0.67 -2.29,-1.3 -1.02,-1.02 -1.49,-2.07 -1.43,-3.14 0.07,-1.07 0.76,-2.27 2.09,-3.6 l 10.29,-10.29 2.09,1.47 z"
   id="path326"
   inkscape:connector-curvature="0" />
					<path
   d="m 611.71,508.83 c 0.51,0.21 1.01,0.46 1.5,0.77 0.49,0.31 0.97,0.7 1.44,1.17 0.96,0.96 1.45,2.05 1.46,3.25 0.01,1.21 -0.62,2.44 -1.89,3.71 l -7.19,7.19 c -0.63,-0.36 -1.25,-0.75 -1.85,-1.19 -0.6,-0.43 -1.15,-0.9 -1.64,-1.39 -0.5,-0.5 -0.9,-1.02 -1.21,-1.58 -0.31,-0.56 -0.49,-1.14 -0.54,-1.74 -0.05,-0.6 0.04,-1.21 0.27,-1.82 0.23,-0.61 0.64,-1.22 1.25,-1.83 0.56,-0.56 1.14,-0.97 1.74,-1.22 0.59,-0.25 1.18,-0.36 1.77,-0.34 0.58,0.02 1.16,0.17 1.71,0.43 0.56,0.27 1.08,0.64 1.56,1.13 0.45,0.45 0.9,1.01 1.34,1.67 l 0.99,-0.99 c 0.8,-0.8 1.2,-1.51 1.21,-2.14 0.01,-0.63 -0.28,-1.23 -0.86,-1.81 -0.32,-0.32 -0.65,-0.59 -0.99,-0.81 -0.34,-0.22 -0.74,-0.42 -1.2,-0.6 z m -6.62,8.31 c -0.63,0.63 -0.94,1.27 -0.91,1.9 0.03,0.63 0.34,1.25 0.95,1.86 0.37,0.37 0.83,0.73 1.36,1.07 l 3.45,-3.45 c -0.3,-0.52 -0.65,-0.99 -1.05,-1.38 -0.26,-0.26 -0.54,-0.48 -0.84,-0.65 -0.3,-0.17 -0.6,-0.27 -0.92,-0.3 -0.32,-0.03 -0.64,0.03 -0.98,0.18 -0.33,0.14 -0.68,0.4 -1.06,0.77 z"
   id="path328"
   inkscape:connector-curvature="0" />
				</g><g
   id="g362"
   transform="matrix(0.78434333,0,0,0.78434333,-0.13886,-103.05487)">
					<path
   d="m 471.3,426.35 c 1.2,0.73 2.25,1.55 3.15,2.45 0.72,0.72 1.29,1.45 1.7,2.2 0.41,0.75 0.65,1.51 0.71,2.28 0.06,0.77 -0.09,1.56 -0.43,2.35 -0.34,0.8 -0.91,1.59 -1.71,2.4 -1,1 -1.99,1.61 -2.99,1.85 -1,0.23 -1.98,0.19 -2.95,-0.15 -0.11,0.44 -0.28,1.03 -0.5,1.76 -0.22,0.73 -0.48,1.52 -0.79,2.36 -0.3,0.84 -0.63,1.7 -0.99,2.56 -0.35,0.86 -0.72,1.66 -1.09,2.4 l -1.88,-1.88 c 0.26,-0.57 0.54,-1.23 0.84,-1.98 0.3,-0.75 0.58,-1.51 0.85,-2.28 0.27,-0.77 0.52,-1.51 0.75,-2.24 0.23,-0.72 0.41,-1.35 0.55,-1.87 -0.25,-0.19 -0.5,-0.4 -0.75,-0.62 -0.25,-0.22 -0.49,-0.45 -0.73,-0.68 l -0.52,-0.52 -5.6,5.6 -1.83,-1.83 z m -5.2,8.86 0.79,0.79 c 0.95,0.95 1.9,1.47 2.85,1.55 0.95,0.08 1.95,-0.42 3.02,-1.48 0.54,-0.54 0.93,-1.06 1.16,-1.56 0.23,-0.5 0.34,-0.97 0.31,-1.43 -0.03,-0.46 -0.16,-0.9 -0.4,-1.34 -0.24,-0.44 -0.57,-0.86 -0.99,-1.28 -0.36,-0.36 -0.71,-0.67 -1.06,-0.93 z"
   id="path332"
   inkscape:connector-curvature="0" />
					<path
   d="m 473.4,446.95 c -0.51,0.54 -0.94,1.07 -1.3,1.59 -0.35,0.52 -0.6,1.03 -0.74,1.55 -0.14,0.51 -0.14,1.01 -0.01,1.5 0.13,0.49 0.44,0.98 0.92,1.46 0.4,0.4 0.83,0.71 1.29,0.93 0.46,0.22 0.8,0.37 1.04,0.44 l -1.1,1.76 c -0.3,-0.06 -0.74,-0.22 -1.31,-0.5 -0.57,-0.28 -1.14,-0.71 -1.72,-1.29 -0.76,-0.76 -1.26,-1.54 -1.5,-2.33 -0.24,-0.8 -0.28,-1.6 -0.1,-2.43 0.17,-0.82 0.54,-1.65 1.09,-2.48 0.55,-0.83 1.24,-1.66 2.07,-2.49 2,-2 3.8,-3.14 5.39,-3.4 1.59,-0.26 2.93,0.15 4.02,1.24 1.23,1.23 1.64,2.57 1.22,4 -0.42,1.44 -1.46,2.99 -3.13,4.67 -0.15,0.15 -0.31,0.31 -0.47,0.47 -0.16,0.16 -0.33,0.31 -0.51,0.47 z m 6.53,-2.93 c -0.59,-0.59 -1.32,-0.73 -2.19,-0.4 -0.86,0.33 -1.82,0.96 -2.87,1.9 l 3.3,3.3 c 1.01,-1.01 1.7,-1.91 2.08,-2.71 0.38,-0.8 0.28,-1.49 -0.32,-2.09 z"
   id="path334"
   inkscape:connector-curvature="0" />
					<path
   d="m 488.85,450.45 2.74,2.74 -1.53,1.53 -2.74,-2.74 -5.99,5.99 c -0.75,0.75 -1.13,1.4 -1.16,1.97 -0.03,0.57 0.19,1.08 0.64,1.53 0.24,0.24 0.49,0.43 0.78,0.57 0.28,0.15 0.55,0.25 0.8,0.3 l -1.08,1.78 c -0.9,-0.24 -1.67,-0.67 -2.3,-1.31 -1.02,-1.02 -1.5,-2.07 -1.43,-3.15 0.07,-1.08 0.77,-2.28 2.09,-3.61 l 10.33,-10.33 2.09,1.47 z"
   id="path336"
   inkscape:connector-curvature="0" />
					<path
   d="m 490.01,472.77 c -0.25,-0.11 -0.53,-0.26 -0.85,-0.46 -0.32,-0.19 -0.64,-0.41 -0.97,-0.64 -0.33,-0.24 -0.66,-0.48 -0.97,-0.73 -0.32,-0.25 -0.59,-0.49 -0.83,-0.73 -0.57,-0.57 -1.02,-1.15 -1.36,-1.75 -0.34,-0.6 -0.51,-1.23 -0.51,-1.9 0,-0.66 0.2,-1.37 0.59,-2.13 0.39,-0.75 1.03,-1.57 1.9,-2.44 l 6.7,-6.7 1.78,1.78 -6.64,6.64 c -1.06,1.06 -1.65,1.98 -1.76,2.74 -0.11,0.76 0.17,1.47 0.83,2.14 0.22,0.22 0.45,0.43 0.69,0.63 0.24,0.2 0.51,0.38 0.82,0.55 l 9.38,-9.38 1.78,1.78 z"
   id="path338"
   inkscape:connector-curvature="0" />
					<path
   d="m 506.9,471.73 c -0.25,-0.64 -0.65,-1.23 -1.2,-1.78 -0.51,-0.51 -1.08,-0.9 -1.7,-1.16 l -9.29,9.29 -1.78,-1.78 10.41,-10.41 c 0.59,0.21 1.22,0.51 1.87,0.89 0.65,0.39 1.29,0.89 1.91,1.51 0.33,0.33 0.64,0.68 0.93,1.06 0.29,0.37 0.53,0.76 0.71,1.16 z"
   id="path340"
   inkscape:connector-curvature="0" />
					<path
   d="m 510.3,472.52 c 0.66,0.36 1.34,0.78 2.04,1.28 0.7,0.49 1.3,0.99 1.79,1.48 0.54,0.54 0.96,1.1 1.25,1.69 0.3,0.59 0.43,1.21 0.39,1.87 -0.03,0.66 -0.26,1.37 -0.67,2.13 -0.42,0.76 -1.06,1.58 -1.93,2.45 l -6.58,6.58 -1.78,-1.78 6.43,-6.43 c 1.08,-1.08 1.73,-2.01 1.95,-2.78 0.22,-0.77 -0.05,-1.54 -0.81,-2.3 -0.4,-0.4 -0.92,-0.78 -1.56,-1.14 l -9.33,9.33 -1.78,-1.78 z"
   id="path342"
   inkscape:connector-curvature="0" />
					<path
   d="m 535.06,489.7 -1.6,1.6 -3.19,-3.19 -12.78,12.78 -1.87,-1.87 12.78,-12.78 -3.19,-3.19 1.6,-1.6 z"
   id="path344"
   inkscape:connector-curvature="0" />
					<path
   d="m 533.88,506.39 c -0.86,0.86 -1.71,1.56 -2.56,2.11 -0.85,0.55 -1.68,0.91 -2.49,1.1 -0.81,0.19 -1.59,0.18 -2.34,-0.02 -0.75,-0.2 -1.46,-0.63 -2.11,-1.28 -0.65,-0.65 -1.08,-1.36 -1.29,-2.12 -0.21,-0.76 -0.22,-1.55 -0.03,-2.35 0.19,-0.81 0.55,-1.64 1.1,-2.49 0.55,-0.85 1.25,-1.7 2.11,-2.56 0.84,-0.84 1.69,-1.54 2.55,-2.1 0.86,-0.55 1.69,-0.93 2.51,-1.12 0.82,-0.19 1.6,-0.19 2.36,0.02 0.76,0.21 1.47,0.64 2.12,1.29 0.65,0.65 1.08,1.35 1.28,2.11 0.2,0.75 0.2,1.54 0.01,2.35 -0.19,0.82 -0.57,1.65 -1.12,2.51 -0.56,0.86 -1.26,1.71 -2.1,2.55 z m -1.87,-1.86 c 0.61,-0.61 1.13,-1.2 1.57,-1.77 0.44,-0.57 0.76,-1.12 0.97,-1.64 0.21,-0.52 0.3,-1 0.25,-1.45 -0.05,-0.45 -0.25,-0.85 -0.59,-1.19 -0.36,-0.36 -0.76,-0.56 -1.2,-0.6 -0.44,-0.04 -0.93,0.04 -1.45,0.25 -0.53,0.21 -1.08,0.53 -1.65,0.96 -0.57,0.44 -1.17,0.96 -1.77,1.57 -0.61,0.61 -1.13,1.2 -1.57,1.77 -0.44,0.57 -0.75,1.12 -0.95,1.64 -0.2,0.52 -0.28,1 -0.24,1.44 0.04,0.44 0.24,0.84 0.6,1.2 0.35,0.35 0.74,0.54 1.19,0.59 0.45,0.05 0.93,-0.03 1.44,-0.24 0.51,-0.21 1.05,-0.53 1.63,-0.96 0.57,-0.44 1.17,-0.97 1.77,-1.57 z"
   id="path346"
   inkscape:connector-curvature="0" />
					<path
   d="m 548.69,510.29 c -1.58,0.41 -3.04,0.76 -4.4,1.05 -1.35,0.29 -2.65,0.53 -3.9,0.72 -0.06,0.72 -0.15,1.49 -0.29,2.33 -0.14,0.83 -0.31,1.66 -0.51,2.5 -0.2,0.84 -0.42,1.65 -0.67,2.45 -0.24,0.8 -0.5,1.53 -0.78,2.19 l -1.95,-1.95 c 0.25,-0.66 0.49,-1.38 0.71,-2.16 0.22,-0.78 0.42,-1.55 0.59,-2.34 0.17,-0.78 0.32,-1.54 0.45,-2.27 0.12,-0.73 0.2,-1.38 0.23,-1.93 l -5.34,5.34 -1.78,-1.78 15.78,-15.78 2.1,1.47 -9.88,9.88 c 0.58,-0.08 1.21,-0.19 1.91,-0.32 0.7,-0.13 1.39,-0.27 2.09,-0.42 0.7,-0.15 1.37,-0.3 2.01,-0.45 0.65,-0.15 1.21,-0.31 1.69,-0.46 z"
   id="path348"
   inkscape:connector-curvature="0" />
					<path
   d="m 545.75,519.29 c -0.51,0.54 -0.94,1.07 -1.3,1.59 -0.35,0.52 -0.6,1.03 -0.74,1.55 -0.14,0.51 -0.14,1.01 -0.01,1.5 0.13,0.49 0.44,0.98 0.92,1.46 0.4,0.4 0.83,0.71 1.29,0.93 0.46,0.22 0.8,0.37 1.04,0.44 l -1.1,1.76 c -0.3,-0.06 -0.74,-0.22 -1.31,-0.5 -0.57,-0.28 -1.14,-0.71 -1.72,-1.29 -0.76,-0.76 -1.26,-1.54 -1.5,-2.33 -0.24,-0.8 -0.28,-1.6 -0.1,-2.43 0.17,-0.82 0.54,-1.65 1.09,-2.48 0.55,-0.83 1.24,-1.66 2.07,-2.49 2,-2 3.8,-3.14 5.39,-3.4 1.59,-0.26 2.93,0.15 4.02,1.24 1.23,1.23 1.64,2.57 1.22,4 -0.42,1.44 -1.46,2.99 -3.13,4.67 -0.15,0.15 -0.31,0.31 -0.47,0.47 -0.16,0.16 -0.33,0.31 -0.51,0.47 z m 6.53,-2.92 c -0.59,-0.59 -1.32,-0.73 -2.19,-0.4 -0.86,0.33 -1.82,0.96 -2.87,1.9 l 3.3,3.3 c 1.01,-1.01 1.7,-1.91 2.08,-2.71 0.38,-0.8 0.27,-1.5 -0.32,-2.09 z"
   id="path350"
   inkscape:connector-curvature="0" />
					<path
   d="m 559.23,521.45 c 0.66,0.36 1.34,0.78 2.04,1.28 0.7,0.49 1.3,0.99 1.79,1.48 0.54,0.54 0.96,1.1 1.25,1.69 0.3,0.59 0.43,1.21 0.39,1.87 -0.03,0.66 -0.26,1.37 -0.67,2.13 -0.42,0.76 -1.06,1.58 -1.93,2.45 l -6.58,6.58 -1.78,-1.78 6.43,-6.43 c 1.08,-1.08 1.73,-2.01 1.95,-2.78 0.22,-0.77 -0.05,-1.54 -0.81,-2.3 -0.4,-0.4 -0.92,-0.78 -1.56,-1.14 l -9.33,9.33 -1.78,-1.78 z"
   id="path352"
   inkscape:connector-curvature="0" />
					<path
   d="m 579.08,548.06 c -1.34,1.34 -2.62,2.34 -3.84,2.99 -1.22,0.65 -2.38,1 -3.5,1.05 -1.11,0.05 -2.18,-0.17 -3.19,-0.66 -1.02,-0.49 -1.99,-1.2 -2.91,-2.13 -0.94,-0.94 -1.81,-2.06 -2.61,-3.36 l 13.94,-13.94 c 0.64,0.41 1.24,0.84 1.8,1.27 0.57,0.43 1.08,0.87 1.53,1.33 0.94,0.94 1.66,1.92 2.15,2.93 0.49,1.02 0.71,2.08 0.66,3.19 -0.05,1.11 -0.4,2.28 -1.05,3.5 -0.65,1.21 -1.64,2.49 -2.98,3.83 z m -1.99,-1.99 c 1.02,-1.02 1.82,-1.97 2.39,-2.84 0.57,-0.87 0.92,-1.69 1.06,-2.47 0.14,-0.77 0.05,-1.52 -0.26,-2.25 -0.31,-0.73 -0.83,-1.45 -1.55,-2.17 -0.19,-0.19 -0.39,-0.38 -0.6,-0.56 -0.21,-0.18 -0.43,-0.36 -0.66,-0.54 l -11.2,11.2 c 0.18,0.24 0.36,0.46 0.54,0.66 0.18,0.21 0.36,0.4 0.54,0.58 0.73,0.73 1.46,1.25 2.18,1.56 0.72,0.3 1.47,0.39 2.24,0.27 0.77,-0.12 1.6,-0.47 2.47,-1.04 0.86,-0.56 1.81,-1.36 2.85,-2.4 z"
   id="path354"
   inkscape:connector-curvature="0" />
					<path
   d="m 585.36,547.42 c 0.51,0.21 1.01,0.47 1.5,0.78 0.49,0.31 0.97,0.7 1.44,1.17 0.97,0.97 1.46,2.06 1.46,3.27 0.01,1.21 -0.63,2.45 -1.9,3.72 l -7.22,7.22 c -0.64,-0.36 -1.26,-0.76 -1.86,-1.19 -0.6,-0.44 -1.15,-0.9 -1.65,-1.4 -0.5,-0.5 -0.9,-1.03 -1.21,-1.59 -0.31,-0.56 -0.49,-1.14 -0.54,-1.74 -0.05,-0.6 0.04,-1.21 0.27,-1.83 0.23,-0.62 0.65,-1.23 1.26,-1.84 0.57,-0.57 1.15,-0.97 1.74,-1.22 0.59,-0.25 1.19,-0.36 1.77,-0.34 0.59,0.02 1.16,0.17 1.72,0.44 0.56,0.27 1.08,0.65 1.57,1.13 0.46,0.46 0.91,1.02 1.35,1.68 l 1,-1 c 0.8,-0.8 1.21,-1.52 1.21,-2.15 0.01,-0.63 -0.28,-1.23 -0.86,-1.82 -0.32,-0.32 -0.65,-0.59 -1,-0.81 -0.35,-0.22 -0.75,-0.42 -1.2,-0.6 z m -6.63,8.34 c -0.64,0.64 -0.94,1.27 -0.91,1.91 0.03,0.64 0.35,1.26 0.95,1.87 0.37,0.37 0.83,0.73 1.37,1.08 l 3.46,-3.46 c -0.3,-0.53 -0.66,-0.99 -1.06,-1.39 -0.26,-0.26 -0.54,-0.48 -0.84,-0.65 -0.3,-0.17 -0.61,-0.27 -0.92,-0.3 -0.32,-0.03 -0.65,0.03 -0.99,0.18 -0.34,0.13 -0.69,0.39 -1.06,0.76 z"
   id="path356"
   inkscape:connector-curvature="0" />
					<path
   d="m 596.09,557.69 2.74,2.74 -1.53,1.53 -2.74,-2.74 -5.99,5.99 c -0.75,0.75 -1.13,1.4 -1.16,1.97 -0.03,0.57 0.19,1.08 0.64,1.53 0.24,0.24 0.49,0.43 0.78,0.57 0.28,0.15 0.55,0.25 0.8,0.3 l -1.08,1.78 c -0.9,-0.24 -1.67,-0.67 -2.3,-1.31 -1.02,-1.02 -1.5,-2.07 -1.43,-3.15 0.07,-1.08 0.77,-2.28 2.09,-3.61 l 10.33,-10.33 2.09,1.47 z"
   id="path358"
   inkscape:connector-curvature="0" />
					<path
   d="m 601.02,563.08 c 0.51,0.21 1.01,0.47 1.5,0.78 0.49,0.31 0.97,0.7 1.44,1.17 0.97,0.97 1.46,2.06 1.46,3.27 0.01,1.21 -0.63,2.45 -1.9,3.72 l -7.22,7.22 c -0.64,-0.36 -1.26,-0.76 -1.86,-1.19 -0.6,-0.44 -1.15,-0.9 -1.65,-1.4 -0.5,-0.5 -0.9,-1.03 -1.21,-1.59 -0.31,-0.56 -0.49,-1.14 -0.54,-1.74 -0.05,-0.6 0.04,-1.21 0.27,-1.83 0.23,-0.62 0.65,-1.23 1.26,-1.84 0.57,-0.57 1.15,-0.97 1.74,-1.22 0.59,-0.25 1.19,-0.36 1.77,-0.34 0.59,0.02 1.16,0.17 1.72,0.44 0.56,0.27 1.08,0.65 1.57,1.13 0.46,0.46 0.91,1.02 1.35,1.68 l 1,-1 c 0.8,-0.8 1.21,-1.52 1.21,-2.15 0.01,-0.63 -0.28,-1.23 -0.86,-1.82 -0.32,-0.32 -0.65,-0.59 -1,-0.81 -0.35,-0.22 -0.75,-0.42 -1.2,-0.6 z m -6.63,8.34 c -0.64,0.64 -0.94,1.27 -0.91,1.91 0.03,0.64 0.35,1.26 0.95,1.87 0.37,0.37 0.83,0.73 1.37,1.08 l 3.46,-3.46 c -0.3,-0.53 -0.66,-0.99 -1.06,-1.39 -0.26,-0.26 -0.54,-0.48 -0.84,-0.65 -0.3,-0.17 -0.61,-0.27 -0.92,-0.3 -0.32,-0.03 -0.65,0.03 -0.99,0.18 -0.34,0.13 -0.69,0.39 -1.06,0.76 z"
   id="path360"
   inkscape:connector-curvature="0" />
				</g><polygon
   points="489.84,416.55 603.26,529.96 599.76,533.46 615.18,540.9 607.74,525.48 604.24,528.98 490.83,415.56 "
   id="polygon364"
   transform="matrix(0.78434333,0,0,0.78434333,-0.13886,-103.05487)" /><polygon
   points="596.16,589.35 588.72,573.93 585.22,577.42 452.5,444.71 451.51,445.69 584.23,578.41 580.73,581.91 "
   id="polygon366"
   transform="matrix(-0.78434333,0,0,-0.78434333,821.59412,708.00319)" />
</svg>