<svg id="kitty" xmlns="http://www.w3.org/2000/svg" viewBox="0 0 3000 3000" xmlns:xlink="http://www.w3.org/1999/xlink"><g clip-path="url(#kittyClipPath)"><g id="tail"/></g><g clip-path="url(#kittyClipPath)"><g id="bodyFur"><clipPath id="furClipPath"><path d="M1717.4,967.2a241.5,241.5,0,0,1,13.7,36.8l16.7,65.1c7.6,32.4,19.5,65.2,43.6,88.3s53.4,39.9,79.7,60.6c90,71,134.4,191.2,118.8,304.8a216.3,216.3,0,0,0-72.9-76.1,126.4,126.4,0,0,1,25.7,66.1c-17.8-23.2-42.8-40.6-70.5-49.9h0l36,117.2,29.7,96.5,88.4,287.5a248.1,248.1,0,0,1-6.4,155.8l0.8,0.3c47.5,13.8,136.8,46.1,179.8,75.5,26.1,17.8,10.1,55.9-23.2,55.3l-261.5-5.1a246.8,246.8,0,0,1-65.4,28.1h0c2.8,13.3,12.3,21,28.1,21.9,18.2,1,23.7,18.6,24.5,25.5,2.3,21.2-5.8,34.7-27.9,36.9l-91.8,3a53.5,53.5,0,0,1-22.3-4,71.6,71.6,0,0,1-43.1-54.3l-3.5-20.7H1180.9l-5,26.6a71.4,71.4,0,0,1-8.8,23.9c-13.4,22.8-38.9,35.7-65.3,34.1l-84.3-5c-21.4-1.6-31.9-18.9-27.2-40.4,2.5-11.1,15.1-20.3,30.6-21.1,23.3-1.2,30.3-20.2,29.9-43.6l-0.2-3.4q-7-3.7-13.8-7.9L770,2251c-33.3.6-49.7-38.2-23.2-55.3,54-34.9,146.4-69.2,184.5-78.3l0.6-.3a248.9,248.9,0,0,1-12.6-117.5l60-315.5,17.1-89.7,22.2-116.6h0a194.9,194.9,0,0,0-45.8,61.9,195.9,195.9,0,0,1-12.1-91.8c-29,28-43.4,70.4-37.5,110.3-24.9-52.2-30.8-112.6-20.3-169.4s36.8-110.3,72.6-155.7c27.5-34.9,58.2-64.9,83.6-101.2a279.5,279.5,0,0,0,36.4-73.3h0a294.5,294.5,0,0,0,9.2-35.4,240.6,240.6,0,0,1,11.7-40.5l-1.2-.5c-35.7-28.7-68.4-55.4-104.1-84.1-9.7-7.8-20.2-17-21.5-29.4-1.7-17.5,15.7-30.7,32.2-36.6,30.4-10.8,64.3-9.4,95.3-.4a291.9,291.9,0,0,1,85.2,40.3l0.3,0.4a240.6,240.6,0,0,1,71.6-34.3l7.7-2.8c-7.8-12.3-20.7-26.1-41.9-36,0,0,48-47.3,118.7-5,0,0-13.9-74.7-69.4-76.7,0,0,121.4-43.7,189.4,56,0,0,17-35.7,3.3-51,0,0,76.2,25.4,63.8,109.8l8.6,2.6a240.7,240.7,0,0,1,72.7,30.3l3.4-3.1a291.9,291.9,0,0,1,81.5-47.3c30.1-11.5,63.8-15.8,95-7.7,17,4.4,35.4,16.2,35.2,33.7-0.2,12.5-9.8,22.5-18.9,31.1-33.1,31.6-71.5,64-104.6,95.6Z" fill="none"/></clipPath><g clip-path="url(#furClipPath)"><path fill="#d1dadf" d="M683.1 583.8h1554.1v1824.09H683.1z"/><path fill="#ffcf8a" d="M1156.9 2405.5l69.6-379.9c35.5-167.7 117.1-205.2 200.5-206.7h22.4c86.8-1.6 172.6 21 222.1 196.5l63.8 368.3z"/><path fill="#d1dadf" d="M2468.6 1238.1c3.2 0 3.2-5 0-5s-3.2 5 0 5z"/><path fill="#ffcf8a" d="M1580.2 843.5c-56.8 118-99.1 300.2 239.7 295.6l-28.2-59.7-55.7-498.6z"/><path fill="#886662" d="M1167.1 2332.9l-28.1 27.9-44.1 5.8-105.8-10.6v-43.4c14.7-6.8 31.8-12.1 54.1-24.1 13.7-19.3 6.7-109.9 6.7-109.9 19.6-7.9 24.2-11 60.3-11.1s67 7.8 81.9 17.3c4.1 17.1-25 148.1-25 148.1zM1728.1 2331.6l27.6 28.4 44 6.5 97-15 6-45.1c-14.6-7-27.9-4.7-50-17.1-13.4-19.6-4.5-109.6-4.5-109.6-19.6-8.2-24.1-11.4-60.2-12.1s-70.9 8.1-85.9 17.4c-7.4 25 26 146.6 26 146.6z"/><path fill="#ffcf8a" d="M1236.6 849.5c56.8 118 148.9 306.1-228.7 303.6l17.2-67.7 55.7-498.6z"/><path fill="#886662" d="M1603.3 850.4l50.9 36.4 49.3 52.7 49.3 76.6 38.9 63.3c5.2-8.1 1193.7-742.5 1192.5-747.9-2-8.7 0-319.9 0-319.9H1959.8zM1222.2 859.5L818 11.6H18.2v903.2l1046 176.5 38.8-90 28.2-56.9 24.8-29.6 38.3-35.3 27.9-20zM928.3 2106.4s-16 47.7 122.1 147.1l-246 28.9-142.4-48 10.5-40.9zM2025.8 2099.3s-24.5 107.2-129.1 157.2l333.5 4v-80z"/></g></g><g id="shadow" style="mix-blend-mode:multiply"><defs><clipPath id="shadowClipPath"><path d="M1717.4,967.2a241.5,241.5,0,0,1,13.7,36.8l16.7,65.1c7.6,32.4,19.5,65.2,43.6,88.3s53.4,39.9,79.7,60.6c90,71,134.4,191.2,118.8,304.8a216.3,216.3,0,0,0-72.9-76.1,126.4,126.4,0,0,1,25.7,66.1c-17.8-23.2-42.8-40.6-70.5-49.9h0l36,117.2,29.7,96.5,88.4,287.5a248.1,248.1,0,0,1-6.4,155.8l0.8,0.3c47.5,13.8,136.8,46.1,179.8,75.5,26.1,17.8,10.1,55.9-23.2,55.3l-261.5-5.1a246.8,246.8,0,0,1-65.4,28.1h0c2.8,13.3,12.3,21,28.1,21.9,18.2,1,23.7,18.6,24.5,25.5,2.3,21.2-5.8,34.7-27.9,36.9l-91.8,3a53.5,53.5,0,0,1-22.3-4,71.6,71.6,0,0,1-43.1-54.3l-3.5-20.7H1180.9l-5,26.6a71.4,71.4,0,0,1-8.8,23.9c-13.4,22.8-38.9,35.7-65.3,34.1l-84.3-5c-21.4-1.6-31.9-18.9-27.2-40.4,2.5-11.1,15.1-20.3,30.6-21.1,23.3-1.2,30.3-20.2,29.9-43.6l-0.2-3.4q-7-3.7-13.8-7.9L770,2251c-33.3.6-49.7-38.2-23.2-55.3,54-34.9,146.4-69.2,184.5-78.3l0.6-.3a248.9,248.9,0,0,1-12.6-117.5l60-315.5,17.1-89.7,22.2-116.6h0a194.9,194.9,0,0,0-45.8,61.9,195.9,195.9,0,0,1-12.1-91.8c-29,28-43.4,70.4-37.5,110.3-24.9-52.2-30.8-112.6-20.3-169.4s36.8-110.3,72.6-155.7c27.5-34.9,58.2-64.9,83.6-101.2a279.5,279.5,0,0,0,36.4-73.3h0a294.5,294.5,0,0,0,9.2-35.4,240.6,240.6,0,0,1,11.7-40.5l-1.2-.5c-35.7-28.7-68.4-55.4-104.1-84.1-9.7-7.8-20.2-17-21.5-29.4-1.7-17.5,15.7-30.7,32.2-36.6,30.4-10.8,64.3-9.4,95.3-.4a291.9,291.9,0,0,1,85.2,40.3l0.3,0.4a240.6,240.6,0,0,1,71.6-34.3l7.7-2.8c-7.8-12.3-20.7-26.1-41.9-36,0,0,48-47.3,118.7-5,0,0-13.9-74.7-69.4-76.7,0,0,121.4-43.7,189.4,56,0,0,13-40.7-.7-56,0,0,80.2,30.4,67.8,114.8l8.6,2.6a240.7,240.7,0,0,1,72.7,30.3l3.4-3.1a291.9,291.9,0,0,1,81.5-47.3c30.1-11.5,63.8-15.8,95-7.7,17,4.4,35.4,16.2,35.2,33.7-0.2,12.5-9.8,22.5-18.9,31.1-33.1,31.6-71.5,64-104.6,95.6Z" fill="none"/></clipPath><linearGradient id="shadowGradient" x1="1180.91" y1="2153.98" x2="1714.46" y2="2153.98" gradientUnits="userSpaceOnUse"><stop offset="0" stop-color="gray"/><stop offset=".27" stop-color="#7d7d7d"/><stop offset=".46" stop-color="#747474"/><stop offset=".64" stop-color="#646464"/><stop offset=".8" stop-color="#4d4d4d"/><stop offset=".95" stop-color="#303030"/><stop offset="1" stop-color="#242424"/></linearGradient><linearGradient id="shadowGradient2" x1="1698.67" y1="781.55" x2="1698.67" y2="918.52" gradientTransform="matrix(-.98 .19 .19 .98 2599.64 -240.56)" gradientUnits="userSpaceOnUse"><stop offset="0" stop-color="gray"/><stop offset=".14" stop-color="#797979"/><stop offset=".35" stop-color="#646464"/><stop offset=".6" stop-color="#434343"/><stop offset=".89" stop-color="#141414"/><stop offset="1"/></linearGradient><linearGradient id="shadowGradient3" x1="967.21" y1="1454.12" x2="967.21" y2="2254.41" href="#shadowGradient" xlink:href="#shadowGradient"/><linearGradient id="shadowGradient4" x1="1971.82" y1="1970.17" x2="1971.82" y2="2305.13" href="#shadowGradient" xlink:href="#shadowGradient"/><linearGradient id="shadowGradient5" x1="712.25" y1="955.89" x2="712.25" y2="1092.86" gradientTransform="rotate(8.1 1951.22123894 7715.31858407)" href="#shadowGradient2" xlink:href="#shadowGradient2"/><linearGradient id="shadowGradient6" x1="1085.95" y1="963.75" x2="1293.19" y2="963.75" href="#shadowGradient" xlink:href="#shadowGradient"/><linearGradient id="shadowGradient7" x1="969.11" y1="1470.94" x2="1062.29" y2="1470.94" href="#shadowGradient" xlink:href="#shadowGradient"/><linearGradient id="shadowGradient8" x1="912.44" y1="1442.16" x2="989.13" y2="1442.16" href="#shadowGradient" xlink:href="#shadowGradient"/><linearGradient id="shadowGradient9" x1="1296.49" y1="775.18" x2="1404.91" y2="775.18" href="#shadowGradient" xlink:href="#shadowGradient"/><linearGradient id="shadowGradient10" x1="1474.19" y1="771.29" x2="1513.42" y2="771.29" href="#shadowGradient" xlink:href="#shadowGradient"/><linearGradient id="shadowGradient11" x1="1235.56" y1="826.93" x2="1306.12" y2="826.93" href="#shadowGradient" xlink:href="#shadowGradient"/></defs><path fill="none" d="M1.8 0H3001.8V3000H1.8z"/><g clip-path="url(#shadowClipPath)"><path d="M1213.2,2110.7c-22.2,91.8,60.8,117.5,83.2,119.2,41.2,3.1,203.6,5.6,287.7-7.9,43.8-7,109.2-65.4,87.3-196.3l43,256.8H1180.9Z" opacity=".2" fill="url(#shadowGradient)" style="mix-blend-mode:multiply"/><path d="M1050.7,1454.1s0.1,2.1.4,5.9a840.4,840.4,0,0,1-6.6,161.1c-17.7,128.4-31.5,243.2-39.3,305.8a909.6,909.6,0,0,0-6.8,98.4v3.4c23.5,26,47.6,88.8,52.6,176.8l1.3,49s-31.3-.8-81-0.8c-62,0-110.8-111.7-79.2-278.2,28.4-149.5,80.7-435.8,80.7-435.8S995.5,1484.1,1050.7,1454.1Z" opacity=".2" fill="url(#shadowGradient3)" style="mix-blend-mode:multiply"/><path d="M1854.3,2157.4s29.9-91.4,66.3-124.9c-39.4,75,14.1,92.7,28.1,87.7,53.7-19.2,75-66.7,79.2-150l65.3,116.3s-55,256-204,214l-38.7-18.1Z" opacity=".2" fill="url(#shadowGradient4)" style="mix-blend-mode:multiply"/><path d="M1173.5,887s-88.1-44.3-139.7-28.2c-25,7.8-32,21.9-30.2,37.8,10.8,12.7,29.8,13.9,40.1,29.4,25.8,26.5,71.4,56.2,71.4,56.2l23.8-47.8Z" opacity=".4" fill="url(#shadowGradient2)" style="mix-blend-mode:multiply"/><path d="M1651.1,875.6s86-48.2,138.3-34.4c25.3,6.7,32.9,20.4,31.9,36.4-10.2,13.1-29.2,15.3-38.7,31.2-24.6,27.7-68.8,59.4-68.8,59.4l-26-46.6Z" opacity=".4" fill="url(#shadowGradient5)" style="mix-blend-mode:multiply"/><path d="M1293.2,863.8s-138.6,62.4-207.2,228.5c0,0,22.2-217.5,195.8-257.1Z" opacity=".2" fill="url(#shadowGradient6)" style="mix-blend-mode:multiply"/><path d="M969.1,1536.9c4.2-40.3,20.5-67.8,47.6-97.8,7.3-8,45.5-34.1,45.5-34.1s-3.4,39.7-9,47.6c-7.8,11.2-21.1,13.1-32.8,20.2s-17.7,20.8-26.3,31.3" opacity=".2" fill="url(#shadowGradient7)" style="mix-blend-mode:multiply"/><path d="M919.5,1556.8c-7.4-38.7-10.4-78.8-2.2-117.4s39.7-89,71.8-111.9c-24.5,65.1-25.7,91.7-34.5,133.2" opacity=".2" fill="url(#shadowGradient8)" style="mix-blend-mode:multiply"/><path d="M1296.5,714.6c31.1-.1,60.6,17.5,79.5,42.3,16.2,21.3,25.1,47.3,28.9,73.9a4.3,4.3,0,0,1-7.3,3.6c-7-7.3-14.7-14.9-23.1-21.1a97.9,97.9,0,0,1-27-30.4,2.4,2.4,0,0,0-1.9-1.3c-2.1-.1-0.2,2.8.2,1.5" opacity=".2" fill="url(#shadowGradient9)" style="mix-blend-mode:multiply"/><path d="M1474.2,743.5a212.7,212.7,0,0,1,7.4,81.7,3.3,3.3,0,0,0,6.1,2.2c7-10.6,13.8-20.8,19.4-32.2a59.9,59.9,0,0,0-29.2-81.4" opacity=".2" fill="url(#shadowGradient10)" style="mix-blend-mode:multiply"/><path d="M1235.6,789.8c18.1-4,38.2-.6,52.6,11.1s21.8,32.2,16.1,49.8c-2.1,6.6-6.6,13.1-13.3,14.9-7.4-16.8-11-37.8-27.4-46.2" opacity=".2" fill="url(#shadowGradient11)" style="mix-blend-mode:multiply"/></g></g><g id="highlight" style="mix-blend-mode:overlay"><defs><clipPath id="highlightClipPath"><path d="M1717.4,967.2a241.5,241.5,0,0,1,13.7,36.8l16.7,65.1c7.6,32.4,19.5,65.2,43.6,88.3s53.4,39.9,79.7,60.6c90,71,134.4,191.2,118.8,304.8a216.3,216.3,0,0,0-72.9-76.1,126.4,126.4,0,0,1,25.7,66.1c-17.8-23.2-42.8-40.6-70.5-49.9h0l36,117.2,29.7,96.5,88.4,287.5a248.1,248.1,0,0,1-6.4,155.8l0.8,0.3c47.5,13.8,136.8,46.1,179.8,75.5,26.1,17.8,10.1,55.9-23.2,55.3l-261.5-5.1a246.8,246.8,0,0,1-65.4,28.1h0c2.8,13.3,12.3,21,28.1,21.9,18.2,1,23.7,18.6,24.5,25.5,2.3,21.2-5.8,34.7-27.9,36.9l-91.8,3a53.5,53.5,0,0,1-22.3-4,71.6,71.6,0,0,1-43.1-54.3l-3.5-20.7H1180.9l-5,26.6a71.4,71.4,0,0,1-8.8,23.9c-13.4,22.8-38.9,35.7-65.3,34.1l-84.3-5c-21.4-1.6-31.9-18.9-27.2-40.4,2.5-11.1,15.1-20.3,30.6-21.1,23.3-1.2,30.3-20.2,29.9-43.6l-0.2-3.4q-7-3.7-13.8-7.9L770,2251c-33.3.6-49.7-38.2-23.2-55.3,54-34.9,146.4-69.2,184.5-78.3l0.6-.3a248.9,248.9,0,0,1-12.6-117.5l60-315.5,17.1-89.7,22.2-116.6h0a194.9,194.9,0,0,0-45.8,61.9,195.9,195.9,0,0,1-12.1-91.8c-29,28-43.4,70.4-37.5,110.3-24.9-52.2-30.8-112.6-20.3-169.4s36.8-110.3,72.6-155.7c27.5-34.9,58.2-64.9,83.6-101.2a279.5,279.5,0,0,0,36.4-73.3h0a294.5,294.5,0,0,0,9.2-35.4,240.6,240.6,0,0,1,11.7-40.5l-1.2-.5c-35.7-28.7-68.4-55.4-104.1-84.1-9.7-7.8-20.2-17-21.5-29.4-1.7-17.5,15.7-30.7,32.2-36.6,30.4-10.8,64.3-9.4,95.3-.4a291.9,291.9,0,0,1,85.2,40.3l0.3,0.4a240.6,240.6,0,0,1,71.6-34.3l7.7-2.8c-7.8-12.3-20.7-26.1-41.9-36,0,0,48-47.3,118.7-5,0,0-13.9-74.7-69.4-76.7,0,0,121.4-43.7,189.4,56,0,0,13-40.7-.7-56,0,0,80.2,30.4,67.8,114.8l8.6,2.6a240.7,240.7,0,0,1,72.7,30.3l3.4-3.1a291.9,291.9,0,0,1,81.5-47.3c30.1-11.5,63.8-15.8,95-7.7,17,4.4,35.4,16.2,35.2,33.7-0.2,12.5-9.8,22.5-18.9,31.1-33.1,31.6-71.5,64-104.6,95.6Z" fill="none"/></clipPath><linearGradient id="highlightGradient" x1="1982.83" y1="2256.39" x2="1982.83" y2="1456.14" gradientUnits="userSpaceOnUse"><stop offset="0" stop-color="#fff" stop-opacity="0"/><stop offset=".72" stop-color="#fff"/></linearGradient><linearGradient id="highlightGradient2" x1="1676.83" y1="1173.88" x2="1676.83" y2="834.22" href="#highlightGradient" xlink:href="#highlightGradient"/><linearGradient id="highlightGradient3" x1="908.88" y1="1853.92" x2="1039" y2="1853.92" href="#highlightGradient" xlink:href="#highlightGradient"/><linearGradient id="highlightGradient4" x1="2116.32" y1="2248.97" x2="2116.32" y2="2113.28" href="#highlightGradient" xlink:href="#highlightGradient"/><linearGradient id="highlightGradient5" x1="1044.74" y1="2253.08" x2="1044.74" y2="2117.39" gradientTransform="matrix(-1 0 0 1 1878.82 0)" href="#highlightGradient" xlink:href="#highlightGradient"/><linearGradient id="highlightGradient6" x1="1793.84" y1="905.71" x2="1793.84" y2="719.86" gradientTransform="rotate(-43.1 1804.48754992 883.27524864)" href="#highlightGradient" xlink:href="#highlightGradient"/><linearGradient id="highlightGradient7" x1="1388.35" y1="547.46" x2="1388.35" y2="361.61" gradientTransform="matrix(-.7 -.71 -.71 .7 2379.32 1527.44)" href="#highlightGradient" xlink:href="#highlightGradient"/><linearGradient id="highlightGradient8" x1="1791.24" y1="1299.2" x2="2064.4" y2="1299.2" href="#highlightGradient" xlink:href="#highlightGradient"/><linearGradient id="highlightGradient9" x1="1854.92" y1="1450.16" x2="1941.81" y2="1450.16" href="#highlightGradient" xlink:href="#highlightGradient"/></defs><g clip-path="url(#highlightClipPath)" opacity=".3"><path d="M1886.6,1468.5c56.9,249.1,235.5,405.7,252.9,497.1,21.8,114.7-96.5,75.8-117.2,147.7-9.5,32.9-72.5,107.6-72.5,107.6l-61.1,35.5s127.4-81.3,81.2-286c-19.5-86.7-79-277.4-111.6-379.9q-18.6-58.4-31.3-118.3-1.6-7.5-3.5-16" fill="url(#highlightGradient)" style="mix-blend-mode:overlay"/><path d="M1682.7,915.9c-20.7-36.8-78.6-66.4-129.5-81.7l-9,14.9s58.8,19.7,82.5,49.4l4.1,5c7.9,9.3,40.8,52.9,96.8,193.7,12.2,30.8,56.9,51.2,79.7,75.2C1828,1194.5,1701.7,949.7,1682.7,915.9Z" fill="url(#highlightGradient2)"/><path d="M1039,1462.1l-12.2,8.1-25,16.7s-141,524.6-75.7,624c0,0,42.1,98.3,110.7,134.9-66.7-90.9-116.7-144.9-96.7-256.9S1039,1462.1,1039,1462.1Z" fill="url(#highlightGradient3)"/><path d="M1999.2,2162.4s113.2,21.1,98.4,83.6l92.6,3,43.3-6.5-4.3-68.5-206.8-60.7Z" fill="url(#highlightGradient4)"/><path d="M951.2,2166.5s-113.2,21.1-98.4,83.6l-92.6,3-43.3-6.5,4.3-68.5,206.8-60.7Z" opacity=".7" fill="url(#highlightGradient5)"/><path d="M1632.5,868.9s75-44.5,115.2-47c43.6-2.6,70.4-2,85.9,39,11.7,31,36.1-11.5,36.1-11.5l-52.5-90-204,80Z" fill="url(#highlightGradient6)"/><path d="M1187.5,883.7s-61-40.2-101-44.3c-43.4-4.5-70.2-5-87.5,35.3-13,30.4-35.6-13.1-35.6-13.1l56.3-87.7,200.4,88.7Z" fill="url(#highlightGradient7)"/><path d="M1791.2,1167.2c106.3,83.4,177.8,209.7,194.8,343.8,1,8.1,3.2,17.8,10.9,20.2s14.1-3.7,18.9-9.4c19.4-23.4,30-52.9,37.1-82.4,16.5-68.3,16-141.6-8-207.7s-72.5-124.2-136.4-153.5c-19.8-9.1-42.7-15.4-63.2-8" fill="url(#highlightGradient8)" style="mix-blend-mode:overlay"/><path d="M1855.7,1407.2a2.5,2.5,0,0,1,3.2-3.9c5,3.3,9.9,6.6,15,9.6,17.1,10.2,34.6,20.6,47.5,35.8,5,5.9,28.5,42.7,17.5,48.1s-29.3-32.2-34.7-37.6C1888.1,1443.3,1872.8,1423.7,1855.7,1407.2Z" fill="url(#highlightGradient9)" style="mix-blend-mode:overlay"/></g></g><g id="bodyMask"><path d="M1717.4,967.2a241.5,241.5,0,0,1,13.7,36.8l16.7,65.1c7.6,32.4,19.5,65.2,43.6,88.3s53.4,39.9,79.7,60.6c90,71,134.4,191.2,118.8,304.8a216.3,216.3,0,0,0-72.9-76.1,126.4,126.4,0,0,1,25.7,66.1c-17.8-23.2-42.8-40.6-70.5-49.9h0l36,117.2,29.7,96.5,88.4,287.5a248.1,248.1,0,0,1-6.4,155.8l0.8,0.3c47.5,13.8,136.8,46.1,179.8,75.5,26.1,17.8,10.1,55.9-23.2,55.3l-261.5-5.1a246.8,246.8,0,0,1-65.4,28.1h0c2.8,13.3,12.3,21,28.1,21.9,18.2,1,23.7,18.6,24.5,25.5,2.3,21.2-5.8,34.7-27.9,36.9l-91.8,3a53.5,53.5,0,0,1-22.3-4,71.6,71.6,0,0,1-43.1-54.3l-3.5-20.7H1180.9l-5,26.6a71.4,71.4,0,0,1-8.8,23.9c-13.4,22.8-38.9,35.7-65.3,34.1l-84.3-5c-21.4-1.6-31.9-18.9-27.2-40.4,2.5-11.1,15.1-20.3,30.6-21.1,23.3-1.2,30.3-20.2,29.9-43.6l-0.2-3.4q-7-3.7-13.8-7.9L770,2251c-33.3.6-49.7-38.2-23.2-55.3,54-34.9,146.4-69.2,184.5-78.3l0.6-.3a248.9,248.9,0,0,1-12.6-117.5l60-315.5,17.1-89.7,22.2-116.6h0a194.9,194.9,0,0,0-45.8,61.9,195.9,195.9,0,0,1-12.1-91.8c-29,28-43.4,70.4-37.5,110.3-24.9-52.2-30.8-112.6-20.3-169.4s36.8-110.3,72.6-155.7c27.5-34.9,58.2-64.9,83.6-101.2a279.5,279.5,0,0,0,36.4-73.3h0a294.5,294.5,0,0,0,9.2-35.4,240.6,240.6,0,0,1,11.7-40.5l-1.2-.5c-35.7-28.7-68.4-55.4-104.1-84.1-9.7-7.8-20.2-17-21.5-29.4-1.7-17.5,15.7-30.7,32.2-36.6,30.4-10.8,64.3-9.4,95.3-.4a291.9,291.9,0,0,1,85.2,40.3l0.3,0.4a240.6,240.6,0,0,1,71.6-34.3l7.7-2.8c-7.8-12.3-20.7-26.1-41.9-36,0,0,48-47.3,118.7-5,0,0-13.9-74.7-69.4-76.7,0,0,121.4-43.7,189.4,56,0,0,17-35.7,3.3-51,0,0,76.2,25.4,63.8,109.8l8.6,2.6a240.7,240.7,0,0,1,72.7,30.3l3.4-3.1a291.9,291.9,0,0,1,81.5-47.3c30.1-11.5,63.8-15.8,95-7.7,17,4.4,35.4,16.2,35.2,33.7-0.2,12.5-9.8,22.5-18.9,31.1-33.1,31.6-71.5,64-104.6,95.6Z" fill="none"/></g><g id="body"><path d="M1850.5 2273.9c130.6-34.8 214.8-171.9 175.8-309.9l-153.4-498.9M1180.9 2282.4L1714.5 2282.4M1016.8 1486.8l-97.5 512.7c-14.2 107.9 42.3 207 131.5 254.1M1018.5 1477.8L1016.8 1486.8" fill="none" stroke="#31323d" stroke-linecap="round" stroke-miterlimit="10" stroke-width="12.5"/><path d="M1228.6,2040.8c-1.7,15.3-3.8,30.4-6,45.6l-3.5,22.7-3.8,22.6c-2.6,15.1-5.4,30.1-8.1,45.2l-8.3,45.1-16.6,90.3a76.3,76.3,0,0,1-3.5,12.1,77.5,77.5,0,0,1-5.4,11.4,75.5,75.5,0,0,1-16,19.4,78.7,78.7,0,0,1-45.9,18.8l-6.3.2h-6.1l-11.5-.7-22.9-1.3-45.8-2.8h-4.7l-1.8-.3a44.1,44.1,0,0,1-6.7-1.7,35.7,35.7,0,0,1-12.3-7.3,34.7,34.7,0,0,1-8.3-11.7,40.4,40.4,0,0,1-3.1-13.5,50.7,50.7,0,0,1,1-13.2l0.2-.8v-1.7l0.3-1.1a26.9,26.9,0,0,1,1.5-3.6,30.2,30.2,0,0,1,4.1-6.2,37.9,37.9,0,0,1,11-8.8,45.9,45.9,0,0,1,12.7-4.5,49,49,0,0,1,6.6-.9l2.7-.2,2.1-.3a22,22,0,0,0,4.3-1.2,18.5,18.5,0,0,0,3.8-1.9c4.6-3,7.7-8.4,9.4-14.8a70.5,70.5,0,0,0,1.8-20.8l-0.9-22.9-1.9-45.9c-0.6-15.3-1.3-30.6-1.8-45.9v0.5c-0.6-5-1.3-9.9-2-14.9-0.4-2.5-.8-4.9-1.2-7.4s-0.9-4.9-1.4-7.3-1-4.9-1.6-7.3-1.2-4.8-1.8-7.2q-1.9-7.2-4.4-14.2c-0.8-2.3-1.7-4.6-2.6-6.9s-1.8-4.6-2.9-6.8l-1.5-3.4-1.6-3.3-1.7-3.3-1.8-3.3-1.8-3.2-1.9-3.2-4-6.3c-1.4-2.1-2.8-4.1-4.3-6.2l-2.2-3-2.3-3h0a2.2,2.2,0,0,1,3.4-2.9l5.4,5.6q2.6,2.9,5.1,5.9c1.7,2,3.3,4,4.8,6.1l2.3,3.2,2.2,3.2c1.5,2.2,2.9,4.3,4.2,6.6l2,3.4,1.9,3.4q1.9,3.4,3.5,7c1.1,2.4,2.2,4.7,3.2,7.2q3,7.2,5.4,14.7c1.6,5,3,10,4.2,15q0.9,3.8,1.7,7.6c0.5,2.5,1.1,5.1,1.5,7.6,0.9,5.1,1.7,10.2,2.4,15.3v0.5c0.9,15.3,1.6,30.6,2.4,45.8l2.3,45.8,1.1,22.9a94.4,94.4,0,0,1-.1,12.3,71.8,71.8,0,0,1-1.9,12.5,54.5,54.5,0,0,1-2,6.3,42.8,42.8,0,0,1-3.1,6.2,33.3,33.3,0,0,1-9.8,10.4,35.1,35.1,0,0,1-13.2,5.3l-3.5.5-3,.2a35,35,0,0,0-4.7.6,31.9,31.9,0,0,0-8.8,3.2,23.9,23.9,0,0,0-6.9,5.5,16.1,16.1,0,0,0-2.2,3.3,13,13,0,0,0-1.2,3.7,36.6,36.6,0,0,0-.7,9.6,26.2,26.2,0,0,0,2,8.7,20.4,20.4,0,0,0,4.9,6.9,21.4,21.4,0,0,0,7.3,4.3,30.1,30.1,0,0,0,4.4,1.1l1,0.2h3.9l45.8,2.7,22.9,1.4,11.5,0.7h10.5a64.5,64.5,0,0,0,37.6-15.2,61.4,61.4,0,0,0,13.1-15.7,65,65,0,0,0,7.4-19.2l17.4-90.1,8.7-45.1c2.9-15,5.8-30,8.8-45l4.7-22.5,5-22.4c3.4-14.9,7-29.8,11-44.6A2.2,2.2,0,0,1,1228.6,2040.8Z" fill="#31323d"/><path d="M1095.2 2319.6h-.5l-1.7.2a18.6 18.6 0 0 0-5.8 2 22.5 22.5 0 0 0-6.7 5.5 30.2 30.2 0 0 0-2.9 4 38.9 38.9 0 0 0-2.4 4.6l-.5 1.2-.5 1.2-.5 1.2-.4 1.3c-.5 1.7-.9 3.4-1.3 5l-.5 2.4c-.2.8-.3 1.6-.4 2.4s-.4 3-.6 4.4-.2 2.6-.3 3.7-.1 2.1-.2 2.9v2.7a6.3 6.3 0 1 1-12.5-.6 6.9 6.9 0 0 1 .1-.8l.5-2.7c.2-.9.3-1.9.6-3.1s.5-2.6.9-4.1.8-3.1 1.3-4.8l.8-2.6.9-2.7c.7-1.8 1.4-3.7 2.3-5.5l.6-1.4.7-1.4.7-1.4.8-1.4a46.9 46.9 0 0 1 3.6-5.2 37.5 37.5 0 0 1 4.2-4.5 28.8 28.8 0 0 1 9.4-5.8 23.9 23.9 0 0 1 7.7-1.5h3.1A2.2 2.2 0 1 1 1095.2 2319.6zM1052.7 2314.9h-.6l-1.6.4-2.5.9-.7.3-.8.4-1.6.9-1.7 1.1-1.7 1.3-.9.7-.8.8-1.6 1.7-1.5 2-.7 1-.6 1.1-1.3 2.2-1.1 2.4c-.3.8-.7 1.6-1 2.4l-.8 2.5-.8 2.4-.6 2.5a42.3 42.3 0 0 0-1 4.7l-.6 4.3a35.4 35.4 0 0 0-.3 3.7l-.2 2.8-.2 2.5v.4a6.3 6.3 0 1 1-12.5-.8 6.9 6.9 0 0 1 .1-.8l.5-2.7.6-3.1c.3-1.2.4-2.5.9-4l1.3-4.7a51.3 51.3 0 0 1 1.8-5.2l1-2.7 1.3-2.7 1.3-2.7c.5-.9 1.1-1.8 1.6-2.7l1.7-2.6 1.9-2.4.9-1.2 1.1-1.1 2.1-2.1 2.2-1.8 1.1-.9 1.2-.7 2.2-1.4 2.2-1.1 2.1-.8 1-.4 1-.3a26.5 26.5 0 0 1 3.2-.7l2.2-.2h.8A2.2 2.2 0 1 1 1052.7 2314.9zM1673.7 2025.2l2.2 9.4c1.4 6.1 3.4 15.1 5.8 26.6 1.2 5.7 2.5 12.1 3.9 19l4.4 22.5 4.8 25.6 5 28.4 23.3 135.3c1.1 6.1 2 12.8 3.6 17.8a63.3 63.3 0 0 0 7.2 15.7 65.1 65.1 0 0 0 25.9 23.4l4.1 1.9 1.1.4 1 .4 2 .7a45.4 45.4 0 0 0 8.4 1.7l4.3.3h4.6l10-.3 40.1-1.4 39.4-1.2 2.5-.3 1.2-.2.9-.2 1.9-.4 1.9-.6a21.7 21.7 0 0 0 6.5-3.5 17 17 0 0 0 4.3-5.4c.2-.6.6-1.1.7-1.7l.6-1.8a30.4 30.4 0 0 0 .8-3.9 37.8 37.8 0 0 0 .4-4.1c0-.7 0-1.4 0-2.1s0-1.4-.1-2.2l-.2-2.2v-.3a.3.3 0 1 1 0-.1v-1.6l-.2-.8-.2-.9c-.1-.6-.4-1.3-.6-1.9-1.7-5-4.7-9.3-8.4-11.7a17.3 17.3 0 0 0-6.4-2.3l-1.8-.2-2.6-.2h-1.2l-1.5-.2-2.9-.5a39.5 39.5 0 0 1-10.9-4.2 30.1 30.1 0 0 1-9.1-8 34 34 0 0 1-5.3-10.4 47.2 47.2 0 0 1-1.9-10.7c-.1-.9-.1-1.7-.1-2.6s0-1.8 0-2.6v-4.6l.2-9.1.8-35.4.2-8.6v-3.7c0-.8 0-.4 0-.6v-.3l.3-4.2.3-4.2c.1-1.4.2-2.7.4-4.2l1-8.4a250.4 250.4 0 0 1 6.4-31.5 277 277 0 0 1 9.1-28l2.7-6.4c.9-2.1 1.7-4.2 2.7-6.2l2.8-5.9c.9-1.9 1.8-3.9 2.8-5.7l2.9-5.4 1.4-2.6 1.5-2.5 2.9-4.9c.9-1.6 1.8-3.2 2.8-4.7l5.6-8.7 5.4-7.7 2.6-3.5 2.5-3.2c1.6-2.1 3.1-4.1 4.6-5.8l4.1-4.9 3.5-4 6.6-7.1a2.2 2.2 0 0 1 3.4 2.8h0l-5.6 7.8c-3.6 5.1-8.8 12.6-14.9 22.5l-4.7 7.8-4.8 8.8c-.9 1.5-1.7 3.1-2.5 4.7l-2.5 4.9-1.3 2.5-1.2 2.6-2.5 5.4a290.9 290.9 0 0 0-17.7 50.6l-.9 3.6-.4 1.8-.4 1.8-1.5 7.4-.4 1.9-.3 1.9-.6 3.8-.6 3.9-.3 1.9-.2 1.9-.9 7.8c-.2 1.3-.2 2.7-.3 4.1l-.3 4.2-.3 4.2v.3c0-.1 0 .5 0-.1v12.3l-.5 35.4v13.7c0 .8 0 1.4 0 2.1s0 1.4.1 2a33.7 33.7 0 0 0 1.4 7.5 20.3 20.3 0 0 0 3.2 6.2c2.7 3.6 6.9 5.8 12 6.9l1.8.3.9.2h1.2l2.2.2 3 .3a31.3 31.3 0 0 1 11.7 4.2 31.8 31.8 0 0 1 9 8.5 40.3 40.3 0 0 1 5.4 10.5c.3.9.6 1.8.8 2.8l.4 1.4.3 1.6v2.9l.2 2.7c.1.9.1 1.8.1 2.8s.1 1.8 0 2.8a52 52 0 0 1-.5 5.7 44.4 44.4 0 0 1-1.2 5.8l-1 2.9c-.3 1-.8 1.9-1.3 2.9a31.3 31.3 0 0 1-7.9 10.1 35.8 35.8 0 0 1-10.9 6l-2.8.9-3 .7-1.5.3-1.3.2-2.5.3h-5.7l-5 .2-10 .4-20.1.7-40.1 1.3-10 .3h-5.4l-5.6-.4a59.7 59.7 0 0 1-11-2.3l-2.7-.9-1.4-.5-1.2-.5-4.9-2.3a79.2 79.2 0 0 1-31.4-28.6 77.2 77.2 0 0 1-8.7-19.2l-.7-2.6-.3-1.3c-.1-.4-.2-.9-.3-1.3l-.5-2.3-.2-1.2v-1.4l-1.5-9.3-22-135.6-4.5-28.5-3.8-25.7-3.2-22.7c-1-7-1.8-13.4-2.5-19.3-1.5-11.6-2.5-20.8-3.2-27.1l-1-9.6A2.2 2.2 0 0 1 1673.7 2025.2z" fill="#31323d"/><path d="M1783.2 2307.4h3.2a34.8 34.8 0 0 1 8 1.7 33.5 33.5 0 0 1 5.1 2.1 34.2 34.2 0 0 1 5.3 3.3 37.9 37.9 0 0 1 5 4.5c.7.9 1.5 1.7 2.2 2.7l1 1.4 1 1.5a46.8 46.8 0 0 1 3.3 6.1 56.5 56.5 0 0 1 2.4 6.2c.4 1 .6 2 .9 3s.5 2 .7 2.9l.6 2.8.4 2.6c.3 1.7.4 3.2.6 4.6s.3 2.5.3 3.5l.2 3.1a6.3 6.3 0 0 1-12.5.8 6.4 6.4 0 0 1 0-.7v-.3l.2-2.7c.1-.9.1-1.9.1-3.1s.1-2.6 0-4v-2.3l-.2-2.4c-.1-.8-.2-1.7-.3-2.5s-.2-1.8-.4-2.6a47.1 47.1 0 0 0-1.3-5.3 38.1 38.1 0 0 0-2.1-5.2l-.6-1.3-.7-1.2c-.4-.8-1-1.6-1.5-2.3a30.5 30.5 0 0 0-3.5-4.1 29.3 29.3 0 0 0-8-5.5 29.5 29.5 0 0 0-6.6-2.2l-1.9-.3h-.7A2.2 2.2 0 0 1 1783.2 2307.4zM1833.8 2304.2h3.2a34.8 34.8 0 0 1 8 1.7 33.5 33.5 0 0 1 5.1 2.1 34.2 34.2 0 0 1 5.3 3.3 37.9 37.9 0 0 1 5 4.5c.7.9 1.5 1.7 2.2 2.7l1 1.4 1 1.5a46.8 46.8 0 0 1 3.3 6.1 56.6 56.6 0 0 1 2.4 6.2c.4 1 .6 2 .9 3s.5 2 .7 2.9l.6 2.8.4 2.6c.3 1.7.4 3.2.6 4.6s.3 2.5.3 3.5l.2 3.1a6.3 6.3 0 1 1-12.5.1v-.3l.2-2.7c.1-.9.1-1.9.1-3.1s.1-2.6 0-4v-2.3l-.2-2.4c-.1-.8-.2-1.7-.3-2.5s-.2-1.8-.4-2.6a47.1 47.1 0 0 0-1.3-5.3 38 38 0 0 0-2.1-5.2l-.6-1.3-.7-1.2c-.4-.8-1-1.6-1.5-2.3a30.5 30.5 0 0 0-3.5-4.1 29.3 29.3 0 0 0-8-5.5 29.5 29.5 0 0 0-6.6-2.2l-1.9-.3h-.7A2.2 2.2 0 0 1 1833.8 2304.2z" fill="#31323d"/><path d="M931.3,2117.4c-38.1,9.1-130.4,43.4-184.5,78.3-26.5,17.1-10.1,55.9,23.2,55.3l280.4-5.5" fill="none" stroke="#31323d" stroke-linecap="round" stroke-miterlimit="10" stroke-width="12.5"/><path d="M840.5 2200.1l-.7.2-2 .6-3.1 1-4 1.5-4.5 2.1a49.4 49.4 0 0 0-4.7 2.8 36 36 0 0 0-4.4 3.5 26.3 26.3 0 0 0-3.7 4.2l-.8 1.1-.7 1.2a21.4 21.4 0 0 0-1.1 2.4c-.2.4-.3.8-.4 1.2a8.9 8.9 0 0 0-.3 1.2 18.1 18.1 0 0 0-.4 2.4v1.2c0 .4 0 .8 0 1.2v1.2c0 .4.1.8.1 1.2a15.6 15.6 0 0 0 .3 2.2c.2.7.3 1.4.5 2.1a36.6 36.6 0 0 0 1.2 3.6 29.8 29.8 0 0 0 1.2 2.8l1.2 2.4.2.3a6.3 6.3 0 0 1-11.3 5.5l-.3-.7-1.1-3.1c-.4-1-.7-2.2-1.1-3.7a48 48 0 0 1-1-4.9c-.1-.9-.2-1.9-.3-2.9a24.9 24.9 0 0 1-.1-3.2c0-.5 0-1.1 0-1.7l.2-1.7c.1-.6.1-1.2.2-1.7l.4-1.8a27.7 27.7 0 0 1 1-3.5 16.1 16.1 0 0 1 .7-1.7l.8-1.7a30.5 30.5 0 0 1 2-3.2l1.1-1.5 1.2-1.4a34.5 34.5 0 0 1 5.4-4.9 43.4 43.4 0 0 1 5.8-3.6 56.1 56.1 0 0 1 5.7-2.6l5.2-1.8 4.4-1.2 3.5-.7 2.3-.3h.8a2.2 2.2 0 0 1 .8 4.4h-.1zM793 2202.1h-.6l-1.7.5a38.1 38.1 0 0 0-5.9 2.5 32.6 32.6 0 0 0-3.6 2.2 29.2 29.2 0 0 0-3.5 2.9 23.5 23.5 0 0 0-2.9 3.7 18.7 18.7 0 0 0-2 4.2 21.2 21.2 0 0 0-.6 2.2c-.1.8-.3 1.5-.3 2.3a24.7 24.7 0 0 0 .1 4.6 34.5 34.5 0 0 0 .8 4.3c.4 1.4.7 2.7 1.2 3.9l.6 1.7.7 1.5.6 1.3.6 1.1 1.1 2.1v.2a6.3 6.3 0 0 1-11.2 5.6l-.3-.8-.9-2.7-.5-1.4-.5-1.7-.5-1.9c-.2-.7-.3-1.4-.5-2.2s-.6-3.3-.8-5.1a44.7 44.7 0 0 1-.2-5.9 34.2 34.2 0 0 1 .8-6.3c.2-1.1.6-2.1.9-3.2a29.7 29.7 0 0 1 1.3-3.1 26.9 26.9 0 0 1 3.6-5.6 31 31 0 0 1 4.5-4.3 35.8 35.8 0 0 1 4.8-3 38.6 38.6 0 0 1 4.6-2 43.3 43.3 0 0 1 7.1-2l2-.3h.8a2.2 2.2 0 0 1 .8 4.4H793z" fill="#31323d"/><path d="M2020.7,2120.2c47.5,13.8,136.8,46.1,179.8,75.5,26.1,17.8,10.1,55.9-23.2,55.3l-261.6-5.1" fill="none" stroke="#31323d" stroke-linecap="round" stroke-miterlimit="10" stroke-width="12.5"/><path d="M2107.6 2193.7h.8l2.3.4 3.5.8 4.5 1.4 5.2 2a58.4 58.4 0 0 1 5.6 2.8 45.8 45.8 0 0 1 5.7 3.8 36.7 36.7 0 0 1 5.3 5.1l1.2 1.5 1.1 1.6a31 31 0 0 1 1.9 3.3c.3.6.5 1.2.8 1.7s.5 1.2.7 1.8l.6 1.8.3.9.2.9a26.4 26.4 0 0 1 .6 3.5 25.1 25.1 0 0 1 .2 3.4 42.1 42.1 0 0 1-.4 6.2 50.3 50.3 0 0 1-1 5c-.4 1.5-.7 2.8-1.1 3.7l-1.1 3.2a6.3 6.3 0 0 1-11.8-4.1l.3-.7.2-.3 1.2-2.4c.4-.8.7-1.7 1.2-2.8s.8-2.3 1.2-3.7a31.5 31.5 0 0 0 .8-4.4 15.7 15.7 0 0 0 .1-2.4 16.7 16.7 0 0 0-.1-2.5V2224l-.2-1.3c-.1-.4-.2-.8-.4-1.3a12.8 12.8 0 0 0-.4-1.3 21.8 21.8 0 0 0-1.1-2.5l-.7-1.2-.8-1.2a28.5 28.5 0 0 0-3.7-4.4 38.4 38.4 0 0 0-4.4-3.8 51.5 51.5 0 0 0-4.7-3l-4.5-2.3a66.6 66.6 0 0 0-7.1-2.9l-2-.6-.7-.2h-.1A2.2 2.2 0 0 1 2107.6 2193.7zM2155.1 2195.7h.8l2.1.4a44.7 44.7 0 0 1 7.1 2.4 40.4 40.4 0 0 1 4.5 2.3 38.2 38.2 0 0 1 4.7 3.3 33.1 33.1 0 0 1 4.4 4.5 30 30 0 0 1 4.8 8.8c.4 1.1.6 2.2.9 3.2s.4 2.2.6 3.3.3 2.2.2 3.2.1 2.1 0 3.1l-.2 2.9c-.3 1.8-.5 3.6-.8 5.2l-.5 2.3-.6 2-.5 1.8-.5 1.4-.9 2.7a6.3 6.3 0 0 1-11.8-4.1l.3-.7v-.3l1.1-2.2.6-1.2.6-1.4.7-1.6.6-1.7c.5-1.2.8-2.6 1.2-4l.4-2.2c.2-.7.2-1.5.3-2.3s.1-1.5.1-2.3-.1-1.6-.1-2.4-.2-1.6-.3-2.4a20.2 20.2 0 0 0-.6-2.3 20.6 20.6 0 0 0-2-4.4 25.7 25.7 0 0 0-2.9-3.9 31.5 31.5 0 0 0-3.5-3.2 34.4 34.4 0 0 0-3.6-2.4 39.4 39.4 0 0 0-5.9-2.9l-1.7-.6-.6-.2H2154A2.2 2.2 0 0 1 2155.1 2195.7zM1288.7 864.1l-1.9-4.8-1-2.4-1-2.3-2.3-4.6-2.4-4.4-1.3-2.2-1.3-2.1-1.3-2.1-1.4-2.1c-.9-1.4-1.9-2.7-2.9-4s-2.1-2.6-3.2-3.8l-1.6-1.9-1.7-1.8-3.6-3.5-3.7-3.3-3.9-3.1-2-1.5-2.1-1.4-4.2-2.8-2.1-1.3-2.2-1.3-4.4-2.5-.8-.5a6.1 6.1 0 0 1-2.1-8.3 6.3 6.3 0 0 1 1.1-1.4h0l.9-.9.8-.7 1.7-1.4 3.4-2.6q3.5-2.5 7.1-4.7a101.1 101.1 0 0 1 15.3-7.4 98.2 98.2 0 0 1 33.2-6.6 106 106 0 0 1 33.4 4.7q4 1.2 7.9 2.7t7.7 3.2c2.5 1.1 5 2.4 7.5 3.7l3.6 2 3.6 2.1-9.4 6.5-.3-1.5-.4-1.6-.8-3.2q-.9-3.2-1.9-6.4c-1.4-4.2-2.9-8.4-4.7-12.5a106.9 106.9 0 0 0-13.1-22.8 64.2 64.2 0 0 0-18.7-16.9 50.6 50.6 0 0 0-23.6-6.7h0a6.2 6.2 0 0 1-1.8-12.1l3.4-1.1 3.3-1 6.6-1.7q6.7-1.6 13.4-2.8a217.1 217.1 0 0 1 27.2-3 195.4 195.4 0 0 1 27.4.6 170.2 170.2 0 0 1 27.1 4.7q6.7 1.7 13.2 4c4.3 1.5 8.6 3.3 12.8 5.2s8.3 4 12.3 6.4 7.9 4.8 11.6 7.5c1.9 1.3 3.7 2.8 5.5 4.2s3.6 2.9 5.3 4.4c3.5 3 6.8 6.3 10 9.5s6.2 6.8 9.1 10.4 5.6 7.3 8.2 11.1l-10.8.8 1.2-2.8 1.2-2.9c.8-2 1.4-4 2.1-6a83.6 83.6 0 0 0 2.9-12.1 42.4 42.4 0 0 0 .4-11.6 20.8 20.8 0 0 0-1.2-5 13 13 0 0 0-2.3-3.8h0a6.2 6.2 0 0 1 6.6-10.1h.1l1.5.5 1.3.5 2.6 1 5 2.2c3.3 1.6 6.5 3.3 9.6 5.1a113.6 113.6 0 0 1 17.5 12.9q4.1 3.7 7.8 7.8a95.7 95.7 0 0 1 6.9 8.6 94.1 94.1 0 0 1 10.7 19.3 100.9 100.9 0 0 1 3.5 10.5 98.6 98.6 0 0 1 2.3 10.8 104.1 104.1 0 0 1 1.1 10.9c.2 3.6.1 7.3 0 10.9s-.5 7.2-1 10.8c-.3 1.8-.5 3.6-.9 5.3s-.8 3.5-1.2 5.2a81.7 81.7 0 0 1-3.5 10.1c-.7 1.6-1.5 3.2-2.3 4.8s-1.7 3.1-2.7 4.6a2.6 2.6 0 0 1-4.7-1.5h0c0-1.8.2-3.5.4-5.2s.3-3.4.5-5.1l1.1-9.9c.2-1.6.4-3.3.5-4.9s.2-1.6.3-2.4l.2-2.4c.3-3.2.5-6.5.5-9.7s-.1-6.4-.3-9.6a93.1 93.1 0 0 0-1.3-9.5 84.7 84.7 0 0 0-2.2-9.2 86.9 86.9 0 0 0-3.2-8.9 94 94 0 0 0-4.2-8.5 84.6 84.6 0 0 0-5.1-8 93.8 93.8 0 0 0-5.9-7.4q-3.2-3.6-6.7-6.8c-2.3-2.2-4.8-4.2-7.3-6.2s-5.2-3.8-7.9-5.6-5.5-3.4-8.3-5l-4.3-2.2-2.2-1-1.1-.5-.9-.4 6.7-10.1h0a25.5 25.5 0 0 1 4.6 7.6 33.2 33.2 0 0 1 2 8 54.6 54.6 0 0 1-.5 15.1 96 96 0 0 1-3.4 13.9q-1.1 3.4-2.3 6.7l-1.3 3.3-1.5 3.4a6.2 6.2 0 0 1-10.7 1h-.1c-2.4-3.5-4.9-7-7.6-10.3s-5.5-6.5-8.4-9.6-6-6-9.2-8.8c-1.6-1.4-3.2-2.7-4.9-4.1s-3.3-2.6-5.1-3.8a136.2 136.2 0 0 0-45.8-21.2 157.7 157.7 0 0 0-25.2-4.3 182.9 182.9 0 0 0-25.7-.5 204.7 204.7 0 0 0-25.6 2.9q-6.4 1.1-12.6 2.6l-6.2 1.6-3 .9-2.9.9-1.9-12.1a69.4 69.4 0 0 1 7.7.7 61.3 61.3 0 0 1 7.6 1.6 59.6 59.6 0 0 1 7.3 2.6 61.6 61.6 0 0 1 6.9 3.4 70.1 70.1 0 0 1 12.3 9 85.8 85.8 0 0 1 10.1 11.1 119.3 119.3 0 0 1 14.6 25.4q2.9 6.7 5.1 13.6 1.1 3.5 2.1 7l.9 3.5.4 1.8.4 1.9a6.2 6.2 0 0 1-9.2 6.6h-.1l-3.3-1.9-3.3-1.8-6.8-3.4-7-2.9-7.1-2.5a93.5 93.5 0 0 0-29.5-4.2 85.7 85.7 0 0 0-29 5.8 88.7 88.7 0 0 0-13.4 6.5c-2.1 1.3-4.2 2.6-6.2 4.1l-2.9 2.2-1.4 1.1-.6.6-.5.5-1.8-10.1 5.2 2.3c1.7.9 3.4 1.7 5.1 2.6s3.3 1.9 4.9 3l2.4 1.6 2.3 1.7c1.6 1.1 3 2.4 4.5 3.6s2.9 2.5 4.3 3.9 2.7 2.8 4 4.2l1.9 2.2 1.8 2.3c1.2 1.5 2.3 3.1 3.4 4.7s2.1 3.3 3 4.9l1.4 2.5 1.3 2.6c.8 1.7 1.6 3.5 2.2 5.3s1.2 3.6 1.7 5.5a55.7 55.7 0 0 1 1.2 5.6c.1 1 .3 1.9.4 2.8s.2 1.9.2 2.9a36 36 0 0 1-.1 5.9 2.5 2.5 0 0 1-4.9.6v-.2z" fill="#31323d"/><path d="M1202.2 872a291.9 291.9 0 0 0-85.2-40.3c-31-9-64.9-10.4-95.3.4-16.5 5.9-33.9 19.1-32.2 36.6 1.2 12.4 11.7 21.6 21.5 29.4 35.7 28.7 68.4 55.4 104.1 84.1M1630.4 862.1a291.9 291.9 0 0 1 81.5-47.3c30.1-11.5 63.8-15.8 95-7.7 17 4.4 35.4 16.2 35.2 33.7-.2 12.5-9.8 22.5-18.9 31.1-33.1 31.6-71.5 64-104.6 95.6" fill="none" stroke="#31323d" stroke-linecap="round" stroke-linejoin="round" stroke-width="12.5"/><path d="M1054.6 1454.8l-6 4.6-5.8 4.6-5.7 4.7-5.5 4.9-5.4 5-5.2 5.1-5.1 5.2-4.9 5.4-4.7 5.6-4.6 5.7-4.3 5.8-4.2 6-4 6.1-3.8 6.2-3.6 6.3-3.5 6.4-1.3 2.3a5.5 5.5 0 0 1-10.2-2.7h0l-2.1-5.7-1.9-5.7-1.8-5.8-1.6-5.8-1.4-5.9-1.2-5.9-1.1-5.9-.9-6-.7-6-.5-6-.3-6-.2-6v-6l.2-6 .4-6 .6-6 10.6 5.2-5 5.1-4.7 5.4-4.3 5.7-4 6-3.6 6.2-3.3 6.4-2.9 6.6-2.5 6.7-2.1 6.9-1.7 7-1.3 7.1-.9 7.1-.5 7.2v7.2l.4 7.2.8 7.1v.2a6.2 6.2 0 0 1-11.9 3.4 271.4 271.4 0 0 1-18.2-51.9 294.6 294.6 0 0 1-7.4-54.4 309.9 309.9 0 0 1 2.8-54.8c.3-2.3.7-4.5 1.1-6.8l.6-3.4.3-1.7v-.9l.2-.8c.9-4.4 1.7-8.7 2.8-13.3l1.6-6.7 1.8-6.6c1.1-4.4 2.6-8.8 3.9-13.1a359.1 359.1 0 0 1 20.9-50.6 389.7 389.7 0 0 1 28-46.9c1.3-1.9 2.6-3.7 4-5.6l4-5.5c2.8-3.6 5.5-7.3 8.4-10.8l8.6-10.5 8.7-10.3c11.7-13.7 23.7-27 35.2-40.6q8.7-10.2 16.8-20.7c5.4-7 10.7-14.1 15.6-21.4s9.4-14.8 13.4-22.5 7.9-15.7 11.2-23.8 6.3-16.4 9-24.7 4.8-16.9 6.6-25.5l.7-3.2.3-1.7.4-1.6 1.4-6.6c1.1-4.5 2.2-9.1 3.5-13.4a238.3 238.3 0 0 1 9.2-26 259.7 259.7 0 0 1 12-24.8 256.9 256.9 0 0 1 14.8-23.3 235.7 235.7 0 0 1 17.3-21.5A248 248 0 0 1 1272.4 832a6.2 6.2 0 0 1 3.5 12h-.1a234.8 234.8 0 0 0-109.5 68.8 223.3 223.3 0 0 0-16.4 20.4 244.5 244.5 0 0 0-14 22.1 247.1 247.1 0 0 0-11.4 23.6 225.8 225.8 0 0 0-8.7 24.7c-1.3 4.2-2.3 8.4-3.3 12.6l-1.4 6.6-.4 1.6-.3 1.6-.7 3.4c-1.9 8.9-4.2 17.8-6.9 26.6s-5.8 17.4-9.4 25.8-7.4 16.8-11.7 24.9-9 15.9-14.1 23.7-10.5 14.9-16.1 22.1-11.3 14.2-17.1 21.1c-11.7 13.8-23.7 27.1-35.3 40.7l-8.6 10.2-8.4 10.3c-2.8 3.4-5.4 7-8.1 10.5l-3.9 5.4c-1.3 1.8-2.6 3.6-3.8 5.4a377.3 377.3 0 0 0-27.1 45.4 346.6 346.6 0 0 0-20.1 48.8c-1.3 4.2-2.7 8.4-3.8 12.6l-1.7 6.4-1.5 6.3c-1.1 4.2-1.9 8.7-2.8 13l-.2.8v.4h0v.2l-.3 1.6L908 1395c-.3 2.2-.8 4.3-1 6.5a297.4 297.4 0 0 0-2.7 52.5 282.2 282.2 0 0 0 7.1 52 259 259 0 0 0 17.3 49.5l-11.8 3.6-.9-7.9-.4-7.9v-7.9l.5-7.9 1-7.9 1.5-7.8 1.9-7.7 2.3-7.6 2.8-7.4 3.2-7.2 3.6-7.1 4-6.8 4.4-6.6 4.8-6.3 5.2-6 5.5-5.7a6.2 6.2 0 0 1 10.6 4.9v.3l-.5 5.6-.4 5.6-.2 5.6v5.7l.2 5.7.3 5.6.5 5.6.7 5.6.8 5.6 1 5.6 1.2 5.5 1.3 5.5 1.5 5.5 1.6 5.4 1.8 5.4 2 5.3L967 1537l3.2-7.1 3.6-6.9 3.9-6.8 4.2-6.6 4.5-6.4 4.8-6.1 5-5.9 5.3-5.7 5.5-5.5 5.8-5.2 6-4.9 6.2-4.6 6.5-4.3 6.7-3.9 6.9-3.6 7-3A2.5 2.5 0 0 1 1054.6 1454.8zM1555.8 828.9l6.6 1.7 3.3.9 3.4 1 6.7 2.1 3.3 1.1 3.3 1.2a236.4 236.4 0 0 1 25.6 10.8 246.5 246.5 0 0 1 46.7 29.8 242.7 242.7 0 0 1 38.9 39.4 245.1 245.1 0 0 1 39.6 72.8c.7 2.2 1.5 4.4 2.2 6.6l1 3.3.5 1.7.3.8v1l3.4 13.1 13.4 52.5c.5 2.2 1 4.4 1.6 6.5s1.1 4.2 1.7 6.4 1.2 4.3 1.8 6.4 1.3 4.2 2 6.3a193.5 193.5 0 0 0 9.8 24.3 132.6 132.6 0 0 0 13.5 22 113.4 113.4 0 0 0 8.3 9.7l2.2 2.3.6.6h.2l.3.3 1.2 1.2 2.5 2.3 2.4 2.2c6.5 5.8 13.5 11.3 20.6 16.6s14.5 10.4 21.9 15.6 14.8 10.4 22.1 15.9l5.5 4.2 2.8 2.2 2.6 2.1 5.2 4.3 5.2 4.6a308.5 308.5 0 0 1 37.8 40.2 327.3 327.3 0 0 1 30.4 46c1.1 2 2.2 4 3.2 6.1l3.2 6.1 3 6.2 1.5 3.1 1.4 3.2 2.8 6.3 2.6 6.4c1.8 4.2 3.3 8.6 4.9 12.9a351 351 0 0 1 20 107.9 351.4 351.4 0 0 1-3 55 6.2 6.2 0 0 1-11.5 2.4h-.1l-3.3-5.6-3.4-5.5-3.6-5.4-3.8-5.2-3.9-5.1-4.1-5-4.3-4.9-4.4-4.7-4.5-4.6-4.7-4.5-4.8-4.3-4.9-4.2-5.1-4-5.2-3.8-5.3-3.7-5.4-3.5 8.3-9.1 2.8 3.8 2.7 3.9 2.5 4 2.4 4.1 2.2 4.1 2.1 4.2 1.9 4.3 1.8 4.4 1.6 4.4 1.5 4.5 1.3 4.5 1.2 4.6 1 4.6.8 4.6.7 4.7.5 4.7h0a6.2 6.2 0 0 1-10.8 4.8l-.4-.5-5.4-6.2-5.7-5.9-6-5.6-6.3-5.3-6.5-5-6.8-4.6-7-4.3-7.2-3.9-7.5-3.5-7.6-3.2-7.8-2.8-7.9-2.4-8.1-2.1-8.2-1.7-8.3-1.3-8.4-1h-.2a2.5 2.5 0 0 1 .1-5l8.8-.9h8.9l8.9.5 8.8 1.2 8.8 1.8 8.6 2.4 8.5 3 8.3 3.5 8.1 4 7.8 4.5 7.5 4.9 7.2 5.4 6.8 5.9 6.4 6.3 6 6.7 5.5 7.2-11.2 4.3h0l-.4-4.2-.6-4.2-.7-4.2-.9-4.2-1-4.1-1.2-4.1-1.3-4.1-1.5-4-1.6-4-1.8-3.9-1.9-3.8-2-3.8-2.2-3.7-2.3-3.6-2.4-3.5-2.5-3.4v-.2a6.2 6.2 0 0 1 8.4-8.9l5.7 3.7 5.6 3.9 5.5 4.1 5.4 4.2 5.2 4.4 5.1 4.6 5 4.7 4.8 4.9 4.7 5 4.5 5.2 4.3 5.3 4.2 5.4 4 5.6 3.8 5.7 3.7 5.8 3.5 5.9-11.6 2.2a338.9 338.9 0 0 0 2.9-53 338.5 338.5 0 0 0-19.3-104c-1.5-4.2-3-8.3-4.7-12.4l-2.5-6.2-2.7-6.1-1.3-3-1.4-3-2.9-6-3-5.9c-1-2-2-3.9-3.1-5.9a314.8 314.8 0 0 0-29.2-44.2l-4.1-5.2-4.3-5c-2.8-3.4-5.9-6.6-8.9-9.9-1.5-1.6-3.1-3.2-4.6-4.8s-3.1-3.2-4.7-4.7c-3.2-3-6.4-6.2-9.7-9l-4.9-4.3-5.2-4.3-2.6-2.1-2.5-2-5.3-4c-7.1-5.3-14.4-10.5-21.8-15.7-14.8-10.4-29.7-20.8-43.7-33.1l-2.6-2.3-2.5-2.3-1.2-1.2-.7-.6-.6-.6-2.5-2.5a125.9 125.9 0 0 1-9.3-10.8 145.1 145.1 0 0 1-14.7-24.1c-8.3-16.8-13.7-34.6-17.9-52.4l-13.4-52.3-3.4-13.1-1.8-6.2c-.6-2.1-1.4-4.2-2.1-6.3a232.6 232.6 0 0 0-37.6-69.1 230.2 230.2 0 0 0-37-37.4 234 234 0 0 0-44.4-28.3 223.9 223.9 0 0 0-24.3-10.2l-3.1-1.1-3.1-1-6.3-1.9-3.1-.9-3.2-.9-6.6-1.7A6.2 6.2 0 0 1 1555.8 828.9z" fill="#31323d"/></g></g><g id="eye"><defs><linearGradient id="eyeColor1" x2="0%" y2="100%"><stop offset="0%" stop-color="#Fa9fff"/></linearGradient><linearGradient id="eyeColor2" x2="0%" y2="100%"><stop offset="0%" stop-color="#Fa9fff"/></linearGradient></defs><defs><clipPath id="eyeClipPath"><circle cx="1696" cy="1101.3" r="129.7" transform="rotate(-68.1 1696.37388916 1101.3227275)" fill="#fff" stroke="#31323d" stroke-linecap="round" stroke-miterlimit="10" stroke-width="10"/></clipPath><clipPath id="eyeClipPath2"><circle cx="1168.9" cy="1127" r="129.7" transform="rotate(-23.1 1170.57230332 1127.99609272)" fill="#fff" stroke="#31323d" stroke-linecap="round" stroke-miterlimit="10" stroke-width="10"/></clipPath></defs><path fill="none" d="M3000 3010L0 3000 0 0 3000 10 3000 3010z"/><circle cx="1696" cy="1101.3" r="129.7" transform="rotate(-68.1 1696.37388916 1101.3227275)" fill="#fff"/><g clip-path="url(#eyeClipPath)"><circle cx="1686.2" cy="1102.4" r="105.1" fill="url(#eyeColor1)"/><circle cx="1682.8" cy="1103.5" r="83" transform="rotate(-83.2 1682.21022125 1103.59307204)" fill="#31323d"/><circle cx="1738.2" cy="1045.5" r="44.2" transform="rotate(-83.2 1737.6065591 1045.62246994)" fill="#fff"/></g><circle cx="1696" cy="1101.3" r="129.7" transform="rotate(-68.1 1696.37388916 1101.3227275)" fill="none" stroke="#31323d" stroke-linecap="round" stroke-miterlimit="10" stroke-width="10"/><path d="M1763.9 938.4c-69.4-36-117.5-25.9-164.1 24M1109.8 968.4c69.4-36 117.5-25.9 164.1 24" fill="none" stroke="#31323d" stroke-linecap="round" stroke-miterlimit="10" stroke-width="30"/><circle cx="1168.9" cy="1127" r="129.7" transform="rotate(-23.1 1170.57230332 1127.99609272)" fill="#fff"/><g clip-path="url(#eyeClipPath2)"><circle cx="1180.2" cy="1126.6" r="105.1" transform="rotate(-7.5 1185.37964878 1131.12230357)" fill="url(#eyeColor2)"/><circle cx="1177.2" cy="1128.5" r="83" transform="rotate(-7.5 1182.94109102 1133.26086132)" fill="#31323d"/><circle cx="1216.4" cy="1058.6" r="44.2" transform="rotate(-7.5 1222.01945732 1063.0398658)" fill="#fff"/></g><circle cx="1168.9" cy="1127" r="129.7" transform="rotate(-23.1 1170.57230332 1127.99609272)" fill="none" stroke="#31323d" stroke-linecap="round" stroke-miterlimit="10" stroke-width="10"/><path d="M1795.8 1183.6a129.4 129.4 0 0 1-207-9.8s38.7-10.9 103.5-7.4S1795.8 1183.6 1795.8 1183.6zM1068.9 1209.7a129.4 129.4 0 0 0 207-9.8s-38.7-10.9-103.5-7.4S1068.9 1209.7 1068.9 1209.7z" fill="#d1dadf"/><path d="M1795.8 1183.6a129.4 129.4 0 0 1-207-9.8s38.7-10.9 103.5-7.4S1795.8 1183.6 1795.8 1183.6zM1068.9 1209.7a129.4 129.4 0 0 0 207-9.8s-38.7-10.9-103.5-7.4S1068.9 1209.7 1068.9 1209.7z" fill="none" stroke="#31323d" stroke-linecap="round" stroke-miterlimit="10" stroke-width="10"/></g><g id="mouth"><path d="M1447.7,1246.4l1.6,2.5c1.1,1.7,2.8,4.1,4.9,7.2,4.4,6.2,10.9,14.9,19.4,24.8,4.2,4.9,9,10.2,14.2,15.5s10.9,10.8,17.1,16a204.3,204.3,0,0,0,19.8,15.1,151.6,151.6,0,0,0,22.3,12.5,115.9,115.9,0,0,0,11.9,4.6,100.2,100.2,0,0,0,12.2,3.2,86.4,86.4,0,0,0,24.4,1.2,85.4,85.4,0,0,0,22.4-5.2,98,98,0,0,0,18.5-9.5,121.3,121.3,0,0,0,14.2-10.7l2.9-2.5,2.6-2.5,2.4-2.3,2.1-2.2,3.5-3.7,2.5-2.8,2.1-2.4h0a1.8,1.8,0,0,1,2.7,2.3l-2,2.5-2.4,3-3.4,3.9-2.1,2.3-2.4,2.4-2.6,2.7-2.9,2.7a126.2,126.2,0,0,1-14.3,11.7,103.7,103.7,0,0,1-19.2,10.8,92.1,92.1,0,0,1-23.9,6.6,94,94,0,0,1-26.6-.3,108.6,108.6,0,0,1-13.4-2.9,124.9,124.9,0,0,1-13-4.4,161.3,161.3,0,0,1-24.3-12.3,215.1,215.1,0,0,1-21.5-15c-6.7-5.3-12.8-10.7-18.5-16s-10.8-10.6-15.4-15.5c-9.2-9.9-16.3-18.7-21.2-25-2.4-3.1-4.3-5.7-5.5-7.4l-1.4-2-0.5-.7a7.5,7.5,0,0,1,12.4-8.5v0.2h0.1Z" fill="#31323d"/><path d="M1236.3,1330.2l2.4,1.9c1.6,1.2,3.9,2.9,7.1,4.9s7,4.4,11.5,6.8a137.3,137.3,0,0,0,15.7,7.1,116,116,0,0,0,19.4,5.5,98.3,98.3,0,0,0,22.2,1.8,88.9,88.9,0,0,0,11.6-1.2l2.9-.6,2.9-.7,2.9-.7,2.9-.9a86.8,86.8,0,0,0,11.2-4.5c1.9-.8,3.6-1.8,5.4-2.8l2.6-1.5,2.6-1.6a123.8,123.8,0,0,0,19-15.3,156.9,156.9,0,0,0,15.7-18c4.7-6.2,8.8-12.5,12.6-18.6s7-12.1,9.8-17.7l2.1-4.1,1.9-4,1.8-3.8,1.6-3.6c2.1-4.7,3.8-8.8,5.2-12.2,0.8-1.7,1.2-3.3,1.9-4.5a14.5,14.5,0,0,1,2.1-3.1,11.5,11.5,0,0,1,1.9-1.7l0.8-.5h0.1a6.5,6.5,0,0,1,8.8,2.8l0.4,0.9a6.2,6.2,0,0,1,.2.9,11.5,11.5,0,0,1,.1,2.6,15.2,15.2,0,0,1-.7,3.8,42.7,42.7,0,0,1-1.9,4.7c-1.6,3.5-3.5,7.7-5.8,12.5l-1.8,3.7-2,3.9-2.1,4.1-2.3,4.2c-3.1,5.8-6.8,11.9-10.9,18.2a231.4,231.4,0,0,1-14.1,19.2,168.8,168.8,0,0,1-17.6,18.6,127.7,127.7,0,0,1-21.5,15.8l-2.9,1.6-3,1.6c-2,.9-4,2-6.1,2.8a96.3,96.3,0,0,1-12.6,4.3,93.8,93.8,0,0,1-25.7,3.2,101.7,101.7,0,0,1-23.7-3.2,122,122,0,0,1-20-7.1,141.9,141.9,0,0,1-15.7-8.4,134.8,134.8,0,0,1-11.3-7.8c-3-2.3-5.3-4.2-6.8-5.6l-2.3-2.1h0A1.2,1.2,0,0,1,1236.3,1330.2Z" fill="#31323d"/><path d="M1372.4,1221.7a15,15,0,0,1,3.6-15.9c8.9-8.8,28.1-21.7,63.7-21.9s52.5,12.1,60.6,20.8a14.9,14.9,0,0,1,2.5,16.1h0a20.8,20.8,0,0,1-18.2,12.3c-10,.3-23.9,3.4-32.7,15.9a13.2,13.2,0,0,1-1.9,2.2l-0.3.3a17.7,17.7,0,0,1-25.3-1.4h0s-7.3-12.5-34.2-14.5a20.7,20.7,0,0,1-17.7-13.5v-0.3Z" fill="#31323d"/><path d="M1516.8,1407.9l-0.5,1.8c-0.2.6-.3,1.2-0.7,2.1l-1.1,3-1.6,3.5c-0.7,1.2-1.4,2.6-2.3,4a56.1,56.1,0,0,1-6.8,8.8,63,63,0,0,1-10,8.7l-3,2-3.2,1.9c-2.2,1.2-4.5,2.3-6.9,3.3s-4.9,1.8-7.4,2.6l-3.9,1-4,.8a77.5,77.5,0,0,1-16.3,1.1,81.8,81.8,0,0,1-16.1-2.3,83.6,83.6,0,0,1-14.8-5.2l-0.9-.4-0.4-.2h-0.5l-1.5-.8-3.2-1.8c-2.2-1.2-4.2-2.5-6.1-3.8a76.6,76.6,0,0,1-10-8.3,75.3,75.3,0,0,1-7.2-8.2,71.2,71.2,0,0,1-4.6-7c-0.6-1-1.1-1.9-1.5-2.7l-1-2-0.8-1.7a2.5,2.5,0,0,1,4.2-2.7h0.1l1.2,1.3,3.3,3.6c1.4,1.5,3.3,3.3,5.5,5.2s4.7,3.9,7.6,6a91,91,0,0,0,9.7,5.9l2.7,1.4,2.8,1.3,2.9,1.2,1.6,0.7,1.4,0.5a85.9,85.9,0,0,0,12.8,3.6,81.6,81.6,0,0,0,13.5,1.5,80.6,80.6,0,0,0,13.5-.7l3.3-.5,3.2-.7c2.1-.5,4.2-1.1,6.2-1.7s4-1.4,5.8-2.2l2.8-1.2,2.6-1.3a65.7,65.7,0,0,0,9.3-5.9,60.7,60.7,0,0,0,7.1-6.3,72.3,72.3,0,0,0,4.9-5.6l1.6-2.2c0.5-.6.9-1.3,1.2-1.8l1-1.5A2.5,2.5,0,0,1,1516.8,1407.9Z" fill="#31323d"/><path d="M1383.9,1408.7s2.4,72.6,63.4,71.3c58.9-1.3,66.7-69.1,66.7-69.1s-21.7,29.9-59.8,29.7S1383.9,1408.7,1383.9,1408.7Z" fill="#595959" opacity=".2" style="mix-blend-mode:multiply"/><path d="M1532.7,1267.1l4-.8,11.4-2.1c9.9-1.7,24-3.8,41-5.4a545,545,0,0,1,58.3-2.4c10.7,0.1,21.7.6,32.9,1.5s22.5,2.3,33.7,4.2,22.4,4.2,33.2,7.1a301.1,301.1,0,0,1,31.3,10.2,259.9,259.9,0,0,1,27.9,12.9,220.6,220.6,0,0,1,23.4,14.5,202.9,202.9,0,0,1,18.1,14.5l3.7,3.4,3.3,3.2,3,3,2.7,2.9c1.7,1.8,3.1,3.5,4.4,4.9l3.1,3.7,2.6,3.2-2.7-3.1-3.2-3.6c-1.3-1.4-2.8-3.1-4.5-4.8l-2.7-2.8-3.1-3-3.4-3.1-3.8-3.3a201.6,201.6,0,0,0-18.4-13.9,218.7,218.7,0,0,0-23.5-13.8,257.3,257.3,0,0,0-27.9-12,297.5,297.5,0,0,0-31.2-9.2c-10.8-2.6-21.8-4.6-33-6.1s-22.3-2.6-33.4-3.2-21.9-.8-32.5-0.6a537.3,537.3,0,0,0-57.4,4c-16.7,2-30.5,4.5-40.1,6.4l-11.1,2.4-3.9.9h0a5,5,0,0,1-2.3-9.7h0.1Z" fill="#31323D"/><path d="M1705.6,1217.8l-6.6.3-7.6.4-9.9.7-11.7,1-13,1.5c-4.5.6-9.1,1.2-13.8,2l-7.1,1.1-7.1,1.3-7.1,1.4-7,1.4-6.9,1.5-6.7,1.6-6.4,1.6-6.1,1.6-11.2,3.1-9.4,2.8-7.2,2.3-6.2,2.1h-0.1a5,5,0,0,1-3.2-9.5h0.3l6.5-1.7,7.5-1.9,9.7-2.3,11.6-2.5,6.3-1.2,6.6-1.2,6.9-1.2,7-1.1,7.2-1,7.2-.9,7.2-.8,7.2-.7c4.8-.5,9.5-0.7,14-1.1l13.1-.6,11.7-.3H1699Z" fill="#31323D"/><path d="M1546.6,1290.2l7.7-1.2,4.3-.4,5.1-.4c3.6,0,7.7-.2,12.1.3l3.4,0.2,3.5,0.5,3.6,0.5,3.7,0.7,3.8,0.7,3.8,0.9,3.9,1,3.9,1.2,3.9,1.3,3.9,1.5,3.9,1.6,3.9,1.7,2,0.9,1.9,1,3.9,1.9,7.6,4.2c4.9,3,9.8,6,14.4,9.3s9,6.7,13.1,10.1,8,6.9,11.6,10.2,6.8,6.7,9.8,9.7,5.6,6,7.8,8.6,4.2,4.9,5.8,6.9c3.1,3.9,4.8,6.2,4.8,6.2s-1.8-2.2-5.1-5.9c-1.7-1.8-3.7-4.1-6.1-6.5s-5.2-5.2-8.3-8.1-6.5-6-10.2-9.1-7.7-6.3-12-9.5-8.7-6.3-13.4-9.2-9.6-5.7-14.5-8.3l-7.6-3.6-3.8-1.7-1.9-.8-1.9-.7-3.8-1.4-3.8-1.3-3.8-1.2-3.8-1-3.7-1-3.7-.8-3.6-.7-3.6-.5-3.5-.4-3.4-.3-3.3-.3h-3.1c-4.1-.2-7.8.2-11.2,0.4l-4.5.6-3.8.5-7.6,1.6a5,5,0,1,1-2-9.8h0.3Z" fill="#31323D"/><path d="M1355.9,1292.2l-15.5-3c-9.8-1.9-23.8-4.7-40.7-7.4-8.4-1.4-17.6-2.7-27.3-4s-20-2.3-30.6-3.2-21.6-1.4-32.8-1.6-22.6.1-33.9,0.8a334.9,334.9,0,0,0-33.7,3.9c-5.5.9-11,2-16.3,3.2s-10.6,2.6-15.7,4.2a200.6,200.6,0,0,0-52.8,24.1,165.1,165.1,0,0,0-18.6,14.1c-1.3,1.1-2.5,2.3-3.7,3.4l-3.4,3.2-3.1,3.1-2.7,2.9c-1.7,1.8-3.1,3.5-4.4,5l-1.7,2.1-1.4,1.8-2.5,3.2,2.5-3.3,1.3-1.8,1.7-2.1c1.2-1.5,2.6-3.3,4.3-5.1l2.6-3,3-3.2,3.3-3.4c1.2-1.1,2.3-2.4,3.7-3.5a166.3,166.3,0,0,1,18.3-14.7,202.9,202.9,0,0,1,52.8-25.9c5.1-1.7,10.4-3.2,15.8-4.6s10.9-2.7,16.4-3.7a339.4,339.4,0,0,1,34-4.9c11.5-1.1,23-1.6,34.3-1.8s22.5,0.1,33.3.7,21.2,1.4,31,2.4,19.1,2.1,27.7,3.3c17.1,2.3,31.2,4.7,41.1,6.4l15.5,2.6h0a5,5,0,1,1-1.7,9.9h-0.1Z" fill="#31323D"/><path d="M1181.2,1233.5l1.8-.3,5-.8,7.8-1.1,10.1-1.1c7.4-.7,16.2-1.1,25.6-1,4.7,0.1,9.5.2,14.5,0.5l7.4,0.6,7.4,0.8,7.5,1,7.4,1.2c4.9,0.8,9.6,1.9,14.2,2.9l6.8,1.7,6.4,1.8c4.2,1.2,8.1,2.4,11.7,3.6l9.7,3.5,7.4,2.9,4.7,2,1.7,0.7a5,5,0,1,1-4,9.2h-0.3l-1.6-.8-4.4-2.2-7-3.3-9.2-3.9c-3.4-1.4-7.1-2.8-11.1-4.2l-6.1-2.1-6.5-2c-4.4-1.3-9-2.6-13.7-3.7l-7.1-1.6-7.2-1.4-7.3-1.2-7.2-1c-4.8-.6-9.6-1.1-14.2-1.4-9.2-.7-17.9-0.8-25.3-0.6l-10.1.4-7.8.6-5,.5Z" fill="#31323D"/><path d="M1343.2,1316l-7.6-1.9-3.8-.6-2.1-.3-1.1-.2h-1.2l-5.3-.4h-9l-3.3.3c-2.2.1-4.5,0.6-6.8,0.9s-4.7,1-7.1,1.5l-1.8.4-1.8.5-3.7,1.1-3.7,1.3-3.8,1.4-7.5,3.2a163.1,163.1,0,0,0-14.8,7.9l-3.6,2.2-3.5,2.3c-2.4,1.5-4.6,3.2-6.9,4.8l-6.6,5c-2.1,1.7-4.3,3.4-6.3,5.1l-3,2.6-2.9,2.6-5.5,5.1-5.1,5-4.7,4.8c-3,3.1-5.6,6-7.9,8.6l-5.8,6.9c-3.2,3.9-4.9,6.2-4.9,6.2s1.6-2.4,4.5-6.4c1.5-2,3.3-4.5,5.5-7.2s4.6-5.8,7.4-9.1l4.4-5.1,4.9-5.3,5.3-5.4,2.8-2.8,2.9-2.8c1.9-1.9,4-3.7,6.1-5.5l6.4-5.4c2.2-1.7,4.4-3.6,6.8-5.3l3.5-2.6,3.6-2.5a168.4,168.4,0,0,1,14.8-9l7.7-3.8,3.9-1.7,3.9-1.6,3.9-1.4,1.9-.7,1.9-.6c2.6-.7,5-1.6,7.5-2s4.9-1.2,7.3-1.4l3.5-.5,1.7-.2h1.7l6.4-.4h8.5l2.5,0.3,4.5,0.5,7.7,1.4a5,5,0,0,1-1.8,9.8h-0.3Z" fill="#31323D"/></g><g id="env"><defs><linearGradient id="env__a" x1="1528.76" x2="1528.76" y1="664.99" y2="304.88" gradientUnits="userSpaceOnUse"><stop offset="0" stop-color="#fff" stop-opacity="0"/><stop offset="1" stop-color="#fff"/></linearGradient><linearGradient id="env__g" x1="2035.85" x2="2035.85" y1="1228.94" y2="798.57" gradientTransform="matrix(1, -0.04, 0.04, 1, -32.78, 81.73)" xlink:href="#env__a"/><linearGradient id="env__h" x1="1017.92" x2="1017.92" y1="585.47" y2="363.44" xlink:href="#env__a"/><linearGradient id="env__i" x1="726.98" x2="726.98" y1="1611.55" y2="1215.77" xlink:href="#env__a"/><linearGradient id="env__j" x1="2078.31" x2="2078.31" y1="1751.47" y2="1474.06" xlink:href="#env__a"/><linearGradient id="env__k" x1="1266.89" x2="1266.89" y1="644.14" y2="459.69" gradientTransform="matrix(-1, 0, 0, 1, 2514.53, 0)" xlink:href="#env__a"/><linearGradient id="env__l" x1="2277.17" x2="2277.17" y1="2069.4" y2="1786.64" xlink:href="#env__a"/><linearGradient id="env__m" x1="863.26" x2="863.26" y1="1186.22" y2="644.95" xlink:href="#env__a"/><linearGradient id="env__n" x1="3178.15" x2="3178.15" y1="899.9" y2="529.1" gradientTransform="matrix(-1, 0, 0, 1, 4897.72, 0)" xlink:href="#env__a"/><linearGradient id="env__o" x1="2359.29" x2="2701.58" y1="2146.3" y2="2146.3" gradientUnits="userSpaceOnUse"><stop offset=".01" stop-color="#62d0f4"/><stop offset=".88" stop-color="#62f4df"/></linearGradient><linearGradient id="env__p" x1="1538.7" x2="2895.55" y1="2337.82" y2="2337.82" gradientUnits="userSpaceOnUse"><stop offset=".34" stop-color="#ffe6b8"/><stop offset="1" stop-color="#ffeccf"/></linearGradient><linearGradient id="env__q" x1="552.26" x2="2201.98" y1="2189" y2="2189" gradientUnits="userSpaceOnUse"><stop offset="0" stop-color="#ff9bf8"/><stop offset=".66" stop-color="#ff9bf8"/><stop offset="1" stop-color="#ffc19b"/></linearGradient><linearGradient id="env__r" x1="552.26" x2="2201.98" y1="2189" y2="2189" gradientUnits="userSpaceOnUse"><stop offset="0" stop-color="#da9bff"/><stop offset=".23" stop-color="#e89bfc" stop-opacity=".61"/><stop offset=".44" stop-color="#f59bfa" stop-opacity=".28"/><stop offset=".59" stop-color="#fc9bf9" stop-opacity=".08"/><stop offset=".66" stop-color="#ff9bf8" stop-opacity="0"/></linearGradient><clipPath id="env__s"><path fill="none" d="M818.9,385h-.6v-.2h-.5l.2.2h.1a.1.1,0,0,0,.1.1h.7Z"/></clipPath><clipPath id="env__t"><path fill="none" d="M818.9,385h-.6a.1.1,0,0,0,0-.2h-.5l.2.2h.1a.1.1,0,0,0,.1.1h.7Z"/></clipPath><linearGradient id="env__u" x1="818.12" x2="818.12" y1="384.46" y2="384.66" gradientTransform="translate(-82.3 467) rotate(-30.4)" gradientUnits="userSpaceOnUse"><stop offset="0" stop-color="gray"/><stop offset=".27" stop-color="#7d7d7d"/><stop offset=".46" stop-color="#747474"/><stop offset=".64" stop-color="#646464"/><stop offset=".8" stop-color="#4d4d4d"/><stop offset=".95" stop-color="#303030"/><stop offset="1" stop-color="#242424"/></linearGradient><linearGradient id="env__b" x1="817.99" x2="818.1" y1="384.48" y2="384.55" gradientTransform="translate(-82.3 467) rotate(-30.4)" gradientUnits="userSpaceOnUse"><stop offset="0" stop-color="gray"/><stop offset=".09" stop-color="#797979"/><stop offset=".22" stop-color="#646464"/><stop offset=".39" stop-color="#434343"/><stop offset=".57" stop-color="#141414"/><stop offset=".64"/></linearGradient><linearGradient id="env__v" x1="2972.05" x2="2972.14" y1="339.54" y2="339.68" gradientTransform="matrix(-0.84, 0.55, 0.55, 0.84, 3120.83, -1525.21)" xlink:href="#env__b"/><linearGradient id="env__c" x1="818.68" x2="818.68" y1="385.28" y2="385.2" gradientTransform="translate(-82.3 467) rotate(-30.4)" gradientUnits="userSpaceOnUse"><stop offset="0" stop-color="#fff" stop-opacity="0"/><stop offset=".72" stop-color="#fff"/></linearGradient><linearGradient id="env__w" x1="1060.88" x2="1060.88" y1="385.28" y2="385.2" gradientTransform="matrix(-0.86, 0.51, 0.51, 0.86, 1538.25, -483.72)" xlink:href="#env__c"/><clipPath id="env__x"><circle cx="818.3" cy="384.6" r=".1" fill="#fff" stroke="#31323d" stroke-linecap="round" stroke-miterlimit="10" stroke-width=".01"/></clipPath><linearGradient id="env__d" x1="818.42" x2="818.42" y1="384.57" y2="384.69" gradientTransform="translate(-82.3 467) rotate(-30.4)" gradientUnits="userSpaceOnUse"><stop offset="0" stop-color="#4bffff"/><stop offset=".08" stop-color="#62e6ff"/><stop offset=".24" stop-color="#9ba6ff"/><stop offset=".48" stop-color="#f740ff"/><stop offset=".5" stop-color="#ff38ff"/><stop offset="1" stop-color="#ffed21"/></linearGradient><linearGradient id="env__y" x1="818.14" x2="818.14" y1="384.6" y2="384.69" xlink:href="#env__d"/><linearGradient id="env__e" x1="2233.67" x2="2504.24" y1="2352.48" y2="2231.76" gradientUnits="userSpaceOnUse"><stop offset="0" stop-color="#fff" stop-opacity="0"/><stop offset="1" stop-color="#231f20"/></linearGradient><linearGradient id="env__z" x1="1577.63" x2="678.02" y1="2082.53" y2="2632.06" xlink:href="#env__e"/><linearGradient id="env__f" x1="1631.78" x2="-1070.77" y1="1951.37" y2="3277.83" gradientUnits="userSpaceOnUse"><stop offset=".26" stop-color="#fff"/><stop offset=".87" stop-color="#fff" stop-opacity="0"/></linearGradient><linearGradient id="env__A" x1="2524.25" x2="2515.77" y1="1977.17" y2="2389.06" xlink:href="#env__f"/><linearGradient id="env__B" x1="1687.49" x2="1392.7" y1="2076.87" y2="2591.04" xlink:href="#env__f"/></defs><g><g fill="#231f20"><path style="mix-blend-mode:multiply" d="M591.5,2423.8c-60.4,43.9-211.4,72.1-248.3,78.9-17.8,3.2-44.9,5.5-37.7,22.2s66.9,20.9,84.8,22.3c37.1,2.9,54.5-1.4,91.4,3.6,32.5,4.4,94.1,14.3,125.7,23,36.1,9.9,74.3,4.5,111.2-1.1,52.7-7.9,104.5,22.4,157.2,14.5,10.1-1.5,39.8-8.7,39.2-30.2-.3-11.5-22.3-18.8-30.3-27-58.2-59-134.1-90.9-212.9-115.6" opacity=".2"/><path style="mix-blend-mode:multiply" d="M905,2553.1c34.7-7.6,62.9-14.7,99.9-9.2,34.1,5.1,81.7,21.3,121.9,7,35.4-12.4,95.2,7.3,109.4,0,30.6-15.6-.3-33,21.1-33.9,103.7-4.7,199.7-9.4,294.7-3,9.6.6,13,13.1,5,18.5-28.7,19.4-74.4,57.1-48.5,68.3,37,16,125.7-20.4,240.6-21,52.4,13.7,18.1,31.7,96.1,37.7,60.3,4.6,84.9,26.7,145,34,67.4,8.2,214.2-11.7,287.6-24.2,75-12.8,149.2.8,214.7-22.3,10.7-3.7,1.6-15.6,1.8-26.6.6-22.4-11.3-43.1-31.6-52.5-82.5-37.9-176.4-37.9-266.5-49.4-186.3-23.8-362.9-98.6-548.6-127.2-140.6-21.7-283.7-16.6-425.8-11.4-98.3,3.6-197.8,7.3-292.2,34.8-25.2,7.3-50.5,16.5-70.5,33.5s-26.8,54.4-24.9,47.3c0,0-10.1,26.3,8.2,40.4s54.3,42.6,65.8,46.8S905,2553.1,905,2553.1Z" opacity=".2"/></g><path fill="#fff" stroke="#31323d" stroke-linecap="round" stroke-linejoin="round" stroke-width="8" d="M2253.8,1111.8s-9.5-18.4,8.5-33,35.5,2,18,39.5"/><path fill="#fff" stroke="#31323d" stroke-linecap="round" stroke-linejoin="round" stroke-width="8" d="M2272.4,1147.2s4.1,22.3-15.2,33.4-37-3.8-12-36.6"/><path fill="url(#env__a)" d="M1545.4,169s-61.5,40.5-31.5,101.2,18,88.3-15,134.1-34.5,136.4,46.5,166.2c0,0-51.3-43.7-33.9-86.3s68.4-63.9,68.4-135.2c0-56.5-25.3-68.4-44.3-99.8C1518.1,220,1545.4,169,1545.4,169Z"/><path fill="url(#env__g)" d="M2013.8,548.7s50.6,114.8,10.1,215.4c-42.1,104.5-21.8,137.2-14.5,170.1s36,72.2,13.1,119.1,15.6,104.4,32.9,125.8c0,0-32.9-74.2-10.7-117.4s15-78,1.9-141.9,5.1-97.8,16.6-148S2067.6,581.1,2013.8,548.7Z"/><path fill="url(#env__h)" d="M1007.1,280.7c.1-1.2-1.9-1.4-2.1-.2-4,23.2-7.5,66.1,9.1,111.6,11,30,17.4,47-5.1,68.7s-47.6,66.9,19.2,103.4c1,.6,1.9-.4,1.4-1.4-7.5-12.7-32.2-38.2-.6-71.3,41.5-43.5,12.3-80.4,0-99.7C1013.7,367.7,1004.4,323.3,1007.1,280.7Z"/><path fill="url(#env__i)" d="M716.8,949.1c-14.4,30.1-27.2,79.8,10.6,199.1,30.4,96.2-19.2,204.9-27.3,254.6s-2.7,153.1,55.7,204.8c0,0-39-87.5-29.2-177,7.5-68.3,36.1-133.2,29.2-218.7S697.5,1056.2,716.8,949.1Z"/><path fill="url(#env__j)" d="M2078.4,1627.7c-.8-11.2,3.2-23.7,10.4-41,39.1-94.8,20.2-170.9-27.3-208.2,0,0,30.1,54.7,19.9,108.1-8.1,42.7-51,93.1-27.9,148.4,0,0,13.6,30.8,40.2,40C2093.7,1675,2080.1,1656.1,2078.4,1627.7Z"/><path fill="url(#env__k)" d="M1247.6,561.8c.5-7.4-2.2-15.7-6.9-27.2-26.1-63-13.5-113.6,18.1-138.5,0,0-20,36.4-13.2,71.9,5.4,28.4,33.9,61.9,18.5,98.7,0,0-9,20.5-26.7,26.6A64.6,64.6,0,0,0,1247.6,561.8Z"/><path fill="url(#env__l)" d="M2261.7,1655.9s-43.4,36-19.6,76.8c16.8,28.9,42.3,43.4,37.6,81.6-3.5,28.3-70,58.7-31.2,111.9,34.6,47.5,28.7,72.6,22,94.9,37.9-44.6,11.2-100.9,7.7-124.7s41-50.6,41.2-87c.1-34.8-23.9-55-40.8-67.5C2253.3,1723.2,2244.2,1710.8,2261.7,1655.9Z"/><path fill="url(#env__m)" d="M882.3,1025.6s-75.7-74.1-52-150.5,59.4-102.5,32.3-159.5S825.2,630.8,843.9,608c0,0-15.3,30.9,30.5,91.3s20.7,102.7,7.9,132S852.1,983.4,882.3,1025.6Z"/><path fill="url(#env__n)" d="M1701.4,789.8s72.5-50.7,49.7-103-56.9-70.2-30.9-109.3,35.8-58.1,17.9-73.7c0,0,14.6,21.2-29.2,62.5s-19.9,70.4-7.5,90.5S1730.3,761,1701.4,789.8Z"/><path fill="url(#env__o)" d="M2678.5,1906.5l-3.1-1.8c-14.2-7.6-34.1,4.1-45.7,23.3l-104.5,207.1-14.3-4.8s-51.9-6.7-76.8,35.5-74.8,139.1-74.8,139.1,32.4-7,70.9,6.4,76.6,47.9,89,68.4c0,0,49.6-5.9,82.1,10.5l.5-1.1,40.8-82.4,4.1-8.2c18.3-45.4-34.7-107.9-34.7-107.9l-16.2-17.1L2698.2,1967S2713.7,1931.5,2678.5,1906.5Zm-12.8,43.4c-1.7,7.3-6.1,9.1-12.5,7.9-4.9-.8-6.8-5.8-2.1-12.8s12.7-8.4,14-5.8C2667.6,1944,2667.2,1943.6,2665.7,1949.9Z"/><path fill="#ffe6b8" d="M998.2,1904.8c-25-40.9-87.9-58-98.3-50.7s-26.9-2-26.9-2-12.8-5.9-40-19.5-46.9-13.4-60.5,4.3-14.2,21.4-28.3,36.6c-3.4,3.6-3.1,4.6-6.1,8.5l-7.6,5.1c-23.3-16-42.9-16.3-59-1.9s-40.4,19.6-40.4,19.6S998.4,1905.1,998.2,1904.8Z"/><path fill="#ffe6b8" d="M843.9,2403.4c6.5,8.5,12.8,19.3,28.6,18.2,37.4-2.6,79.9,45,95.4,56,29.9,24.3-14.1,37.1-103.9,28.6,21.7,17.6,54.7,33.5,51,44.3s-41.1,18.5-53.6,16.9c-24-3.2-61.8,18.6-111.2-35-73.1,8.9-90.5,6.1-90.5,6.1H643.5c-37.1.4,29.4,2.8-47.4,1.8-94.6-1.4-190.2-21.2-219.1-32a10.8,10.8,0,0,1-1.7-19.4c28.4-16.6,83.9-31.5,83.9-31.5,21.2-22.4,53.4-32.7,63.1-42.9,16.6-17.6,60.9-52,60.9-52l29.7-13.1,3.2,37.1s44.6-39.2,77.6-41.1h14.2s21.6,3.7,35.1,11.1c10.7,5.8,17.9,20.1,28.6,26,32.4,17.8,65.1,13.7,65.1,13.7Z"/><path fill="#ffe6b8" d="M1105.9,2451.1c17.4-11.3,69.8,20,91.1,32.4,38.7,22.5,60.2,25.4,62.3,35.7,5.3,27.4-101.4,9.2-154.7,19.7-14.8,2.9-113.8,5.7-100.2-20.3,0,0,42.3-54.2,64.7-51.9Z"/><path fill="url(#env__p)" d="M1794.7,2075.8s1-9.1,29.2-19.2c31.6-11.2,134.1-8.8,153.2,11.2s40.4,24.5,58.5,22.8c20.2-1.8,42.5,8.4,54.3,13l53.9-3.1s48.6-2,70.9,5.3l26.8,4.6c17.2,4.1,36.4,10,44.9,16.1,9.3,8.5,31.6,15.4,45.2,34.6,8.5,12.1,18.1,19.6,24.7,30.5,19.5,4.5,33.4,12.4,46,20l-41.7,87.1s64.6-11.2,172.3,80.1l36.7.9s6.6,1.9,34.1,1.9c9.6-6,12.5-34.4,20.9-42.7,67,85.1,173.6,105.4,173.6,105.4,6.1,11.5,78,27.3,96.3,70,7.5,17.4-27.6,14.3-27.6,14.3s-13.8,11.2-54.8,12.2-130.9,3.1-118.6,11.5c6.7,19.2-123,37.8-139.3,34.7-1,.3-24.7,16-25.7,16.1-87.2,9.6-190.4-19.7-233-10.4-29.5,6.5-53.6,14.6-67.5,14.9-6.9.2-16.9,3.8-21.9,8.4-6.6,6.1-38.3,10.9-144.4,9.5-32.1-6.9-84.3-18.3-107-22-85.7-14.1-86-4.7-93-24.5-4.2-11.7,49.7-32.6,62.5-38.6,25.7-12.3-75-9.5-170-14-8.4-.4,18.4,34.3,7.6,46.7s-44.8,9.2-62.6,7.4c0,0-45.7.6-78.4,5.5s-79,1.1-82-7.2,53-36.4,87.7-38l27.3-24.4c-11.7-2.3-21.9-5-29.8-8.3-62.6-25.8,102.2-48,102.2-48l43-26.4,35.6-7.3,42.2,4.7c8.4-7.7,9.2,28,16.5,21.4,21.9-20,52.9-37,82.5-40.6,54-6.4,47.1-7.9,83.5-19.8l9.3-.2,6.7-3.8s4.3-4.3,4.3-2.3,7.7-2.7,7.7-2.7l10-3.3s-4.1-.1,16.7-5.7c12.3-3.3,14.1-5.4,14.1-5.4l11.6-2.1c6.6,0,41.5,9.3,41.5,2.7l1.9-94.8,1.3.9c-.9-10.1,7.1-12,25.6-11.3,21.8.9,22-5,21.8-45.3s-6.3-76.7-14.5-76.7h-27.3l-132,2.8c-39.9,0-87.1,3.9-132.9-15.3l-100.6-53.8"/><path fill="url(#env__q)" d="M2149,2368.7l4.3-94.2,1.3.9c-.9-10.5,7.5-7.9,25.6-7.9,20,0,16-7.9,16-48.7s1.4-73.9-3-73.9h-165c-39.9,0-87.1,3.9-132.9-15.3-111.2-59.1-253.4-136.5-334-177.6-85-44.2-137.1-47.2-137.1-47.2H571l-18.7,5.5c-.1,0,0,8.9,0,8.9v89.3c0,25,43.8,16.3,42.6,26.8l1.6-1.6L609.8,2324s-.2,44.3,2.4,57.9c15-10.4,62.6-39.4,84-39.8,0,0,14.6-5.1,39.4,11.1,0,0,19.7,9,21.7,16.4s18.2,8.5,27.5,13.9,45.1-.2,59.7,24.5c0,0,1.3,6.1,20,13.1,24.8,9.2,62.1,22.7,97.7,52.1l89.9-.3,62.2-22.6,72.7,22.1,494.5-1.7,108-39.9s27.4.5,56.6-1.9c8.5-.8,15.2,21.9,23.4,20.6,10.9-1.7,37.8-25.3,45.5-28.3,33.3-13.4,57.2-11.7,57.2-11.7l28.1-7.4,11.2-5.3h8l10-4.7S2109.8,2353.9,2149,2368.7Z"/><path fill="url(#env__r)" d="M2149,2368.7l4.3-94.2,1.3.9c-.9-10.5,7.5-7.9,25.6-7.9,20,0,16-7.9,16-48.7s1.4-73.9-3-73.9h-165c-39.9,0-87.1,3.9-132.9-15.3-111.2-59.1-253.4-136.5-334-177.6-85-44.2-137.1-47.2-137.1-47.2H571l-18.7,5.5c-.1,0,0,8.9,0,8.9v89.3c0,25,43.8,16.3,42.6,26.8l1.6-1.6L609.8,2324s-.2,44.3,2.4,57.9c15-10.4,62.6-39.4,84-39.8,0,0,14.6-5.1,39.4,11.1,0,0,19.7,9,21.7,16.4s18.2,8.5,27.5,13.9,45.1-.2,59.7,24.5c0,0,1.3,6.1,20,13.1,24.8,9.2,62.1,22.7,97.7,52.1l89.9-.3,62.2-22.6,72.7,22.1,494.5-1.7,108-39.9s27.4.5,56.6-1.9c8.5-.8,15.2,21.9,23.4,20.6,10.9-1.7,37.8-25.3,45.5-28.3,33.3-13.4,57.2-11.7,57.2-11.7l28.1-7.4,11.2-5.3h8l10-4.7S2109.8,2353.9,2149,2368.7Z"/><path fill="#58595b" d="M2284.2,1134.4c-1.7,10-15,16.1-25,14.5s-22.6-13.6-20.1-24.8,16.1-13.2,26.1-11.6S2285.8,1124.3,2284.2,1134.4Z"/><ellipse cx="1805.6" cy="351.5" fill="#58595b" rx="19.8" ry="24.3" transform="translate(66.2 949.9) rotate(-30)"/><ellipse cx="814.8" cy="367.9" fill="#58595b" rx="27.9" ry="17.4" transform="translate(111 919.3) rotate(-62.4)"/><g><g clip-path="url(#env__s)"><path fill="#fff" d="M817.4 384H819.1V385.72H817.4z" transform="translate(-82.2 467) rotate(-30.4)"/><path fill="#fff" d="M817.9 384.3H818.8V385.36H817.9z" transform="translate(-82.2 467) rotate(-30.4)"/><path fill="#49497c" d="M818.2,384.5h.1l.4-.8h-.1l-.5.3Z"/><path fill="#49497c" d="M818 384.6L817.5 384.3 817.1 384.6 817.4 385 818 384.8 818 384.7 818 384.7 818 384.7 818 384.6 818 384.6z"/><path fill="#49497c" d="M818.3,385.4h0Z"/><path fill="#f4b3f1" d="M818.3,385.2h-.1a.1.1,0,0,0,.1.1h0Z"/><path fill="#49497c" d="M818.1,385.1h0Z"/><path fill="#49497c" d="M818.7,385.1h0Z"/><path fill="#49497c" d="M818.4 385.3L818.5 385.3 818.5 385.3"/><path fill="#49497c" d="M818.4,385.3h.2"/><path fill="#49497c" d="M818.1,384.7h0Z"/><path fill="#49497c" d="M818.2,385.1h0Z"/><path fill="#f4b3f1" d="M818.4,385.3h0c-.1,0-.1,0-.1-.1h.1Z"/><path fill="#f4b3f1" d="M818.5,385.1h0Z"/><path fill="#49497c" d="M818.6,384.8h.2a.1.1,0,0,0-.1-.1h-.1Z"/><path fill="#49497c" d="M818.6 385.2L818.5 385.3 818.5 385.3"/><path fill="#49497c" d="M818.5,384.9h0c.1,0,.1,0,0-.1Z"/><path fill="#f4b3f1" d="M818.6,385.2h-.2c.1,0,.1,0,.1.1h.1Z"/></g><g clip-path="url(#env__t)"><path style="mix-blend-mode:multiply" fill="#595959" d="M818.3,385.3h0Z" opacity=".2"/><path fill="url(#env__u)" d="M818,384.8h0s-.1,0,0-.1h0" opacity=".2"/><path style="mix-blend-mode:multiply" fill="#595959" d="M818.7,385.1h.1a.1.1,0,0,1-.1.1h0Z" opacity=".2"/><path style="mix-blend-mode:multiply" fill="url(#env__b)" d="M817.8,384.7h0Z" opacity=".4"/><path style="mix-blend-mode:multiply" fill="url(#env__v)" d="M818.3,384.4a.1.1,0,0,0-.1.1h0a.1.1,0,0,1,.1.1Z" opacity=".4"/><path style="mix-blend-mode:multiply" fill="#595959" d="M818.4,384.8h0" opacity=".2"/><path style="mix-blend-mode:multiply" fill="#595959" d="M818.1,385h0Z" opacity=".2"/><path style="mix-blend-mode:multiply" fill="#595959" d="M818,384.9h0c0,.2.1.3.1.4h.1c0-.1,0-.1-.1-.1H818Z" opacity=".2"/><path style="mix-blend-mode:multiply" fill="#595959" d="M818,384.9h0" opacity=".2"/><path style="mix-blend-mode:multiply" fill="#595959" d="M818.1,385h0Z" opacity=".2"/><path style="mix-blend-mode:multiply" fill="#595959" d="M818,384.9h0Z" opacity=".2"/><path style="mix-blend-mode:multiply" fill="#595959" d="M818.3,385.3h0" opacity=".2"/><path style="mix-blend-mode:multiply" fill="#595959" d="M818.3,385.3h0" opacity=".2"/><path style="mix-blend-mode:multiply" fill="#595959" d="M818.6,385.1h0" opacity=".2"/><path style="mix-blend-mode:multiply" fill="#595959" d="M818.7,385.1h0" opacity=".2"/><path style="mix-blend-mode:multiply" fill="#595959" d="M818.6,384.9h.1" opacity=".2"/><path style="mix-blend-mode:multiply" fill="#595959" d="M818.7,385h0" opacity=".2"/><path style="mix-blend-mode:multiply" fill="#595959" d="M818.6,384.8h0" opacity=".2"/><path style="mix-blend-mode:multiply" fill="#595959" d="M818.5,384.8h0" opacity=".2"/><path style="mix-blend-mode:multiply" fill="#595959" d="M818.4,384.7h0" opacity=".2"/><path style="mix-blend-mode:multiply" fill="#595959" d="M818.4,384.7h0" opacity=".2"/></g><g clip-path="url(#env__s)" opacity=".3"><path fill="#fff" d="M818.1,384.5h.1a.1.1,0,0,1,.1.1h.3c.1,0,.1,0,.1.1h0c.1.1,0,.1,0,.1h0c.1,0,.1,0,.1-.1l-.4-.3h-.1a.1.1,0,0,0-.1-.1Z"/><path fill="url(#env__c)" d="M818.7,385a.1.1,0,0,1,.1.1h-.1Z"/><path style="mix-blend-mode:overlay" fill="#fff" d="M818,384.7h0c-.1.1.1.3.1.3h0c.1,0,.1,0,.1.1h-.1l-.2-.4v-.3s-.1,0,0-.1Z"/><path fill="#fff" d="M818.1,384.5h0Z"/></g><path fill="#fff" d="M818.1,384.9h0Z"/><path fill="none" stroke="#31323d" stroke-linecap="round" stroke-miterlimit="10" stroke-width=".01" d="M818.6 385.2L818.4 385.3"/><path fill="none" stroke="#31323d" stroke-linecap="round" stroke-miterlimit="10" stroke-width=".01" d="M818.7,385c.1.1,0,.1,0,.1"/><path fill="none" stroke="#31323d" stroke-linecap="round" stroke-miterlimit="10" stroke-width=".01" d="M818.3,385.4h-.1"/><path fill="none" stroke="#31323d" stroke-linecap="round" stroke-miterlimit="10" stroke-width=".01" d="M818.3,385.3h.1"/><path fill="none" stroke="#31323d" stroke-linecap="round" stroke-miterlimit="10" stroke-width=".01" d="M818.6,385.2h.1"/><path fill="none" stroke="#31323d" stroke-linecap="round" stroke-miterlimit="10" stroke-width=".01" d="M818.3,385.4h-.1a.1.1,0,0,1-.1-.1h.1"/><path fill="#31323d" d="M818.2,385.4h0c-.1-.1-.1-.1,0-.1Z"/><path fill="none" stroke="#31323d" stroke-linecap="round" stroke-miterlimit="10" stroke-width=".01" d="M818.7,385h0"/><path fill="#31323d" d="M818.8,385h0Z"/><path fill="#31323d" d="M818.1,384.5h0c-.1,0-.1,0-.1.1h0c0-.1,0-.1.1-.1Z"/><path fill="none" stroke="#31323d" stroke-linecap="round" stroke-miterlimit="10" stroke-width=".01" d="M818,384.6h-.2l.2.2"/><path fill="none" stroke="#31323d" stroke-linecap="round" stroke-miterlimit="10" stroke-width=".01" d="M818.2,384.5h.1v.2"/><path fill="#31323d" d="M818.1,385h0Z"/><path fill="#31323d" d="M818.4,384.7a.1.1,0,0,1,.1.1h0a.1.1,0,0,0-.1-.1Z"/><path fill="#31323d" d="M818.1,385H818c.1,0,0,0,0-.1h0c0,.1.1.1,0,.1h.1Z"/><path fill="#31323d" d="M818.6,384.8h0Z"/><path fill="#31323d" d="M818.7,384.9a.1.1,0,0,0,.1.1h0a.1.1,0,0,1-.1-.1Z"/><path fill="#31323d" d="M818.2,385.3h0a.1.1,0,0,1-.1-.1h.1Z"/><path fill="#31323d" d="M818 384.9L818 384.9 818 384.9 818 384.9 818 384.9 818 384.9 818 384.9z"/><path fill="#31323d" d="M818.4 384.7L818.4 384.7 818.4 384.7 818.4 384.7 818.4 384.7 818.4 384.7 818.4 384.7z"/><path fill="#31323d" d="M818.5,384.8h0Z"/><path fill="#31323d" d="M818.3,385.2h0Z"/><path fill="#31323d" d="M818.5,385.1h0Z"/><path fill="#31323d" d="M818.1 384.5L818.1 384.5 818.1 384.5 818.1 384.5 818.1 384.5 818.1 384.5 818.1 384.5z"/><path fill="#31323d" d="M818.4,384.7h0Z"/><path fill="#31323d" d="M818,384.9h0v-.2h0v.2Z"/><circle cx="818.3" cy="384.6" r=".1" fill="#fff"/><g clip-path="url(#env__x)"><circle cx="818.3" cy="384.6" r=".1" fill="url(#env__d)"/><circle cx="818.3" cy="384.6" fill="#31323d"/><circle cx="818.3" cy="384.6" fill="#fff"/></g><circle cx="818.3" cy="384.6" r=".1" fill="none" stroke="#31323d" stroke-linecap="round" stroke-miterlimit="10" stroke-width=".01"/><circle cx="818" cy="384.8" r=".1" fill="#fff" stroke="#31323d" stroke-linecap="round" stroke-miterlimit="10" stroke-width=".01"/><circle cx="818.1" cy="384.8" fill="url(#env__y)"/><circle cx="818.1" cy="384.8" fill="#31323d"/><circle cx="818" cy="384.7" fill="#fff"/><path fill="#31323d" d="M818.2,384.8Zm0,0Z"/><path fill="#31323d" d="M818.2,384.8Zm0,0Z"/><path style="mix-blend-mode:multiply" fill="#595959" d="M818.2,384.8h0Z" opacity=".2"/><path fill="#31323d" d="M818.3,384.7c-.1.1-.1.1-.1,0h0c0,.1,0,.1.1,0Z"/><path fill="#31323d" d="M818.2,384.8h0Z"/><path fill="#31323d" d="M818.3,384.8h0Z"/><path fill="#31323d" d="M818.2,384.7h0Z"/><path fill="#31323d" d="M818.3 384.7L818.2 384.7 818.2 384.7 818.2 384.7 818.2 384.7 818.3 384.7z"/><path fill="#31323d" d="M818.3,384.7h0Z"/><path fill="#31323d" d="M818.2,384.8h0Z"/><path fill="#31323d" d="M818.1,384.8h0Z"/><path fill="#31323d" d="M818.2,384.8h0Z"/><path fill="none" stroke="#f7f9ff" stroke-linecap="round" stroke-miterlimit="10" stroke-width=".01" d="M818.4,384.3h.1"/><path fill="none" stroke="#f7f9ff" stroke-linecap="round" stroke-miterlimit="10" stroke-width=".01" d="M818.5,384.2h0"/><path fill="none" stroke="#f7f9ff" stroke-linecap="round" stroke-miterlimit="10" stroke-width=".01" d="M818.5,384.3h0"/><path fill="none" stroke="#f7f9ff" stroke-linecap="round" stroke-miterlimit="10" stroke-width=".01" d="M818.5,384.2a.1.1,0,0,0,.1.1"/></g><g><path style="mix-blend-mode:multiply" fill="#231f20" d="M659.3,2025.3H589.7l12.4,61.8,58-.6,156.6-1.4,591.5-5.9s59-.7,152,45.3c75.8,37.5,288.3,157.9,378,166,61.2,5.5,219.2-2,219.2-2v-22.2H1974s-37.1,8-102.4-29.1-336.4-178.3-336.4-178.3-67.1-33.6-132.4-33.6H659.3Z" opacity=".3"/><path style="mix-blend-mode:multiply" fill="#231f20" d="M620.5,2022.1h-23s-18.3,4.5-27,4.2c-26.9-1-11.4-9.7-16.6-52.3-9.6-77.7,9.4-62.9,9.4-62.9s4.2,61.9,21.3,84c27.5,0,83.5.7,83.5.4h720.1s70.6-1.4,152.6,41.3,367.4,193.3,367.4,193.3,40.5,14.3,285.8,15.2c1.2,5.3-.3,10.3,1.4,16.5-1,.6-8.7,2.8-9.9,3.1-13.7,4.5-36-.8-36-.8H1998.2s-61.2,7.5-126.6-26.9-368.8-192.4-368.8-192.4-47.3-21.3-132.6-21.3H887.1Z" opacity=".3"/><path style="mix-blend-mode:multiply" fill="#231f20" d="M2404.6,2306.9l50.4-90.8s21.6-21.8,45.2-15,49.9,9.9,90.2,43.5l19.9,24.2-56.6,109.9-21.3,1.1S2473.2,2311.1,2404.6,2306.9Z" opacity=".3"/><path style="mix-blend-mode:multiply" fill="url(#env__e)" d="M2610.3,2268.8s10.5-30.6-11.9-51.5-127.1-77.8-151.8-39.7-68.8,123.4-68.8,123.4l26.8,5.9s48-92.6,52.5-93.4,24.5-22.4,67.1-7.4S2610.3,2268.8,2610.3,2268.8Z" opacity=".3"/><path style="mix-blend-mode:multiply" fill="#231f20" d="M2568.1,2382.1l59.8-113.2s13.3-24.9-.2-46.9c0,0,33.4,38.1,11.2,89.3l-38.8,77.7Z" opacity=".3"/><path style="mix-blend-mode:multiply" fill="#231f20" d="M2684.8,1926.3s9.7,10.5-7.5,39.6-98.7,195.8-98.7,195.8l15.3,11.3,106.6-210.8S2703.5,1928.5,2684.8,1926.3Z" opacity=".3"/><path style="mix-blend-mode:multiply" fill="#231f20" d="M2658,1933.6s-13.4-3-18.1,6.4.4,17.7,7.3,18.1c0,0-.4-18.1,14.2-19.3Z" opacity=".3"/><path style="mix-blend-mode:multiply" fill="url(#env__z)" d="M606.3,2184.2s496.8,269.3,1142.8,285.3H1177.3l-54.9-20.2-65.1,20.2H959.8s-36.4-25-70.7-43.1c-11.9-6.3-13.3-1.8-24.6-5.3s-22.8-15.2-25.3-21.6c0,0-20.4,3.2-75.2-21.6,0,0-37.8-40.1-67.1-32.7,0,0-50.7,9.3-79.1,39.5Z" opacity=".3"/><path style="mix-blend-mode:multiply" fill="#231f20" d="M1932.5,2537.5c16.1-10-154.5,6.4-178.3-11.1-10.6-7.9-34.2-23.3-47.7-23.9s-28.6,9.4-40.2,8.8c-22.6-1.1-38.4-2.2-42.3-3.2-32.7-8.7,19.3-30.2,50.7-38.2s109.7-39.3,109.7-39.3,24.8,30.9-9.9,38.9-30.3,24.6-30.3,24.6,55,10.5,84.7-9.7c36.6-25,56.8-53.1,69.5-54.4s157.3-63.2,157.3-24.5,2.1,50.3,58.8,51,25.5,45.1-4.3,57c-3.4,1.3-104.7,45-68,47s46.3,9,71,25,92,3.7,103.9-6.7c29-25.2,82.2-26.7,146.9-17.3,50.7,7.3,72.9,29.1,189.2,6,60.3-12,79.1,1.9,126.4,6.2,0,0-133.9,16-142.4,23.8-3.1,2.8-39.1,2.7-85,4-35,.9-29.3-9.4-76.1-9.6-42-.2-103.7-2.7-144.1,15.4s-105.4,20.8-130.9,19.6-88.3-14.3-145.9-24.4c-53.2-9.4-104-5-94.4-29.1C1864.9,2563.2,1916.9,2547.1,1932.5,2537.5Z" opacity=".2"/><path style="mix-blend-mode:multiply" fill="#231f20" d="M2339.7,2301.2s69,13.7,81.2,46c25,66,42.8,52.5,121.8,34.5C2542.7,2381.7,2424.3,2290.7,2339.7,2301.2Z" opacity=".2"/><path style="mix-blend-mode:multiply" fill="#231f20" d="M647.7,1905.5H919.1s-50.9-15.3-72.1-28.7c-16.5-10.4-15.4-50.5-47.8-45.8-35.7,5.1-66,52.8-66,52.8l-10.2-6.2-24.6-6.8-24.7,7.3Z" opacity=".3"/><path style="mix-blend-mode:multiply" fill="#231f20" d="M2244,1116.9s8.8,27,35.6,21.5c0,0,1.1,9.3-11.9,9.8s-33.3-9.8-23.7-31.3" opacity=".3"/><path style="mix-blend-mode:multiply" fill="#231f20" d="M1793.5,330.4s3.6,40.3,33.5,33.1c0,0-13.1,15.8-25.3,9.9s-23.1-30.5-8.2-43" opacity=".3"/><path style="mix-blend-mode:multiply" fill="#231f20" d="M819.1,344.1s-24.2,38.6.6,43.6a12.5,12.5,0,0,1-12.8,7.5C797.3,394.4,782.7,363,819.1,344.1Z" opacity=".3"/><path style="mix-blend-mode:multiply" fill="#231f20" d="M611,2349.4s-51.9-3-96.4,67.5c0,0-32.8,39.8-63.1,43.7-19.3,2.5-51.7,18-72.6,28.9a10.8,10.8,0,0,0,1.3,19.7c32.4,11.8,129.3,31.3,215.9,31.1,95.9-.3,118.3,2.9,135.6-1.6a33.8,33.8,0,0,1,29.5,6.5c25.5,20.3,83.3,53.6,149.7,9.2,0,0-31.4-10.1-53.7-10.6-44-1-66-21.3-106.4-58.3s-26.2-5.9-79.2-18.9c-12.8-3.2-41.5-5.4-44.9-24.7-1.7-9.4,23.5-22.4,53.5-33.4,64.6-23.7,30.6-63.8,30.6-63.8s-60.2-9.2-97.9,46.8Z" opacity=".2"/><path style="mix-blend-mode:multiply" fill="#231f20" d="M821.4,2469.5s32.8-10,44,3.7c21,26,64.8,35.1,99.8,28.7a238.9,238.9,0,0,1-71.8,6.8c-39.4-2.5-31.2,4.8-31.2,4.8Z" opacity=".2"/><path style="mix-blend-mode:multiply" fill="#231f20" d="M1110.3,2449.3s34.1,23.1,33,31.7-44.8,21.5-33,30,75.4,24.3,75.4,24.3l-81.1,3.6s-67.2,9.5-92.8-6,28.4-51.9,28.4-51.9,39-18,40.5-18.5S1110.3,2449.3,1110.3,2449.3Z" opacity=".2"/><path style="mix-blend-mode:multiply" fill="#231f20" d="M1719.2,2505.8s-58,25.7-45.1,35,36.5,30.3,29.4,35c-5.2,3.4-152.5,10.2-152.5,10.2l-12.2-7.2,33.7-25.6,57.7-15.7,23.6-21.1,39.1-14.5Z" opacity=".2"/><path style="mix-blend-mode:multiply" fill="#231f20" d="M1796.2,2071.5s42.3-19.3,53.9-20,70.3,14.9,104.9,54.3,82.5,36.3,82.5,36.3-9.2-39.4-27.9-51.1c0,0,72.7.6,84.8,52.5l28.5-1.4s-9.6-24.8-21.3-31.7,94.8-21.8,133.8,33.1c25.9,36.3,24.9,61.1,33.3,79.1,2.1,4.6,74.1-45.4,106.8-32,5.1,2.1-52.1,19.5-47.9,52.2,2.5,20.1,31.7,57.6,31.7,57.6l-27.7,8.3-70.6,17.5s41,11.9,49,50,86.6,68.9,137.6,71.3,50.5,41,150.6,96.8c4.2,2.3-66.7,4.7-105.7-37.5-34.2-37-89.5-49-123.6-43.3,0,0-53.9,13.5-58.9,6.4s-29.6-36.4-67.1-36.2c0,0-10.8-24.2-35.4-32.3s-58.4-35.9-58.4-35.9l8.3-99.2,38-4.5,2.2-111.4-13.2-6H1959.7S1922.3,2159.1,1796.2,2071.5Z" opacity=".2"/></g><g style="mix-blend-mode:overlay" opacity=".8"><path fill="url(#env__f)" d="M579,1928.3c238.7.1,819.1.1,831.7-.2,32.5-.8,89,24,89,24s314.8,169.4,355.2,192.5,96.3,24.5,96.3,24.5h215c4.3,0,22.9,79.1,26.4,79.1,5.9,0-4.1-79.1-1.1-79.1,9.7,0,2.3-24,2.3-24H1955.4c-44.7,0-85.5-26.8-85.5-26.8s-279.7-146.9-328.7-174.3c-67.5-37.7-131.5-40.9-131.5-40.9H564.3S557.7,1912.1,579,1928.3Z" opacity=".6"/><path fill="url(#env__A)" d="M2683.9,1913.3s-.9,4.5-17.6,29.7c-1.8,2.6-8.8-23.6-20.5-4.7-1.5,2.3-6.3,6.8-6.2,11.1.2,9,15.5,7.7,14.5,9.6-26.5,51.9-104.4,213.9-104.4,213.9s-74-37.3-99.7-4.6c-20.8,26.4-72.1,130.8-72.1,130.8l-18.6,1.3,83.2-145.3s24.6-40.4,84.4-19.5l107-216S2662.9,1883.4,2683.9,1913.3Z"/><path fill="#fff" d="M2041.9,2087.5s50.6-.4,72.6,35.6l10.5,23.6-12.4,4.8S2082.6,2091.5,2041.9,2087.5Z" opacity=".6"/><path fill="#fff" d="M2477.4,2394.9s56-2.6,77.3-.6c41.1,4,63.3,19.8,91.2,58.5,20.3,28.3,31.2-30.1-9.7-54.9C2626.7,2392.1,2574.7,2353.2,2477.4,2394.9Z" opacity=".6"/><path fill="#fff" d="M815.4,1830.9s31,13.9,41.3,25c14.3,15.5,39,18.6,59.2,22.7s33.9,21.5,33.4,24.5,45.1,2.8,45.1,2.8-18.9-42.1-56.2-47.2c-10.5-1.4-30.1-5.1-47.3-2C876.1,1859.4,845.4,1844.6,815.4,1830.9Z" opacity=".6"/><path fill="#fff" d="M2130.5,2266s-8.5,56.2-17.3,100.8a97.6,97.6,0,0,1,35.5,4.5l8.7-105Z" opacity=".6"/><path fill="url(#env__B)" d="M1613.6,1979.2c7,7.5,3.2,80-32.2,103.2-9.7,6.4-46.2-23.5-46.2-23.5s8.5,11-18.6,46.3c-51.8,67.6-27.9,105.2-51.1,165.6-33.7,87.7-131.5,160.4-108.5,201.6,56.2,0,179.5,6.1,256.6,0,25.8-44.5,25.8-44.5,32.6-162.7,5.1-89.6,75.4-92.7,83.6-148.6l47.4,25.4s83.8-79.2,24.8-104C1770.6,2069.4,1613.6,1979.2,1613.6,1979.2Z" opacity=".4"/><path fill="#fff" d="M724.6,2349.4s20.6,28.6,12.6,43.4,25.3,33.9,50.3,33.9,89.9,16.3,98.7,22.6c6,11.3,46.8,51.3,69,53.2s27-10.8,17-20-70.3-50.9-76.7-53.5-22.3-7.5-22.3-7.5l-16-1s-15.6-17.8-18-21-72-13.2-72-13.2l-17.6-21.4Z" opacity=".6"/><path fill="#fff" d="M755.7,2454.2s36-18.5,65.7,15.3c26.6,30.3,54.5,69.5,93.6,71.2l-9.2,10.2s-73.7-18.6-87.5-43.2C784.1,2447,755.7,2454.2,755.7,2454.2Z" opacity=".6"/><path fill="#fff" d="M1144.1,2457.3s76.8,62.2,74.8,76.8c11.4-.6,30.8,1,38.4-17.1,0,0-42.1-13.4-42.3-26.8a74.4,74.4,0,0,1-22.8-12.1C1181.2,2469.5,1168.5,2458.4,1144.1,2457.3Z" opacity=".6"/><path fill="#fff" d="M1726.2,2513.5s-24.7,5.5-20,19.4,21.8,52.6,42.9,46.9,13.3-42.2-7.8-62.2Z" opacity=".6"/><path fill="#fff" d="M1801.5,2427.1s20.7,18,18,27.2-9.3,32.4-18,40.4l62-42.2-16.5-21.4Z" opacity=".6"/><path fill="#fff" d="M2589.6,2545.4s-11.9,15.6-68.2,1.8-128.5-84.6-234.4-64.7c0,0-40.2,41.5-80.8,44.3,0,0,27.3-30.7,18.6-57-6.3-19.4-47.6-18-52.6-34.2s-71.9-69.6-113.6-55.4c0,0,56.6-29,102.6-8.9s19,20.7,40,27.4,36.2,17.1,39.1,23.9,29.9,18.8,41.4,19.3,27.9,27.6,27.9,27.6,118.4-22.5,170,25.2S2589.6,2545.4,2589.6,2545.4Z" opacity=".6"/><path fill="#fff" d="M2614.2,2370.8c12.9,9.2,81.8,58.6,120.8,69.2a223.9,223.9,0,0,1,22.3,7.4l20.4,8.1s72.5,34.1,50.5,49.5-145.2,17.7-148.6,35.8,17.4,33.3,0,32.9l12-9.6,3.9-16.9s62-7.3,68.7-6.4,32.6,1.9,37.9,1.3,50.2-12.5,50.2-12.5l31-4.1a10.1,10.1,0,0,0,7.9-14c-7.9-17.7-28.7-48.7-79.3-57.2,0,0-16.7-11.4-45.1-23.5-7.1-3-49.3-19.5-51.4-19.6-41.4-2.3-85.6-65.9-85.6-65.9S2593.3,2355.9,2614.2,2370.8Z"/><path fill="#fff" d="M1900.2,2051.9c-5.2.2,122.5,7.8,137.3,90.2l-16.3,1.4S1957.9,2050.8,1900.2,2051.9Z" opacity=".6"/><path fill="#fff" d="M2202,2102.9s83.4,17,91.4,108.7c0,0,34.2-19.9,59-19.7,0,0-5.7-31.2-51.6-55.9S2202,2102.9,2202,2102.9Z" opacity=".6"/></g><g><path fill="none" stroke="#31323d" stroke-linecap="round" stroke-linejoin="round" stroke-width="12.5" d="M612.9 2391.1L596.1 2024.8"/><path fill="none" stroke="#31323d" stroke-linecap="round" stroke-linejoin="round" stroke-width="12.5" d="M2576.4,2163.5l106.4-214.8s15.8-29.6-9.2-43.1c-14.2-7.6-31.1-3-42.6,16.2l-106.4,214.8-14.4-4.8s-49.9-14.3-74.8,27.9-74.8,139-74.8,139"/><path fill="none" stroke="#31323d" stroke-linecap="round" stroke-linejoin="round" stroke-width="12.5" d="M2593,2175.6l106.4-214.8s12.5-28.4-22.7-53.4"/><path fill="none" stroke="#31323d" stroke-linecap="round" stroke-linejoin="round" stroke-width="12.5" d="M2410,2301.4s36.6-70.5,45.9-86.2c18.8-30.9,115-4.1,153.4,54.1"/><path fill="none" stroke="#31323d" stroke-linecap="round" stroke-linejoin="round" stroke-width="12.5" d="M2576.4,2163.5l12.5,8.5s48.7,34,30.3,79.4c-6.6,13.3-15,30-23.8,47.3l-42.6,79.4"/><path fill="none" stroke="#31323d" stroke-linecap="round" stroke-linejoin="round" stroke-width="12.5" d="M2605.5,2187.5s60.8,59.4,42.5,104.8l-4.1,8.2-40.8,82.5"/><ellipse cx="2651.4" cy="1946.4" fill="none" stroke="#31323d" stroke-linecap="round" stroke-linejoin="round" stroke-width="8" rx="13.5" ry="11.8" transform="translate(-233.2 3526.8) rotate(-65)"/><path fill="none" stroke="#31323d" stroke-miterlimit="10" stroke-width="8" d="M2284.2,1134.4c-1.7,10-15,16.1-25,14.5s-22.6-13.6-20.1-24.8,16.1-13.2,26.1-11.6S2285.8,1124.3,2284.2,1134.4Z"/><path fill="#fff" stroke="#31323d" stroke-linecap="round" stroke-linejoin="round" stroke-width="8" d="M1814.5,332.1s2.1-18.8,25.3-17.3,25.4,25.4-12.9,41"/><path fill="#fff" stroke="#31323d" stroke-linecap="round" stroke-linejoin="round" stroke-width="8" d="M1799.5,374.9s-11.5,17.2-32.9,11c-14.1-4.1-20.2-31.4,17.4-33.7"/><path fill="#fff" stroke="#31323d" stroke-linecap="round" stroke-linejoin="round" stroke-width="8" d="M834.6,368s24.4-5,31.8,17-13.9,31-42.8,1.3"/><path fill="#fff" stroke="#31323d" stroke-linecap="round" stroke-linejoin="round" stroke-width="8" d="M795.1,369.6s-19.9-3.2-22.2-25.4c-1.5-14.7,20.2-28,36.6,1.9"/><ellipse cx="1805.6" cy="351.5" fill="none" stroke="#31323d" stroke-miterlimit="10" stroke-width="8" rx="19.8" ry="24.3" transform="translate(66.2 949.9) rotate(-30)"/><ellipse cx="814.8" cy="367.9" fill="none" stroke="#31323d" stroke-miterlimit="10" stroke-width="8" rx="27.9" ry="17.4" transform="translate(111 919.3) rotate(-62.4)"/><path fill="none" stroke="#31323d" stroke-linecap="round" stroke-linejoin="round" stroke-width="5" d="M2660.6,1940.1s-12.5-.1-11.6,17.2"/><path fill="#31323d" d="M2245.2,2338.4l4-2.6,4.1-2.8,3.9-2.9,3.9-3,7.6-6.2,3.7-3.3.9-.8,1.4-1.1a20.9,20.9,0,0,1,2.8-1.7,47,47,0,0,1,11-3.6c3.6-.7,7-1.2,10.3-1.7,6.6-.9,12.9-1.8,18.5-3.6l9.3-3.2c3.2-1.1,6.4-2.3,9.7-3.3a110.1,110.1,0,0,1,20.8-4.6,102.1,102.1,0,0,1,21.4-.3,94.4,94.4,0,0,1,10.5,1.4c1.8.2,3.4.6,5.1.9l5.1,1c27,6,52.6,16.8,76.2,30.6,5.9,3.4,11.7,7.1,17.4,10.9s11.2,7.8,16.6,11.9,10.8,8.5,16,13c2.5,2.2,5.1,4.5,7.6,6.9s2.5,2.3,3.7,3.5,2.5,2.4,3.8,3.8a6.2,6.2,0,0,1-.2,8.8,6.3,6.3,0,0,1-8.9-.2h0l-3.4-3.3c-1.1-1.2-2.3-2.3-3.5-3.4l-7.3-6.6c-5-4.3-10.1-8.4-15.3-12.4s-10.6-7.9-16.1-11.6-11-7.1-16.7-10.4c-22.7-13.3-47.1-23.5-72.6-29.1l-4.8-1c-1.6-.3-3.2-.7-4.8-.9s-6.3-.9-9.4-1.1a90.8,90.8,0,0,0-18.8.4,108.6,108.6,0,0,0-18.3,4.5l-9.4,3.2c-3.1,1.1-6.4,2.2-9.8,3.2l-2.6.8-2.7.6-5.4,1c-3.5.5-6.9.8-10.2,1.1l-9.7,1a42.1,42.1,0,0,0-8.3,2l-1.6.7-.7.4-1,.7-4.2,3-8.8,5.5-4.5,2.5-4.7,2.3-4.7,2.1c-1.6.6-3.2,1.2-5,1.7a2.5,2.5,0,0,1-3.2-1.6,2.7,2.7,0,0,1,1.1-2.9Z"/><path fill="#31323d" d="M2457,2394.3c4.8-.6,9.7-1.3,14.5-2.1l14.4-2.8,7.2-1.6,3.6-.8,3.5-.9,3.6-.9,3.5-1,3.5-.9,3.5-1.1,3.5-1,3.5-1.1,7-2.2,7-2.4c2.7-.9,5.3-1.5,7.9-2.1a94.6,94.6,0,0,1,15.8-1.9,117.5,117.5,0,0,1,15.7.2,115.7,115.7,0,0,1,15.5,2.2,128.6,128.6,0,0,1,15.1,3.9,113.1,113.1,0,0,1,28.4,13.8,98.7,98.7,0,0,1,12.4,10,71.5,71.5,0,0,1,10.3,12.3,56.8,56.8,0,0,1,10,29.8,2.4,2.4,0,0,1-2.4,2.6,2.3,2.3,0,0,1-2.4-1.4h0a116.8,116.8,0,0,0-14.7-23.9,111.1,111.1,0,0,0-9.5-9.9,90.9,90.9,0,0,0-11.1-8.2,109.5,109.5,0,0,0-25.3-11.6c-4.5-1.4-9-2.6-13.6-3.6a133.8,133.8,0,0,0-13.9-2.2,108.2,108.2,0,0,0-27.9.6l-6.6,1.5-7.1,2.1-7.3,2-3.7.9-3.7.9-3.7.8-3.7.7-7.4,1.4-3.8.6-3.7.5-7.5,1-7.6.7-7.5.4h-7.6c-2.6,0-5-.1-7.7-.3a2.5,2.5,0,0,1,0-5Z"/><path fill="none" stroke="#31323d" stroke-linecap="round" stroke-linejoin="round" stroke-width="12.5" d="M1053 2472.4L962.2 2472.4"/><path fill="none" stroke="#31323d" stroke-linecap="round" stroke-linejoin="round" stroke-width="12.5" d="M1665.5 2472.4L1185.7 2472.4"/><path fill="none" stroke="#31323d" stroke-linecap="round" stroke-linejoin="round" stroke-width="12.5" d="M2153.7 2265.3L2149.1 2365.5"/><path fill="none" stroke="#31323d" stroke-linecap="round" stroke-linejoin="round" stroke-width="12.5" d="M592.8,1904.8H564.3a12,12,0,0,0-12,11.9v96.1a12,12,0,0,0,12,12h859.8s52.1,3.1,137.1,47.3c80.6,41.1,222.8,118.5,334,177.6,40.9,17.1,93,15.2,132.9,15.2h157.3a12,12,0,0,0,12-11.9v-96.1a12,12,0,0,0-12-12H2028.2c-39.9,0-87.1,3.9-132.9-15.3-111.2-59.1-253.4-136.5-334-177.6-85-44.2-137.1-47.2-137.1-47.2H592.8Z"/><path fill="none" stroke="#31323d" stroke-linecap="round" stroke-linejoin="round" stroke-width="12.5" d="M652.2,1903.5s33-53.5,74-23.8"/><path fill="none" stroke="#31323d" stroke-linecap="round" stroke-linejoin="round" stroke-width="12.5" d="M710.8,1902.5s37.4-25,55.4-57,57.3-16.7,62.7-12c17.3,15,44.3,23,66.3,21s51-5.5,109,50.3"/><path fill="#31323d" d="M1795.7,2065.2a9.8,9.8,0,0,0,2.2-.5l2.8-1.4c2-1.1,4.3-2.7,6.7-4.1l7.4-4.2c2.6-1.3,5.3-2.4,8-3.5a117.6,117.6,0,0,1,33.2-7.2c5.6-.5,11.1-.8,16.7-.8s11,.2,16.5.5c2.7.2,5.5.3,8.2.6l8.1.7,4,.4,4.1.4,8.1.9a308.2,308.2,0,0,1,32.5,5.9,133.4,133.4,0,0,1,31.6,12,104.8,104.8,0,0,1,26.8,20.8c.9,1,1.9,2,2.8,3.1l2.6,3.2,2.6,3.3,2.3,3.4a120.7,120.7,0,0,1,8.3,14.3,2.5,2.5,0,0,1-1.2,3.4,2.4,2.4,0,0,1-2.8-.4h-.1c-8-7.4-15.2-15-22.9-21.9l-2.8-2.6c-1-.9-2-1.6-2.9-2.5l-3-2.4-.7-.6-.8-.5-1.5-1.2-3.1-2.2-.8-.5-.8-.5-1.6-1-3.2-1.9a6.5,6.5,0,0,0-1.6-.9l-1.7-.9a127.9,127.9,0,0,0-28.8-10.2,280.4,280.4,0,0,0-30.9-5.1l-7.9-.9-3.9-.4-4-.3-8-.7-7.8-.6c-5.3-.3-10.5-.4-15.7-.4s-10.4.1-15.5.5c-10.3.8-20.3,2.5-29.6,5.9l-6.9,2.8-6.7,3.6c-2.3,1.2-4.5,2.6-7.3,4a31.8,31.8,0,0,1-4.5,2,24.2,24.2,0,0,1-5.6,1.1,6.2,6.2,0,0,1-1.4-12.4Z"/><path fill="#31323d" d="M2008.1,2084.9l2-.5,1.9-.5,3.8-.7,7.5-1a127.1,127.1,0,0,1,15.1-.6,113.8,113.8,0,0,1,30,4.7,102.5,102.5,0,0,1,14.3,5.4,36.5,36.5,0,0,1,3.4,1.8,36.5,36.5,0,0,1,3.4,1.8l3.3,2,3.1,2.2,3,2.3,3,2.5c1.8,1.7,3.7,3.4,5.4,5.3a69.5,69.5,0,0,1,9.1,11.9,2.5,2.5,0,0,1-3.8,3.3h0c-7.3-6.1-14.6-11.6-22.6-15.8l-3-1.6-3.1-1.5-3.1-1.4a28.5,28.5,0,0,0-3.1-1.2,79.9,79.9,0,0,0-12.8-4.2,119.8,119.8,0,0,0-13.3-2.5,122.6,122.6,0,0,0-13.6-1.1c-4.5-.1-9.1,0-13.6.2l-6.8.6-3.4.4-1.6.2-1.5.2h-.4a6.2,6.2,0,0,1-2.6-12.2Z"/><path fill="none" stroke="#31323d" stroke-linecap="round" stroke-linejoin="round" stroke-width="12.5" d="M2094.4,2102.6s177-32,260,83"/><path fill="#31323d" d="M2322.6,2195a107.6,107.6,0,0,1,11-2.3,100.3,100.3,0,0,1,11-1.5,121.8,121.8,0,0,1,22.6-.3,74,74,0,0,1,11.5,1.6l5.7,1.4c1.9.6,3.8,1.2,5.7,2a47.4,47.4,0,0,1,10.8,5.9,40,40,0,0,1,8.9,9,6.2,6.2,0,0,1-9.7,7.8l-.2-.2a65.6,65.6,0,0,0-6.7-6.2l-1.9-1.3-2-1.3-2.1-1.2-1-.6-1.1-.5a44.3,44.3,0,0,0-4.5-2c-1.6-.6-3.1-1.2-4.8-1.7a79.4,79.4,0,0,0-9.9-2.4c-3.4-.6-6.9-1.1-10.4-1.5s-7-.5-10.6-.6-7.1,0-10.7.1-7.1.4-10.6.7h-.1a2.3,2.3,0,0,1-2.7-2.2A2.4,2.4,0,0,1,2322.6,2195Z"/><path fill="#31323d" d="M572.8,2420.7c4.3-4.6,8.9-8.8,13.5-12.9s9.1-8,13.5-12a71.1,71.1,0,0,0,11.5-12.7l1-1.6a3,3,0,0,0,.4-.8l.5-1a28.3,28.3,0,0,1,3.4-5.1,66.3,66.3,0,0,1,7.7-7.4,123,123,0,0,1,16.5-10.8c5.6-3.2,11.3-6.1,17.1-8.8s11.8-5.1,17.9-7.3c3-1,6.1-2,9.4-2.9a38.1,38.1,0,0,1,5.1-1.2l2.9-.4h3.1a66.1,66.1,0,0,1,10.3,1.2c3.3.5,6.5,1.2,9.7,2a146.8,146.8,0,0,1,18.7,6.3,80.5,80.5,0,0,1,17.8,10.3,37.8,37.8,0,0,1,7.8,8.5,17.3,17.3,0,0,1,1.5,2.7l.4.7v.2h0l.2.3a6,6,0,0,0,1.8,1.8,29.2,29.2,0,0,0,6.4,3.8,83.2,83.2,0,0,0,8,2.9c5.6,1.8,11.5,3.2,17.5,4.6l18.2,3.7c6.1,1.3,12.3,2.5,18.8,4.3l5,1.6a26.9,26.9,0,0,1,5.8,3l.9.7.9.8.5.5.2.3.4.5a16.3,16.3,0,0,1,1.7,2l2.9,3.7a27.8,27.8,0,0,0,5.2,5.5,23.7,23.7,0,0,0,6.3,3.4,44.4,44.4,0,0,0,7.8,2.1l4.2.7,2.2.3,1.3.2,1.5.2a59.2,59.2,0,0,1,10.3,3.2c3.2,1.2,6.1,2.7,9.1,4.1,5.8,3,11.3,6.3,16.7,9.8s10.6,7,15.8,10.6c10.3,7.4,20.3,15,30.1,22.9l7.3,6c2.5,2,4.8,3.9,7.3,6.1a24.3,24.3,0,0,1,4.4,4.6,19,19,0,0,1,1.9,3.5,14.9,14.9,0,0,1,1,4.5,13.5,13.5,0,0,1-.6,4.9,14.3,14.3,0,0,1-2,3.9,20.9,20.9,0,0,1-5,4.9,47.8,47.8,0,0,1-9.7,5.1,98.2,98.2,0,0,1-9.6,3.2,189.3,189.3,0,0,1-19,4l-4.8.8-2.4.3-2.4.3a89.2,89.2,0,0,1-10.3.3,169.7,169.7,0,0,1-19.4-2c-6.2-1-12.2-2.1-18-2.5s-11.1-.1-15.3,1.7h-.1a6.1,6.1,0,0,1-8.2-3.2,6.2,6.2,0,0,1,3.1-8.2,36.8,36.8,0,0,1,10.9-2.9,61.1,61.1,0,0,1,10.4-.3c6.8.4,13.1,1.4,19.2,2.3a137.4,137.4,0,0,0,17.7,1.7,46.4,46.4,0,0,0,8.4-.4l2.2-.2,2.3-.4,4.4-.7a159.4,159.4,0,0,0,17.5-3.9,71.9,71.9,0,0,0,8.2-2.8,30,30,0,0,0,6.7-3.5,6.6,6.6,0,0,0,1.7-1.6l.2-.2c-.1,0-.1.2-.1.3h0l-.4-.6a13.8,13.8,0,0,0-2.1-2.1l-7.1-5.9-7.2-5.8c-9.6-7.7-19.5-15.1-29.5-22.2a257.5,257.5,0,0,0-30.8-19.2c-2.7-1.4-5.3-2.6-7.9-3.7a40.8,40.8,0,0,0-7.6-2.3l-.8-.2h-1l-2.5-.3-5-.8a67.1,67.1,0,0,1-10.1-2.9,33.3,33.3,0,0,1-10.1-5.5,44.2,44.2,0,0,1-7.7-8l-2.8-3.6-1.3-1.6-.4-.4v-.2c-.1-.1,0,0,0,.1h.1s.1,0,0-.1l-2.6-1.2-3.8-1.2c-5.6-1.6-11.6-2.8-17.7-4.1l-18.4-3.9c-6.2-1.4-12.4-2.9-18.7-4.9-3.1-1.1-6.3-2.2-9.5-3.6a40.9,40.9,0,0,1-9.6-5.8,22.4,22.4,0,0,1-4.6-5l-1-1.7-.5-1.1a8.3,8.3,0,0,0-.7-1.3,23.7,23.7,0,0,0-4.9-5.2,61.2,61.2,0,0,0-14.4-8.4,121.7,121.7,0,0,0-16.7-5.7c-2.9-.8-5.8-1.4-8.6-2a66.7,66.7,0,0,0-8.3-1h-1.5l-1.7.2-4.1.9-8.4,2.6c-5.6,2-11.3,4.3-16.8,6.7s-11,5.2-16.2,8.1a102.7,102.7,0,0,0-14.9,9.6,38.1,38.1,0,0,0-5.8,5.4,12.2,12.2,0,0,0-1.8,2.6l-.6,1.1c-.2.5-.5.9-.7,1.3l-1.5,2.4a65.3,65.3,0,0,1-6.6,8c-2.3,2.4-4.6,4.7-7.1,6.9a108.2,108.2,0,0,1-15.4,11.5,85.2,85.2,0,0,1-8.4,4.6l-4.4,2c-1.5.6-2.9,1.2-4.5,1.7a2.6,2.6,0,0,1-3.3-1.7,2.8,2.8,0,0,1,.6-2.5Z"/><path fill="#31323d" d="M824.6,2466.5a76.1,76.1,0,0,1,12.2,10.5l2.7,3,2.4,2.8,5.1,5.4c3.5,3.6,7.1,7.1,10.7,10.5s7.4,6.9,11.2,10.2,7.7,6.4,11.7,9.4a130.2,130.2,0,0,0,12.2,8.2,47.8,47.8,0,0,0,6.1,2.9,11.2,11.2,0,0,0,1.3.5l.6.2.8.2a33.9,33.9,0,0,1,4.3,1.1,30.2,30.2,0,0,1,8.8,4.1,18.2,18.2,0,0,1,4.3,4.1,13,13,0,0,1,2.5,7.3,12.8,12.8,0,0,1-1.9,7,16.3,16.3,0,0,1-3.5,4.5,36.3,36.3,0,0,1-7.4,5.5,86.7,86.7,0,0,1-15.3,6.9,139.1,139.1,0,0,1-31.7,6.8,201.3,201.3,0,0,1-32,.4c-5.3-.4-10.6-.9-15.8-1.7a154.7,154.7,0,0,1-16-3,88.2,88.2,0,0,1-15.8-5.7,69.7,69.7,0,0,1-14.3-9.5c-4.2-3.7-7.6-7.2-11.1-9.5a25.6,25.6,0,0,0-5.5-2.7,29.3,29.3,0,0,0-6-1.5,36.4,36.4,0,0,0-6.7-.2l-3.5.2-3.6.3c-4.7.5-9.6,1.5-14.9,2.4a82.7,82.7,0,0,1-16.6,1.4,109.8,109.8,0,0,1-16.4-1.6l-7.5-1.3-7.4-1c-5-.5-9.9-.9-14.8-1-9.8-.2-19.9.7-30.2,1.5-5.1.4-10.3.9-15.5,1.2l-3.9.3-4.1.2h-7.9q-15.7-.2-31.2-.9c-20.7-1-41.4-2.6-62-4.5s-41.2-4.3-61.8-7.5c-10.2-1.5-20.5-3.3-30.7-5.4a307.4,307.4,0,0,1-30.7-7.9l-1.9-.7h-.5l-.5-.2-1.4-.6a17.7,17.7,0,0,1-5-3.6,16.7,16.7,0,0,1-4.7-11,17.1,17.1,0,0,1,3.6-11.4,19.5,19.5,0,0,1,4.6-4l.6-.3.4-.3.9-.4,1.7-1c9.1-5,18.3-9.8,27.7-14.4a280.6,280.6,0,0,1,29.2-12.3c1.3-.4,2.5-.9,3.8-1.2s2.6-.9,4-1.2l3.8-1c1.1-.2,2.2-.6,3.3-.9a102.8,102.8,0,0,0,13.4-5.6,181.5,181.5,0,0,0,25.3-15.9,251.4,251.4,0,0,0,23.2-19.2l5.2-5.2c1.7-1.8,3.3-3.6,4.7-5.4a71.7,71.7,0,0,1,5.7-6.3c1.9-1.9,3.9-3.7,5.9-5.5,7.8-7.1,16-13.6,24.4-19.9a291.6,291.6,0,0,1,26.1-17.7,138.4,138.4,0,0,1,14.3-7.5,83.2,83.2,0,0,1,8-3.1l4.4-1.1a24.9,24.9,0,0,1,5-.5,6.2,6.2,0,0,1,6.2,6.2,6.1,6.1,0,0,1-6.2,6.3h0a20.1,20.1,0,0,0-5.8,1.1,47.9,47.9,0,0,0-6.5,2.5,116.9,116.9,0,0,0-13,6.9,290.1,290.1,0,0,0-25.1,16.9c-8.1,6.1-16,12.4-23.5,19.2q-2.7,2.4-5.4,5.1a42.4,42.4,0,0,0-4.6,5.1c-1.8,2.3-3.7,4.3-5.5,6.3l-5.7,5.6a259.9,259.9,0,0,1-24.4,20.3,192.4,192.4,0,0,1-27.1,16.9,106.9,106.9,0,0,1-15.1,6.4l-4.1,1.1-3.7,1-3.5,1-3.5,1.1a255.8,255.8,0,0,0-27.7,11.8c-9.2,4.4-18.2,9.2-27.2,14.1l-1.7.9-.8.5-.4.2h-.2a4.7,4.7,0,0,0-1.3,1.1,4.5,4.5,0,0,0-.9,3,4.8,4.8,0,0,0,1.2,2.9,3.8,3.8,0,0,0,1.3.9l.4.2h.8l1.8.6a254.8,254.8,0,0,0,29.2,7.5c10,2,20,3.8,30.1,5.3,20.3,3,40.7,5.3,61.1,7.2s40.9,3.4,61.4,4.3c10.2.4,20.5.8,30.6.7h7.5l3.7-.2,3.8-.2,15.3-1.3c10.2-.9,20.7-1.8,31.5-1.7,5.4.1,10.8.5,16.1,1.1,2.7.2,5.3.6,7.9,1l7.7,1.2a79.8,79.8,0,0,0,14.4,1.4,76.8,76.8,0,0,0,14.2-1.1c4.8-.9,10.1-2,15.6-2.6l4.1-.4,4.2-.2a52,52,0,0,1,8.7.3,40.8,40.8,0,0,1,9,2.2,38.1,38.1,0,0,1,8.3,4.2,54.5,54.5,0,0,1,6.9,5.3c2,1.9,3.8,3.6,5.6,5.1a52.7,52.7,0,0,0,11.4,7.6,71.2,71.2,0,0,0,13.2,4.7,137.6,137.6,0,0,0,14.5,2.8c4.9.7,9.9,1.2,14.9,1.6a184,184,0,0,0,29.7-.2,123.9,123.9,0,0,0,28.7-5.8,72.2,72.2,0,0,0,12.9-5.8,23,23,0,0,0,5-3.6l1.3-1.5c.3-.4.2-.5.2-.3s.2.3,0,0a5.4,5.4,0,0,0-1.3-1.1,16.8,16.8,0,0,0-5.2-2.4l-3.1-.9-1.2-.2-1.2-.4-2.3-.8a51.6,51.6,0,0,1-7.8-3.9,131,131,0,0,1-13.4-9.1c-4.3-3.2-8.4-6.5-12.3-10a170.1,170.1,0,0,1-22.2-22.7,77.9,77.9,0,0,1-4.8-6.5c-.7-1.1-1.5-2.2-2.2-3.4l-1.9-3.2c-2.6-4.2-5.5-8.3-8.5-12.5h0a2.7,2.7,0,0,1,.6-3.6A2.6,2.6,0,0,1,824.6,2466.5Z"/><path fill="none" stroke="#31323d" stroke-linecap="round" stroke-linejoin="round" stroke-width="12.5" d="M1009.2,2511s38-45.3,67-46.9,21-16.6,42-14.6,65,15.3,76,30.6,62,26.2,65,41.3-61,18.1-87,14.1-26-.8-46,1.6-100.2,3.1-123-10.6C994.7,2521.4,1009.2,2511,1009.2,2511Z"/><path fill="#31323d" d="M1615,2560.1a98.7,98.7,0,0,1,6-12.2c2.3-4,4.7-7.9,7.3-11.6a126.4,126.4,0,0,1,8.4-10.9c1.6-1.8,3.1-3.5,4.9-5.2l1.2-1.2,1.4-1.3,2.9-2.4a88.8,88.8,0,0,1,12.3-7.6,122.5,122.5,0,0,1,12.8-5.8,105.5,105.5,0,0,1,13.5-4.2,84.8,84.8,0,0,1,14.4-2.3,66.5,66.5,0,0,1,7.7.1l4.1.7,2.1.6,1.1.3.6.2.4.2,6.3,2.6,5.9,2.6a49.3,49.3,0,0,0,5.7,1.7l6.6,1.7a27.3,27.3,0,0,1,8,4,45.6,45.6,0,0,1,6,5.5,61,61,0,0,1,8.5,12.2,86,86,0,0,1,5.9,13.2,81.8,81.8,0,0,1,3.9,13.9,66.1,66.1,0,0,1,1.3,14.9h0a5.1,5.1,0,0,1-.2,1.3,2,2,0,0,1-.2.6v.3l-.2.6c-.1.4-.3.8-.4,1.1l-1,1.9c-.8,1.1-1.6,2.2-2.4,3.1a25.5,25.5,0,0,1-5.7,4.8,36.1,36.1,0,0,1-12.4,4.6c-8.2,1.6-16.1,1.1-23.6.2l-5.3-.7-5.1-.5c-3.4-.3-6.8-.5-10.3-.6-6.9-.2-13.9-.1-20.9.3-14,.7-28.1,2.2-42.4,3.7-7.1.7-14.3,1.5-21.7,1.9l-5.5.3-5.4.2-10.9.2c-7.2.1-14.5,0-21.7-.1s-14.6-.6-22-1.3a111.1,111.1,0,0,1-11.2-1.5c-1.9-.4-3.8-.8-5.9-1.4l-1.5-.4-1.6-.6-.8-.3-.4-.2-.8-.3a10.2,10.2,0,0,1-3.6-3.2,9.3,9.3,0,0,1-1.2-2.7,8.9,8.9,0,0,1-.3-2.7,10,10,0,0,1,.9-3.7,16.5,16.5,0,0,1,2.4-3.9,34.6,34.6,0,0,1,4.7-4.7,84.5,84.5,0,0,1,9.5-6.9,195.2,195.2,0,0,1,19.5-10.7,215,215,0,0,1,20.5-8.4,171.3,171.3,0,0,1,21.5-6.2,106,106,0,0,1,22.7-2.4,6.4,6.4,0,0,1,6.2,6.4,6.3,6.3,0,0,1-6.3,6.1h0a86.3,86.3,0,0,0-19.9,2.6,158.4,158.4,0,0,0-19.7,5.9,189.2,189.2,0,0,0-19.1,8.2,165.5,165.5,0,0,0-18,10,70.6,70.6,0,0,0-7.9,5.9,40.2,40.2,0,0,0-2.9,2.8c-.3.4-.5.8-.4.7a3.3,3.3,0,0,0,.2-1.1,7.1,7.1,0,0,0-.1-1.4,7.7,7.7,0,0,0-.7-1.6,5.4,5.4,0,0,0-1.6-1.4h.5l1,.4,1,.3,4.6,1c3.2.5,6.6.9,10.1,1.2,6.8.7,13.9,1,20.9,1.1s14.1.1,21.2,0l10.6-.2,5.4-.2,5.1-.3c7-.4,14-1.1,21.1-1.9,14.2-1.5,28.6-3,43.2-3.7,7.3-.4,14.6-.5,22-.3l11.2.6,5.6.6,5.4.8c6.6.9,13.2,1.2,19.1.1a26.1,26.1,0,0,0,7.6-2.7,19.7,19.7,0,0,0,2.6-2.1l.8-1.2.3-.4a.3.3,0,0,1,.1-.2h0v.3l-.2,1.2a52.2,52.2,0,0,0-.9-11.6,93.2,93.2,0,0,0-3.2-11.8,88.1,88.1,0,0,0-5-11.3,47.9,47.9,0,0,0-6.6-9.6c-2.4-2.8-5.3-5-7.6-5.7l-6.3-1.6c-2.3-.7-4.6-1.3-7.2-2.3l-6.3-2.9-5.9-2.5h-.6l-.5-.2-1.1-.3-2.5-.4a33.7,33.7,0,0,0-5.6-.2,72.6,72.6,0,0,0-12,1.8c-4.1,1-8.1,2.2-12.1,3.6a117.5,117.5,0,0,0-11.5,5,73.5,73.5,0,0,0-10.5,6.4l-2.3,1.9-1,.9-1.2,1.1-4.5,4.4-8.8,9.5c-5.8,6.5-11.5,13.2-17.6,19.7h-.1a2.3,2.3,0,0,1-3.5.1A2.6,2.6,0,0,1,1615,2560.1Z"/><path fill="none" stroke="#31323d" stroke-linecap="round" stroke-linejoin="round" stroke-width="12.5" d="M1865.5,2450.8s-11.3-7.3-12.7-14.6-30.6-12.7-58.6-8.1-52.7,29.4-86.7,34.7-94,24.1-100,35,54.4,15.7,54.4,15.7"/><path fill="#31323d" d="M1825.6,2483.1c2.1-2,4.2-3.8,6-5.7a51.7,51.7,0,0,0,5.1-5.6,21.1,21.1,0,0,0,1.8-2.7,29.4,29.4,0,0,1,3.2-4c2.1-2.3,4.2-4.4,6.3-6.4a271.2,271.2,0,0,1,27.1-22,220.2,220.2,0,0,1,29.8-18.3,116.3,116.3,0,0,1,16.6-7,82.9,82.9,0,0,1,8.9-2.4,35.5,35.5,0,0,1,4.7-.9l4.5-.5c21.9-2.1,43.7-7.3,64.9-14.2,5.3-1.8,10.5-3.6,15.7-5.6l7.6-3.2,3.8-1.6,3.9-1.7a307.2,307.2,0,0,1,32.7-12.2,288.5,288.5,0,0,1,33.8-8.7,104.3,104.3,0,0,1,18-2.1h4.7l4.4.3c2.9.1,5.9.4,8.9.7a94.9,94.9,0,0,1,18,3.9,92.2,92.2,0,0,1,16.9,7.7,114.9,114.9,0,0,1,14.7,10.6l1.8,1.5a7.6,7.6,0,0,0,1.4,1.1c.9.8,1.9,1.5,3,2.3s4.4,2.8,6.7,4.1c9.5,5.3,19.8,10.1,30,15s20.6,9.9,30.8,15.5a211.7,211.7,0,0,1,29.4,19.2c9.2,7.4,17.9,16,24.5,26.3a6.3,6.3,0,0,1-10.5,6.9h0a97.8,97.8,0,0,0-22.1-22.9,208.3,208.3,0,0,0-27.8-17.7c-9.8-5.3-19.9-10.1-30.2-14.8l-15.5-7.2c-5.1-2.5-10.4-5.1-15.5-8-2.6-1.4-5.2-3-7.8-4.7l-3.9-2.8-1.8-1.6-1.6-1.3a104.5,104.5,0,0,0-12.9-9.2,74.1,74.1,0,0,0-14.1-6.3,76.1,76.1,0,0,0-15.2-3.3l-8-.7c-2.7-.1-5.7-.3-8-.2a96.9,96.9,0,0,0-15.7,1.8,279.7,279.7,0,0,0-32.1,8.2c-10.6,3.4-21.2,7.2-31.2,11.5l-3.9,1.8-4.1,1.7-8.1,3.2c-5.4,2.1-10.9,4-16.4,5.8-22,7.1-44.7,12.4-68,14.4l-3.9.4-3.7.6a71,71,0,0,0-7.6,2,104.8,104.8,0,0,0-14.8,6.1,203.4,203.4,0,0,0-28.3,16.9,275.7,275.7,0,0,0-26.1,20.7l-5.8,5.5-2.3,2.5a21.8,21.8,0,0,1-3.6,3.8,33.8,33.8,0,0,1-8.1,5.2,38.3,38.3,0,0,1-4.3,1.7l-4.4,1.1a2.6,2.6,0,0,1-3-2.2,2.4,2.4,0,0,1,.7-2.3Z"/><path fill="none" stroke="#31323d" stroke-linecap="round" stroke-linejoin="round" stroke-width="12.5" d="M1755.5,2528.4a698.9,698.9,0,0,0,83.7,3.8,548,548,0,0,1,84,5.3"/><path fill="#31323d" d="M1984,2492.2a205.7,205.7,0,0,1-12.5,16.6c-4.4,5.3-9,10.5-13.8,15.5a177.9,177.9,0,0,1-15.7,14.2c-2.7,2.3-5.6,4.4-8.5,6.5s-6.1,4-9.2,5.8a108.8,108.8,0,0,1-20,8.9,98.5,98.5,0,0,1-10.7,2.7l-2.8.5-2.7.4-2.4.3-2,.4a24.4,24.4,0,0,0-7.5,2.9l-1.7,1-1.6,1.3a25.4,25.4,0,0,0-2.9,2.8,31.7,31.7,0,0,0-4.7,7,28.7,28.7,0,0,0-1.8,4l-.7,2.1-.3,1-.2.8h0l-4-6.8,1.4.4,1.5.5,3.1.9,6.3,1.6c4.2,1.1,8.5,2,12.8,2.8,8.6,1.6,17.4,2.8,26.1,3.6l6.7.6,6.9.7,6.8.9,6.7.9c9.1,1.4,18,3.1,26.9,5s17.7,4.3,26.5,6.8l13,3.8,3.2,1,3,.8,6.3,1.4c8.5,1.7,17.3,2.9,26.1,4.1s17.7,2,26.6,2.7c17.7,1.5,35.5,2.4,53.3,2.4s35.5-.7,52.8-3.2a138.7,138.7,0,0,0,25.1-5.7,57.7,57.7,0,0,0,5.8-2.2l6.3-2.6c4.2-1.8,8.5-3.4,12.9-5a307,307,0,0,1,53.2-13.4c36.2-5.8,72.9-5.8,109-2.4l7,.7h1.8l1.7.3,3.3.5,13.2,2.1c8.8,1.3,17.7,2.4,26.5,3.5,17.7,2,35.5,3.6,53.1,3.9a183.8,183.8,0,0,0,25.9-1.1,54.8,54.8,0,0,0,11.6-2.8l1.1-.5,1.1-.6.4-.3h.2l.5-.3a19.9,19.9,0,0,1,1.9-1.2,42.5,42.5,0,0,1,7.2-3,104.8,104.8,0,0,1,13.9-3.5c4.5-.9,9-1.6,13.5-2.3,9-1.3,18-2.4,26.9-3.4,17.9-2.1,35.7-3.9,53.1-6.9,4.4-.7,8.7-1.5,12.9-2.5s8.4-2.1,12.3-3.4l5.5-2.3a21.3,21.3,0,0,0,4.3-2.7,5.8,5.8,0,0,0,1.1-1.3,1.3,1.3,0,0,0,.3-.7,2.8,2.8,0,0,0-.1-.8,7.7,7.7,0,0,0-.6-1.5h0a6.2,6.2,0,0,1,0-6.3h0c.2-.3.3-.5.4-.5v-.3l.3-.4a3.4,3.4,0,0,0,.6-.6l.9-.8a17.7,17.7,0,0,1,1.7-1.4l3.2-1.9a45.7,45.7,0,0,1,6.2-2.6,82.1,82.1,0,0,1,12.2-3.3,202.2,202.2,0,0,1,24-3.1,445.1,445.1,0,0,1,47.6-.4l5.9.3h5.4a100.4,100.4,0,0,0,10.8-.9,134.1,134.1,0,0,0,21.8-4.6l5.3-1.7,5.4-1.9a95.4,95.4,0,0,1,12.2-3.5,63.1,63.1,0,0,1,13-1.4c4.4,0,8.5.4,12.1.6a49,49,0,0,0,10.2-.4l2.6-.5,1.3-.3h.5a1.7,1.7,0,0,0-.7.6c-.2.3-.2.5-.2.3a8.4,8.4,0,0,0-.3-2.8,23,23,0,0,0-1.6-4.3,51.4,51.4,0,0,0-5.3-8.8,97.1,97.1,0,0,0-15-15.8,116.1,116.1,0,0,0-18.2-12.7,131.6,131.6,0,0,0-20.2-9.2,156.7,156.7,0,0,0-21.6-6c-14.7-3-29.8-3.9-45.3-3.6h0a2.6,2.6,0,0,1-2.6-2.5,2.6,2.6,0,0,1,1.9-2.5,122.8,122.8,0,0,1,48-2.9,129.6,129.6,0,0,1,23.7,5.6,140.5,140.5,0,0,1,22.5,9.8,137.9,137.9,0,0,1,20.4,13.8,105.5,105.5,0,0,1,17.4,17.9,64.5,64.5,0,0,1,6.8,11.1,31.1,31.1,0,0,1,2.5,6.7,22.6,22.6,0,0,1,.7,3.9,15.6,15.6,0,0,1-.1,4.8,14.2,14.2,0,0,1-2.5,5.7,11.3,11.3,0,0,1-2.5,2.4,17.1,17.1,0,0,1-2.9,1.6l-1.4.4-.9.2-1.6.4-3.2.6a64.4,64.4,0,0,1-13.1.7c-4.2-.2-7.9-.6-11.3-.5a50.5,50.5,0,0,0-10.2,1.1,84.9,84.9,0,0,0-10.3,3l-5.6,2-5.9,1.9c-3.9,1.1-7.8,2.2-11.8,3s-8.1,1.6-12.2,2.1-8.2.8-12.4.9h-6.3l-5.8-.3a443.2,443.2,0,0,0-46.1-.1,182.7,182.7,0,0,0-22.4,2.4,101,101,0,0,0-10.5,2.5,42.1,42.1,0,0,0-4.7,1.8l-1.8,1-.6.5h0l.2-.3h0v-6.3a14.8,14.8,0,0,1,1.9,4.6,13,13,0,0,1,.3,5.9,13.5,13.5,0,0,1-2.1,5.5,21,21,0,0,1-3.3,3.8,33.6,33.6,0,0,1-7,4.6c-2.4,1.1-4.7,2-7,2.9-4.6,1.6-9.1,2.7-13.6,3.8s-9.1,1.9-13.6,2.6c-18,3.1-35.9,4.9-53.7,7-8.9,1-17.8,2.1-26.5,3.4-4.4.6-8.8,1.3-13,2.2a105.4,105.4,0,0,0-12.3,3,37,37,0,0,0-5.2,2.2l-.9.6-1.7,1.1-2,1-1.9.9a44.1,44.1,0,0,1-7.4,2.2,60.5,60.5,0,0,1-7.2,1.3,186.1,186.1,0,0,1-27.8,1.3,541.9,541.9,0,0,1-54.3-4c-9-1.1-18-2.3-26.9-3.6l-13.4-2-3.4-.6-1.6-.2-.9-.2h-.6l-6.4-.6c-35.4-3.3-71.1-3.4-105.9,2.2a286.5,286.5,0,0,0-51,12.9c-4.2,1.5-8.3,3-12.3,4.7l-6.1,2.6c-2.3,1-4.5,1.8-6.8,2.6a167.7,167.7,0,0,1-27.3,6.2c-18.3,2.6-36.5,3.3-54.7,3.3s-36.2-.9-54.3-2.4c-9-.8-18-1.7-27-2.8s-18-2.5-27.1-4.3c-2.3-.4-4.5-.9-6.8-1.5l-3.6-1-3.2-.9-12.8-3.8c-8.6-2.4-17.1-4.6-25.8-6.6s-17.3-3.5-26-4.8q-3.3-.6-6.6-.9l-6.5-.8-6.6-.7-6.7-.7c-9.2-.8-18.2-2-27.3-3.7-4.5-.9-9-1.8-13.5-2.9l-6.7-1.7-3.4-1-1.7-.5-1.8-.6a6.2,6.2,0,0,1-4-6.8h0v-.9l.2-.8a5.8,5.8,0,0,1,.3-1.4c.2-1,.5-2,.7-2.9a52,52,0,0,1,2.1-5.5,42.6,42.6,0,0,1,6.3-10.3,29.8,29.8,0,0,1,4.3-4.4l2.4-2,2.6-1.8a41.9,41.9,0,0,1,11.5-4.6l3-.6,2.8-.4,4.6-.8a61.9,61.9,0,0,0,9.2-2.3,96.1,96.1,0,0,0,17.5-7.5c2.8-1.6,5.6-3.2,8.3-5s5.4-3.7,8.1-5.6l3.9-3,2-1.6,1.8-1.6,7.5-6.6c10-9,20.1-18.3,31.1-26.6a2.6,2.6,0,0,1,3.6.4A2.7,2.7,0,0,1,1984,2492.2Z"/><path fill="#31323d" d="M2279.5,2486.9l.6-1.1a3.1,3.1,0,0,1,.5-1l1.2-1.9,1.3-1.8,1.4-1.7c.9-1.1,2-2.1,3-3.1l3.4-2.8,1.7-1.3,1.8-1.1c1.2-.8,2.4-1.6,3.7-2.3l3.8-1.8,1.9-1,2-.7a130.7,130.7,0,0,1,32.4-7.7l8.2-.6,4.1-.3h12.2l8.2.3a292.7,292.7,0,0,1,32.3,3.6l8,1.5,4,.8,4,1,7.9,2,7.9,2.5,1.9.6,2,.6,3.8,1.4,3.9,1.4,3.8,1.6,3.8,1.5,3.8,1.7,3.7,1.8,3.7,1.9,3.6,2,3.5,2.2c2.3,1.4,4.6,3,6.8,4.6l3.3,2.5,3.2,2.6,6.1,5.1,1.5,1.3,1.3,1,.7.6.6.4.5.4.8.7.8.7,5.9,5.6c3.8,3.6,7.6,7.2,11.5,10.7h0a2.5,2.5,0,0,1,.1,3.6,2.6,2.6,0,0,1-3,.5,149.9,149.9,0,0,1-13.9-8.3l-6.5-4.5-.8-.5-.7-.4-.3-.2-.3-.2-.9-.5-2-1.2-1.7-1.1c-4.5-3-8.7-5.8-13.1-8.5-2.2-1.3-4.3-2.7-6.6-3.9l-3.3-1.9-3.4-1.8-3.3-1.8-3.4-1.6-3.5-1.7-3.5-1.6-3.5-1.5-3.5-1.4-3.6-1.3-1.8-.7-1.9-.5-7.3-2.2-7.5-1.9-3.8-.9-3.8-.7-7.6-1.4a288.9,288.9,0,0,0-30.8-2.8l-7.8-.2H2351l-3.8.3-7.7.5a137.8,137.8,0,0,0-29.5,5.9l-1.8.5-1.7.7-3.5,1.2-3.4,1.4-1.7.7-1.6.8c-1.1.6-2.3,1-3.3,1.6l-3.3,1.8-1.5.9-1.6,1-1.5,1.1-.7.5-.6.5-.8.4a2.3,2.3,0,0,1-3.3-.9A2.8,2.8,0,0,1,2279.5,2486.9Z"/><path fill="none" stroke="#31323d" stroke-linecap="round" stroke-linejoin="round" stroke-width="12.5" d="M2627.2,2340.7s22.3,36.8,53,54.1,121.7,48,130.6,62"/></g></g></g></svg>
