<?xml version="1.0" encoding="UTF-8" standalone="no"?>
<svg
   xmlns:dc="http://purl.org/dc/elements/1.1/"
   xmlns:cc="http://creativecommons.org/ns#"
   xmlns:rdf="http://www.w3.org/1999/02/22-rdf-syntax-ns#"
   xmlns:svg="http://www.w3.org/2000/svg"
   xmlns="http://www.w3.org/2000/svg"
   xmlns:sodipodi="http://sodipodi.sourceforge.net/DTD/sodipodi-0.dtd"
   xmlns:inkscape="http://www.inkscape.org/namespaces/inkscape"
   version="1.1"
   viewBox="0 0 172.68687 189.33139"
   enable-background="new 0 0 455 455"
   id="svg4006"
   sodipodi:docname="coins.svg"
   width="172.68687"
   height="189.33139"
   inkscape:version="0.92.3 (2405546, 2018-03-11)">
  <metadata
     id="metadata4012">
    <rdf:RDF>
      <cc:Work
         rdf:about="">
        <dc:format>image/svg+xml</dc:format>
        <dc:type
           rdf:resource="http://purl.org/dc/dcmitype/StillImage" />
        <dc:title></dc:title>
      </cc:Work>
    </rdf:RDF>
  </metadata>
  <defs
     id="defs4010" />
  <sodipodi:namedview
     pagecolor="#ffffff"
     bordercolor="#666666"
     borderopacity="1"
     objecttolerance="10"
     gridtolerance="10"
     guidetolerance="10"
     inkscape:pageopacity="0"
     inkscape:pageshadow="2"
     inkscape:window-width="2493"
     inkscape:window-height="1385"
     id="namedview4008"
     showgrid="false"
     inkscape:zoom="2.6461538"
     inkscape:cx="-72.969274"
     inkscape:cy="227.49999"
     inkscape:window-x="67"
     inkscape:window-y="27"
     inkscape:window-maximized="1"
     inkscape:current-layer="svg4006"
     fit-margin-top="0"
     fit-margin-left="0"
     fit-margin-right="0"
     fit-margin-bottom="0" />
  <g
     id="g4004"
     transform="matrix(0.41611296,0,0,0.41611296,-8.3222592,0)">
    <path
       d="M 426.804,361.836 C 426.92,361.072 427,360.296 427,359.5 v -24 c 0,-5.907 -3.323,-11.049 -8.196,-13.664 0.116,-0.764 0.196,-1.54 0.196,-2.336 v -24 c 0,-0.796 -0.079,-1.572 -0.196,-2.336 4.873,-2.615 8.196,-7.757 8.196,-13.664 v -24 C 427,246.953 420.047,240 411.5,240 H 306.975 c 0.005,-0.167 0.025,-0.331 0.025,-0.5 v -24 c 0,-5.907 -3.323,-11.049 -8.196,-13.664 0.116,-0.764 0.196,-1.54 0.196,-2.336 v -24 c 0,-5.907 -3.323,-11.049 -8.196,-13.664 0.116,-0.764 0.196,-1.54 0.196,-2.336 v -24 c 0,-0.796 -0.079,-1.572 -0.196,-2.336 4.873,-2.615 8.196,-7.757 8.196,-13.664 v -24 c 0,-0.796 -0.079,-1.572 -0.196,-2.336 C 303.677,90.549 307,85.407 307,79.5 v -24 C 307,49.593 303.677,44.451 298.804,41.836 298.92,41.072 299,40.296 299,39.5 v -24 C 299,6.953 292.047,0 283.5,0 h -112 C 162.953,0 156,6.953 156,15.5 v 24 c 0,5.907 3.323,11.049 8.196,13.664 C 164.079,53.928 164,54.704 164,55.5 v 24 c 0,0.796 0.079,1.572 0.196,2.336 C 159.323,84.451 156,89.593 156,95.5 v 24 c 0,0.796 0.079,1.572 0.196,2.336 -4.873,2.615 -8.196,7.757 -8.196,13.664 v 24 c 0,0.169 0.02,0.333 0.025,0.5 H 43.5 C 34.953,160 28,166.953 28,175.5 v 24 c 0,5.907 3.323,11.049 8.196,13.664 C 36.079,213.928 36,214.704 36,215.5 v 24 c 0,0.796 0.079,1.572 0.196,2.336 C 31.323,244.451 28,249.593 28,255.5 v 24 c 0,0.796 0.079,1.572 0.196,2.336 C 23.323,284.451 20,289.593 20,295.5 v 24 c 0,5.907 3.323,11.049 8.196,13.664 C 28.079,333.928 28,334.704 28,335.5 v 24 c 0,5.907 3.323,11.049 8.196,13.664 C 36.079,373.928 36,374.704 36,375.5 v 24 c 0,0.796 0.079,1.572 0.196,2.336 C 31.323,404.451 28,409.593 28,415.5 v 24 c 0,8.547 6.953,15.5 15.5,15.5 h 112 c 2.929,0 5.661,-0.832 8,-2.249 2.339,1.418 5.071,2.249 8,2.249 h 240 c 8.547,0 15.5,-6.953 15.5,-15.5 v -24 c 0,-0.796 -0.079,-1.572 -0.196,-2.336 4.873,-2.615 8.196,-7.757 8.196,-13.664 v -24 c 0,-5.907 -3.323,-11.049 -8.196,-13.664 z M 419.5,375 c 0.275,0 0.5,0.224 0.5,0.5 v 24 c 0,0.276 -0.225,0.5 -0.5,0.5 h -50.443 c 1.258,-5.301 1.943,-10.82 1.943,-16.5 0,-2.878 -0.191,-5.71 -0.523,-8.5 z m -120,65 c -31.154,0 -56.5,-25.346 -56.5,-56.5 0,-31.154 25.346,-56.5 56.5,-56.5 31.154,0 56.5,25.346 56.5,56.5 0,31.154 -25.346,56.5 -56.5,56.5 z M 179,383.5 c 0,-31.154 25.346,-56.5 56.5,-56.5 5.807,0 11.568,0.902 17.06,2.635 -4.888,4.266 -9.194,9.177 -12.778,14.611 -1.42,-0.154 -2.848,-0.247 -4.282,-0.247 -21.78,0 -39.5,17.72 -39.5,39.5 0,21.78 17.72,39.5 39.5,39.5 1.434,0 2.862,-0.093 4.282,-0.246 3.584,5.434 7.89,10.346 12.778,14.611 -5.491,1.733 -11.253,2.635 -17.06,2.635 C 204.346,440 179,414.654 179,383.5 Z M 155.5,400 h -104 c -0.275,0 -0.5,-0.224 -0.5,-0.5 v -24 c 0,-0.276 0.225,-0.5 0.5,-0.5 h 104 9.023 c -0.332,2.79 -0.523,5.622 -0.523,8.5 0,5.68 0.686,11.199 1.943,16.5 z m -112,-40 c -0.275,0 -0.5,-0.224 -0.5,-0.5 v -24 c 0,-0.276 0.225,-0.5 0.5,-0.5 h 104 8 c 0.275,0 0.5,0.224 0.5,0.5 v 24 c 0,0.276 -0.225,0.5 -0.5,0.5 z m -8,-40 c -0.275,0 -0.5,-0.224 -0.5,-0.5 v -24 c 0,-0.276 0.225,-0.5 0.5,-0.5 h 112 c 0.275,0 0.5,0.224 0.5,0.5 v 24 c 0,0.276 -0.225,0.5 -0.5,0.5 z M 43,279.5 v -24 c 0,-0.276 0.225,-0.5 0.5,-0.5 h 112 c 0.275,0 0.5,0.224 0.5,0.5 v 24 c 0,0.276 -0.225,0.5 -0.5,0.5 h -112 c -0.275,0 -0.5,-0.224 -0.5,-0.5 z m 8,-40 v -24 c 0,-0.276 0.225,-0.5 0.5,-0.5 h 112 c 0.275,0 0.5,0.224 0.5,0.5 v 24 c 0,0.276 -0.225,0.5 -0.5,0.5 h -112 c -0.275,0 -0.5,-0.224 -0.5,-0.5 z m 112,-104 c 0,-0.276 0.225,-0.5 0.5,-0.5 h 112 c 0.275,0 0.5,0.224 0.5,0.5 v 24 c 0,0.276 -0.225,0.5 -0.5,0.5 h -112 c -0.275,0 -0.5,-0.224 -0.5,-0.5 z m 8,-16 v -24 c 0,-0.276 0.225,-0.5 0.5,-0.5 h 112 c 0.275,0 0.5,0.224 0.5,0.5 v 24 c 0,0.276 -0.225,0.5 -0.5,0.5 h -112 c -0.275,0 -0.5,-0.224 -0.5,-0.5 z m 8,-40 v -24 c 0,-0.276 0.225,-0.5 0.5,-0.5 h 112 c 0.275,0 0.5,0.224 0.5,0.5 v 24 c 0,0.276 -0.225,0.5 -0.5,0.5 h -8 -104 C 179.225,80 179,79.776 179,79.5 Z M 283.5,175 c 0.275,0 0.5,0.224 0.5,0.5 v 24 c 0,0.276 -0.225,0.5 -0.5,0.5 h -112 c -0.275,0 -0.5,-0.224 -0.5,-0.5 v -24 c 0,-0.276 0.225,-0.5 0.5,-0.5 h 104 z m 8,40 c 0.275,0 0.5,0.224 0.5,0.5 v 24 c 0,0.276 -0.225,0.5 -0.5,0.5 h -8 -104 c -0.275,0 -0.5,-0.224 -0.5,-0.5 v -24 c 0,-0.276 0.225,-0.5 0.5,-0.5 h 104 z M 404,295.5 v 24 c 0,0.276 -0.225,0.5 -0.5,0.5 h -71.199 c -9.832,-5.1 -20.981,-8 -32.801,-8 -2.878,0 -5.71,0.191 -8.5,0.523 V 295.5 c 0,-0.276 0.225,-0.5 0.5,-0.5 h 112 c 0.275,0 0.5,0.224 0.5,0.5 z m 7.5,39.5 c 0.275,0 0.5,0.224 0.5,0.5 v 24 c 0,0.276 -0.225,0.5 -0.5,0.5 h -44.487 c -3.271,-9.371 -8.433,-17.858 -15.039,-25 z M 267.534,319.572 C 257.645,314.615 246.634,312 235.5,312 c -11.82,0 -22.968,2.9 -32.801,8 H 163.5 c -0.275,0 -0.5,-0.224 -0.5,-0.5 v -24 c 0,-0.276 0.225,-0.5 0.5,-0.5 h 112 c 0.275,0 0.5,0.224 0.5,0.5 v 20.487 c -2.912,1.016 -5.738,2.215 -8.466,3.585 z M 284,255.5 v 24 c 0,0.276 -0.225,0.5 -0.5,0.5 h -112 c -0.275,0 -0.5,-0.224 -0.5,-0.5 v -24 c 0,-0.276 0.225,-0.5 0.5,-0.5 h 112 c 0.275,0 0.5,0.224 0.5,0.5 z M 171,352.665 V 335.5 c 0,-0.169 -0.02,-0.333 -0.025,-0.5 h 12.051 c -4.837,5.229 -8.91,11.174 -12.026,17.665 z m 61.25,55.113 C 220.272,406.183 211,395.907 211,383.5 c 0,-12.407 9.272,-22.683 21.25,-24.278 -2.746,7.584 -4.25,15.758 -4.25,24.278 0,8.52 1.504,16.694 4.25,24.278 z M 412,255.5 v 24 c 0,0.276 -0.225,0.5 -0.5,0.5 h -112 c -0.275,0 -0.5,-0.224 -0.5,-0.5 v -24 c 0,-0.276 0.225,-0.5 0.5,-0.5 h 112 c 0.275,0 0.5,0.224 0.5,0.5 z M 171,15.5 c 0,-0.276 0.225,-0.5 0.5,-0.5 h 112 c 0.275,0 0.5,0.224 0.5,0.5 v 24 c 0,0.276 -0.225,0.5 -0.5,0.5 h -112 c -0.275,0 -0.5,-0.224 -0.5,-0.5 z m -128,160 c 0,-0.276 0.225,-0.5 0.5,-0.5 h 112 c 0.275,0 0.5,0.224 0.5,0.5 v 24 c 0,0.276 -0.225,0.5 -0.5,0.5 H 43.5 C 43.225,200 43,199.776 43,199.5 Z M 155.5,440 h -112 c -0.275,0 -0.5,-0.224 -0.5,-0.5 v -24 c 0,-0.276 0.225,-0.5 0.5,-0.5 h 112 c 0.275,0 0.5,0.224 0.5,0.5 v 24 c 0,0.276 -0.225,0.5 -0.5,0.5 z m 16,0 c -0.275,0 -0.5,-0.224 -0.5,-0.5 v -24 c 0,-0.169 -0.014,-0.334 -0.025,-0.5 h 0.358 c 4.836,9.812 11.859,18.352 20.427,25 z M 412,439.5 c 0,0.276 -0.225,0.5 -0.5,0.5 h -68.26 c 8.567,-6.648 15.59,-15.188 20.427,-25 H 411.5 c 0.275,0 0.5,0.224 0.5,0.5 z"
       id="path4000"
       inkscape:connector-curvature="0" />
    <path
       d="m 299.5,344 c -21.78,0 -39.5,17.72 -39.5,39.5 0,21.78 17.72,39.5 39.5,39.5 21.78,0 39.5,-17.72 39.5,-39.5 0,-21.78 -17.72,-39.5 -39.5,-39.5 z m 0,64 c -13.51,0 -24.5,-10.991 -24.5,-24.5 0,-13.509 10.99,-24.5 24.5,-24.5 13.51,0 24.5,10.991 24.5,24.5 0,13.509 -10.99,24.5 -24.5,24.5 z"
       id="path4002"
       inkscape:connector-curvature="0" />
  </g>
</svg>
